<svg width="20" height="21" viewBox="0 0 20 21" fill="none" xmlns="http://www.w3.org/2000/svg">
<path d="M16.0996 11.7513H12.8705C12.4424 11.7509 12.0317 11.9202 11.7283 12.2222C11.4249 12.5241 11.2537 12.9341 11.2521 13.3621V16.5913C11.2519 16.8039 11.2936 17.0144 11.3749 17.2109C11.4561 17.4073 11.5753 17.5858 11.7256 17.7361C11.876 17.8864 12.0545 18.0056 12.2509 18.0869C12.4473 18.1681 12.6579 18.2099 12.8705 18.2096H16.0996C16.5275 18.2079 16.9373 18.0365 17.2391 17.7332C17.5409 17.4298 17.7101 17.0192 17.7096 16.5913V13.3621C17.7099 13.1506 17.6684 12.9412 17.5875 12.7458C17.5067 12.5503 17.3881 12.3728 17.2386 12.2232C17.089 12.0737 16.9114 11.9551 16.716 11.8742C16.5206 11.7934 16.3111 11.7519 16.0996 11.7521M7.13214 11.7513H3.90297C3.47513 11.7537 3.06564 11.9254 2.76397 12.2288C2.46229 12.5322 2.29296 12.9426 2.29297 13.3705V16.5996C2.29275 16.8111 2.33424 17.0206 2.41508 17.216C2.49591 17.4114 2.61449 17.589 2.76404 17.7386C2.91358 17.8881 3.09116 18.0067 3.28659 18.0875C3.48202 18.1684 3.69148 18.2099 3.90297 18.2096H7.13214C7.56004 18.2101 7.97067 18.0409 8.27402 17.7391C8.57737 17.4373 8.7487 17.0275 8.75047 16.5996V13.3705C8.75069 13.1579 8.70898 12.9473 8.62773 12.7509C8.54648 12.5545 8.42728 12.376 8.27696 12.2256C8.12664 12.0753 7.94815 11.9561 7.75171 11.8749C7.55526 11.7936 7.34472 11.7519 7.13214 11.7521M7.13214 2.79297H3.90297C3.69148 2.79275 3.48202 2.83424 3.28659 2.91508C3.09116 2.99591 2.91358 3.11449 2.76404 3.26404C2.61449 3.41358 2.49591 3.59116 2.41508 3.78659C2.33424 3.98202 2.29275 4.19148 2.29297 4.40297V7.63214C2.29252 8.06004 2.46174 8.47067 2.76353 8.77402C3.06532 9.07737 3.47507 9.2487 3.90297 9.25047H7.13214C7.34472 9.25069 7.55526 9.20898 7.75171 9.12773C7.94815 9.04648 8.12664 8.92728 8.27696 8.77696C8.42728 8.62664 8.54648 8.44815 8.62773 8.25171C8.70898 8.05526 8.75069 7.84472 8.75047 7.63214V4.40297C8.7487 3.97507 8.57737 3.56532 8.27402 3.26353C7.97067 2.96174 7.56004 2.79252 7.13214 2.79297ZM16.0996 2.79297H12.8705C12.4426 2.79252 12.0319 2.96174 11.7286 3.26353C11.4252 3.56532 11.2539 3.97507 11.2521 4.40297V7.63214C11.2524 8.06128 11.4229 8.47278 11.7264 8.77623C12.0298 9.07968 12.4413 9.25025 12.8705 9.25047H16.0996C16.5275 9.2487 16.9373 9.07737 17.2391 8.77402C17.5409 8.47067 17.7101 8.06004 17.7096 7.63214V4.40297C17.7099 4.19148 17.6684 3.98202 17.5875 3.78659C17.5067 3.59116 17.3881 3.41358 17.2386 3.26404C17.089 3.11449 16.9114 2.99591 16.716 2.91508C16.5206 2.83424 16.3111 2.79275 16.0996 2.79297Z" stroke="#242424" stroke-width="1.25" stroke-linecap="round" stroke-linejoin="round"/>
</svg>
