<svg width="20" height="21" viewBox="0 0 20 21" fill="none" xmlns="http://www.w3.org/2000/svg">
<path d="M10 19.25H1.25V2.58333C1.25 2.58333 2.91667 1.75 5.625 1.75C8.33333 1.75 10 2.58333 10 2.58333V19.25ZM10 19.25V10.9167H10.2083C10.2083 10.9167 11.6667 11.75 14.375 11.75C17.0833 11.75 18.5417 10.9167 18.5417 10.9167H18.75V19.25H10ZM1.25 8.41667C1.25 8.41667 2.91667 7.58333 5.625 7.58333C8.33333 7.58333 10 8.41667 10 8.41667M3.33333 4.25V5.91667M3.33333 9.66667V11.3333M15.4167 11.7075V8.625C15.4167 8.34873 15.3069 8.08378 15.1116 7.88843C14.9162 7.69308 14.6513 7.58333 14.375 7.58333C14.0987 7.58333 13.8338 7.69308 13.6384 7.88843C13.4431 8.08378 13.3333 8.34873 13.3333 8.625V8.83333" stroke="#242424" stroke-width="1.25"/>
</svg>
