<svg width="20" height="21" viewBox="0 0 20 21" fill="none" xmlns="http://www.w3.org/2000/svg">
<path d="M16.2733 7.41797C16.9254 7.4913 17.3995 8.00172 17.4491 8.65588C17.5058 9.40422 17.5391 10.4238 17.4158 11.3084C17.3751 11.5993 17.2319 11.8661 17.012 12.0609C16.4995 12.5163 15.3741 13.4013 13.5795 14.2188C13.5298 14.6475 13.4768 15.0759 13.4204 15.5038C13.3975 15.6826 13.3145 15.8482 13.185 15.9735C13.0555 16.0989 12.8873 16.1764 12.7079 16.1934C12.072 16.2542 11.0362 16.3346 9.99995 16.3346C8.9637 16.3346 7.92786 16.2542 7.29203 16.193C7.11269 16.176 6.94446 16.0985 6.81498 15.9733C6.68549 15.848 6.60247 15.6825 6.57953 15.5038C6.53786 15.1927 6.48481 14.7644 6.42036 14.2188C4.62578 13.4013 3.49995 12.5163 2.98786 12.0609C2.76812 11.8661 2.6251 11.5992 2.58453 11.3084C2.46078 10.4238 2.49411 9.40422 2.55078 8.65588C2.60036 8.00172 3.07453 7.4913 3.72661 7.41797C4.75911 7.3013 6.67203 7.16797 9.99995 7.16797C13.3279 7.16797 15.2408 7.30214 16.2733 7.41797Z" stroke="#242424" stroke-width="1.25" stroke-linecap="round" stroke-linejoin="round"/>
<path d="M5.4213 7.27921C5.41908 6.98782 5.41797 6.67269 5.41797 6.3338C5.41797 4.63255 5.44755 3.55296 5.47797 2.89296C5.50547 2.29505 5.83797 1.78546 6.43589 1.75588C6.59051 1.74804 6.74543 1.74804 6.90005 1.75588C7.49838 1.78505 7.83047 2.29505 7.85797 2.89338C7.88839 3.55255 7.91797 4.63213 7.91797 6.3338C7.91797 6.63741 7.91713 6.92171 7.91547 7.18671M12.0871 7.18671C12.0855 6.92171 12.0846 6.63741 12.0846 6.3338C12.0846 4.63255 12.1142 3.55296 12.1446 2.89296C12.1721 2.29505 12.5046 1.78546 13.1026 1.75588C13.2572 1.74804 13.4121 1.74804 13.5667 1.75588C14.1646 1.78505 14.4971 2.29505 14.5246 2.89338C14.5551 3.55255 14.5846 4.63213 14.5846 6.3338C14.5846 6.67269 14.5835 6.98782 14.5813 7.27921M8.49089 16.2859C8.5713 17.2738 8.66297 18.1805 8.71547 18.6775C8.74213 18.93 8.89255 19.1438 9.14213 19.188C9.33505 19.2221 9.61214 19.2505 10.0009 19.2505C10.3896 19.2505 10.6671 19.2221 10.8592 19.188C11.1092 19.1438 11.2596 18.9296 11.2863 18.6775C11.3388 18.1805 11.4305 17.2738 11.5113 16.2859" stroke="#242424" stroke-width="1.25" stroke-linecap="round" stroke-linejoin="round"/>
</svg>
