<svg width="19" height="18" viewBox="0 0 19 18" fill="none" xmlns="http://www.w3.org/2000/svg">
<path d="M12.2137 8.15592L12.6554 7.71425C12.5382 7.59721 12.3794 7.53147 12.2137 7.53147C12.0481 7.53147 11.8892 7.59721 11.7721 7.71425L12.2137 8.15592ZM9.85706 5.79842L10.2987 6.24008C10.4158 6.1229 10.4815 5.96404 10.4815 5.79842C10.4815 5.63279 10.4158 5.47394 10.2987 5.35675L9.85706 5.79842ZM2.93289 2.41092C2.82249 2.5294 2.76239 2.6861 2.76525 2.84802C2.76811 3.00994 2.8337 3.16442 2.94821 3.27893C3.06272 3.39345 3.21721 3.45904 3.37913 3.4619C3.54104 3.46475 3.69775 3.40465 3.81623 3.29425L2.93289 2.41092ZM11.7721 7.71425L10.0037 9.48175L10.8871 10.3651L12.6554 8.59758L11.7721 7.71425ZM10.0037 9.48175L3.87539 15.6092L4.75956 16.4926L10.8879 10.3643L10.0037 9.48175ZM3.87539 15.6092C3.74256 15.7421 3.56241 15.8167 3.37456 15.8167C3.18672 15.8167 3.00656 15.7421 2.87373 15.6092L1.99039 16.4934C2.35764 16.8606 2.85568 17.066 3.37498 17.066C3.89428 17.066 4.39232 16.8597 4.75956 16.4926L3.87539 15.6092ZM2.87373 15.6092L2.40289 15.1376L1.51873 16.0209L1.99039 16.4934L2.87373 15.6092ZM2.40289 15.1376C2.27008 15.0047 2.19546 14.8246 2.19546 14.6367C2.19546 14.4489 2.27008 14.2688 2.40289 14.1359L1.51873 13.2526C1.15157 13.6198 0.945312 14.1179 0.945312 14.6372C0.945312 15.1565 1.15157 15.6537 1.51873 16.0209L2.40289 15.1376ZM2.40289 14.1359L8.53123 8.00758L7.64706 7.12425L1.51873 13.2526L2.40289 14.1359ZM8.53123 8.00758L10.2979 6.24008L9.41456 5.35592L7.64706 7.12425L8.53123 8.00758ZM17.3104 8.24342C17.4432 8.37625 17.5178 8.55641 17.5178 8.74425C17.5178 8.93209 17.4432 9.11225 17.3104 9.24508L18.1946 10.1284C18.5617 9.76117 18.768 9.26313 18.768 8.74383C18.768 8.22453 18.5617 7.72649 18.1946 7.35925L17.3104 8.24342ZM17.3104 9.24508L16.2504 10.3059L17.1337 11.1892L18.1946 10.1293L17.3104 9.24508ZM16.2504 10.3059C16.1846 10.3718 16.1065 10.4241 16.0205 10.4597C15.9345 10.4954 15.8423 10.5138 15.7491 10.5138C15.656 10.5138 15.5638 10.4954 15.4778 10.4597C15.3918 10.4241 15.3137 10.3718 15.2479 10.3059L14.3646 11.1892C14.7318 11.5564 15.2298 11.7627 15.7491 11.7627C16.2684 11.7627 16.7665 11.5564 17.1337 11.1892L16.2504 10.3059ZM12.3612 3.29342L16.4862 7.41842L17.3696 6.53508L13.2446 2.41092L12.3612 3.29342ZM16.4862 7.41842L17.3104 8.24342L18.1946 7.35925L17.3696 6.53508L16.4862 7.41842ZM15.2479 10.3059L14.4237 9.48092L13.5396 10.3643L14.3646 11.1892L15.2479 10.3059ZM14.4237 9.48092L12.6554 7.71258L11.7721 8.59675L13.5396 10.3643L14.4237 9.48092ZM14.4237 10.3643L17.3696 7.41842L16.4862 6.53508L13.5396 9.48092L14.4237 10.3643ZM10.2987 5.35592L6.17373 1.23092L5.29039 2.11425L9.41539 6.23925L10.2987 5.35592ZM10.8879 9.48092L8.53123 7.12342L7.64706 8.00758L10.0037 10.3643L10.8879 9.48092ZM3.81623 3.29425C4.94926 2.16123 6.48597 1.52471 8.08831 1.52471C9.69065 1.52471 11.2274 2.16123 12.3604 3.29425L13.2437 2.41092C11.8763 1.04356 10.0217 0.275391 8.08789 0.275391C6.1541 0.275391 4.30033 1.04356 2.93289 2.41092L3.81623 3.29425Z" fill="#242424"/>
</svg>
