<svg width="20" height="21" viewBox="0 0 20 21" fill="none" xmlns="http://www.w3.org/2000/svg">
<path d="M2.5 11.4025C2.5 11.3383 2.5 11.3058 2.50167 11.2792C2.5148 11.0773 2.60093 10.8871 2.74399 10.744C2.88705 10.6009 3.07727 10.5148 3.27917 10.5017C3.30667 10.5 3.3375 10.5 3.4025 10.5H16.5975C16.6617 10.5 16.6933 10.5 16.7208 10.5017C16.9227 10.5148 17.1129 10.6009 17.256 10.744C17.3991 10.8871 17.4852 11.0773 17.4983 11.2792C17.5 11.3058 17.5 11.3375 17.5 11.4025C17.5 11.7317 17.5 11.8967 17.4883 12.0817C17.3142 14.8208 14.9858 17.2392 12.255 17.515C12.0708 17.5342 11.9633 17.5383 11.7483 17.5467C11.1658 17.5696 10.583 17.5818 10 17.5833C9.45833 17.5833 8.86333 17.5692 8.25167 17.5467C8.03667 17.5383 7.92917 17.5342 7.74583 17.5158C5.01417 17.2392 2.68583 14.8208 2.5125 12.0817C2.5 11.8967 2.5 11.7317 2.5 11.4025Z" stroke="#242424" stroke-width="1.25"/>
<path d="M5.0013 17.1664L4.16797 18.8331M15.0013 17.1664L15.8346 18.8331M1.66797 10.4998H18.3346" stroke="#242424" stroke-width="1.25" stroke-linecap="round"/>
<path d="M2 10.52C2 10.6473 2.05119 10.7694 2.1423 10.8594C2.23341 10.9494 2.35698 11 2.48583 11C2.61468 11 2.73825 10.9494 2.82936 10.8594C2.92047 10.7694 2.97165 10.6473 2.97165 10.52H2ZM4.65327 7.79488L4.20112 7.97088C4.22504 8.03062 4.26085 8.085 4.30643 8.13082C4.35201 8.17663 4.40644 8.21294 4.46648 8.23758C4.52653 8.26223 4.59097 8.27472 4.65599 8.27431C4.72101 8.2739 4.78528 8.2606 4.84501 8.2352L4.65327 7.79488ZM8.51397 6.152L8.70636 6.5936C8.8223 6.54426 8.91425 6.45227 8.96274 6.33711C9.01122 6.22195 9.01243 6.09267 8.96612 5.97664L8.51397 6.152ZM2.97165 10.52V5.0064H2V10.52H2.97165ZM4.03076 3.96C4.46412 3.96 4.85343 4.22048 5.01407 4.61792L5.91642 4.2608C5.76575 3.88853 5.50564 3.57003 5.16966 3.34519C4.83367 3.12035 4.43721 3.00011 4.03141 3L4.03076 3.96ZM2.97165 5.0064C2.97165 4.42848 3.44582 3.96 4.03076 3.96L4.03141 3C3.49282 3 2.97564 3.21139 2.5948 3.58766C2.21395 3.96393 2 4.47427 2 5.0064H2.97165ZM5.01407 4.61792L5.26023 5.22464L6.16192 4.86816L5.91642 4.2608L5.01407 4.61792ZM5.10476 7.61888C4.94188 7.20855 4.94513 6.75202 5.11383 6.344L4.21343 5.9824C3.95067 6.61896 3.94668 7.33103 4.20112 7.97088L5.10476 7.61888ZM8.32223 5.71168L4.46088 7.35392L4.84501 8.2352L8.70571 6.59296L8.32223 5.71168ZM7.20289 5.44352C7.6058 5.61376 7.90572 5.93568 8.06248 6.328L8.96612 5.97664C8.84266 5.66185 8.65694 5.37389 8.41981 5.13082C8.18269 4.88775 7.89892 4.69381 7.58507 4.56032L7.20289 5.44352ZM5.11383 6.344C5.26603 5.96619 5.5545 5.65811 5.92354 5.47808L5.49861 4.61536C4.91406 4.89862 4.45628 5.38557 4.21343 5.9824L5.11383 6.344ZM5.92354 5.47808C6.12164 5.38142 6.33859 5.32834 6.55945 5.32248C6.78031 5.31663 6.99983 5.3575 7.20289 5.44352L7.58507 4.56032C7.25385 4.42035 6.89594 4.35339 6.53582 4.36278C6.1757 4.37217 5.82189 4.45833 5.49861 4.61536L5.92354 5.47808Z" fill="#242424"/>
</svg>
