<svg width="20" height="21" viewBox="0 0 20 21" fill="none" xmlns="http://www.w3.org/2000/svg">
<path d="M19.1695 10.2906L16.0445 4.04063C16.0056 3.96267 15.9457 3.89711 15.8716 3.8513C15.7975 3.80548 15.7121 3.78122 15.625 3.78125H4.375C4.28787 3.78122 4.20247 3.80548 4.12836 3.8513C4.05426 3.89711 3.99438 3.96267 3.95547 4.04063L0.830469 10.2906C0.798322 10.3558 0.781487 10.4274 0.78125 10.5V14.875C0.78125 15.1651 0.896484 15.4433 1.1016 15.6484C1.30672 15.8535 1.58492 15.9688 1.875 15.9688H18.125C18.4151 15.9688 18.6933 15.8535 18.8984 15.6484C19.1035 15.4433 19.2188 15.1651 19.2188 14.875V10.5C19.2185 10.4274 19.2017 10.3558 19.1695 10.2906ZM7.78984 10.0312L6.69609 7.84375H9.39766L10.4914 10.0312H7.78984ZM7.83516 4.71875L8.92891 6.90625H6.22734L5.13359 4.71875H7.83516ZM11.5852 4.71875L12.6789 6.90625H9.97734L8.88359 4.71875H11.5852ZM11.5398 10.0312L10.4461 7.84375H13.1477L14.2414 10.0312H11.5398ZM15.2898 10.0312L14.1961 7.84375H16.8977L17.9914 10.0312H15.2898ZM16.4289 6.90625H13.7273L12.6336 4.71875H15.3352L16.4289 6.90625ZM1.71875 14.875V10.6109L4.375 5.29844L7.03125 10.6109V15.0312H1.875C1.83356 15.0312 1.79382 15.0148 1.76451 14.9855C1.73521 14.9562 1.71875 14.9164 1.71875 14.875ZM18.125 15.0312H7.96875V10.9688H18.2812V14.875C18.2812 14.9164 18.2648 14.9562 18.2355 14.9855C18.2062 15.0148 18.1664 15.0312 18.125 15.0312Z" fill="#242424"/>
</svg>
