<svg width="16" height="17" viewBox="0 0 16 17" fill="none" xmlns="http://www.w3.org/2000/svg">
<path d="M14.1673 8.50058H5.93065M3.02332 8.50058H1.83398M3.02332 8.50058C3.02332 8.11513 3.17644 7.74547 3.44899 7.47292C3.72154 7.20036 4.0912 7.04724 4.47665 7.04724C4.8621 7.04724 5.23176 7.20036 5.50431 7.47292C5.77687 7.74547 5.92998 8.11513 5.92998 8.50058C5.92998 8.88603 5.77687 9.25569 5.50431 9.52824C5.23176 9.80079 4.8621 9.95391 4.47665 9.95391C4.0912 9.95391 3.72154 9.80079 3.44899 9.52824C3.17644 9.25569 3.02332 8.88603 3.02332 8.50058ZM14.1673 12.9052H10.3353M10.3353 12.9052C10.3353 13.2908 10.1818 13.6609 9.90922 13.9335C9.6366 14.2061 9.26685 14.3592 8.88132 14.3592C8.49587 14.3592 8.12621 14.2055 7.85366 13.9329C7.5811 13.6604 7.42798 13.2907 7.42798 12.9052M10.3353 12.9052C10.3353 12.5197 10.1818 12.1503 9.90922 11.8777C9.6366 11.6051 9.26685 11.4519 8.88132 11.4519C8.49587 11.4519 8.12621 11.605 7.85366 11.8776C7.5811 12.1501 7.42798 12.5198 7.42798 12.9052M7.42798 12.9052H1.83398M14.1673 4.09591H12.0973M9.18998 4.09591H1.83398M9.18998 4.09591C9.18998 3.71046 9.3431 3.3408 9.61566 3.06825C9.88821 2.7957 10.2579 2.64258 10.6433 2.64258C10.8342 2.64258 11.0232 2.68017 11.1995 2.75321C11.3758 2.82624 11.536 2.9333 11.671 3.06825C11.8059 3.2032 11.913 3.36342 11.986 3.53974C12.0591 3.71607 12.0967 3.90506 12.0967 4.09591C12.0967 4.28677 12.0591 4.47575 11.986 4.65208C11.913 4.8284 11.8059 4.98862 11.671 5.12357C11.536 5.25853 11.3758 5.36558 11.1995 5.43862C11.0232 5.51165 10.8342 5.54924 10.6433 5.54924C10.2579 5.54924 9.88821 5.39613 9.61566 5.12357C9.3431 4.85102 9.18998 4.48136 9.18998 4.09591Z" stroke="#242424" stroke-miterlimit="10" stroke-linecap="round"/>
</svg>
