<svg width="40" height="40" viewBox="0 0 40 40" fill="none" xmlns="http://www.w3.org/2000/svg">
<path d="M35.7409 32.6712C33.7922 34.3252 27.8736 35.9998 20.3329 35.9998C19.1274 35.9984 17.9222 35.9564 16.7196 35.8738C16.632 35.8669 16.5438 35.8775 16.4604 35.9051C16.377 35.9327 16.2999 35.9767 16.2337 36.0345C16.1676 36.0924 16.1137 36.1629 16.0752 36.2419C16.0367 36.3209 16.0144 36.4068 16.0096 36.4945C15.9979 36.6709 16.0567 36.8447 16.173 36.9777C16.2894 37.1107 16.4539 37.192 16.6302 37.2038C17.8626 37.2888 19.0976 37.332 20.3329 37.3332C28.6056 37.3332 34.4662 35.5025 36.6042 33.6885C36.7391 33.574 36.823 33.4106 36.8375 33.2343C36.8519 33.0579 36.7957 32.8831 36.6812 32.7482C36.5667 32.6133 36.4034 32.5294 36.227 32.5149C36.0507 32.5005 35.8758 32.5567 35.7409 32.6712ZM13.5022 35.5238C12.7876 35.4191 12.0762 35.2935 11.3689 35.1472C11.1972 35.1149 11.0198 35.1513 10.8747 35.2485C10.7296 35.3457 10.6285 35.496 10.593 35.667C10.5575 35.838 10.5906 36.0161 10.6851 36.163C10.7796 36.3099 10.9279 36.4139 11.0982 36.4525C11.8029 36.5985 12.5456 36.7298 13.3076 36.8432C13.3942 36.856 13.4825 36.8516 13.5674 36.8303C13.6524 36.809 13.7323 36.7712 13.8026 36.719C13.8729 36.6668 13.9323 36.6013 13.9773 36.5262C14.0223 36.4511 14.0521 36.3678 14.0649 36.2812C14.0777 36.1945 14.0734 36.1062 14.0521 36.0213C14.0308 35.9364 13.9929 35.8564 13.9407 35.7861C13.8886 35.7158 13.823 35.6564 13.7479 35.6114C13.6728 35.5664 13.5889 35.5367 13.5022 35.5238Z" fill="black"/>
<path d="M4.66667 23.9485V28.1552C2.11933 29.3939 0.666667 30.9532 0.666667 32.6665C0.666667 37.2565 10.6667 39.9999 20.3333 39.9999C28.2 39.9999 35.2667 38.3205 38.3333 35.7219C38.4682 35.6069 38.552 35.4431 38.5661 35.2665C38.5802 35.0898 38.5236 34.9148 38.4087 34.7799C38.2937 34.645 38.1299 34.5612 37.9533 34.5471C37.7766 34.533 37.6016 34.5896 37.4667 34.7045C34.6753 37.0745 27.7893 38.6665 20.3333 38.6665C9.52934 38.6665 2 35.5045 2 32.6665C2 31.6065 2.97933 30.5619 4.66667 29.6492V30.6665C4.66667 30.8433 4.73691 31.0129 4.86193 31.1379C4.98695 31.263 5.15652 31.3332 5.33333 31.3332C5.51015 31.3332 5.67971 31.263 5.80474 31.1379C5.92976 31.0129 6 30.8433 6 30.6665V29.0219C7.93318 28.249 9.94517 27.6901 12 27.3552V29.3332C12 29.51 12.0702 29.6796 12.1953 29.8046C12.3203 29.9296 12.4899 29.9999 12.6667 29.9999C12.8435 29.9999 13.013 29.9296 13.1381 29.8046C13.2631 29.6796 13.3333 29.51 13.3333 29.3332V27.1492C13.7308 27.0924 14.1291 27.0412 14.528 26.9959C14.615 26.9861 14.6993 26.9592 14.7759 26.9168C14.8526 26.8745 14.9201 26.8174 14.9747 26.749C15.0293 26.6805 15.0699 26.602 15.0941 26.5178C15.1184 26.4336 15.1258 26.3455 15.116 26.2585C15.1062 26.1715 15.0793 26.0873 15.037 26.0106C14.9946 25.934 14.9376 25.8664 14.8691 25.8118C14.8006 25.7572 14.7221 25.7166 14.6379 25.6924C14.5538 25.6681 14.4657 25.6607 14.3787 25.6705C14.022 25.7112 13.6787 25.7592 13.3333 25.8039V22.6152C14.9727 22.3739 18 21.0605 18 14.6665C17.9136 10.4373 16.3847 6.36451 13.6667 3.12319C13.5393 2.98706 13.3854 2.87844 13.2145 2.80401C13.0436 2.72959 12.8592 2.69093 12.6728 2.69043C12.4864 2.68993 12.3019 2.7276 12.1305 2.80111C11.9592 2.87461 11.8048 2.98241 11.6767 3.11786C10.4254 4.59087 9.41816 6.25484 8.69333 8.04653C8.05336 6.75606 7.26032 5.54736 6.33133 4.44653C6.2033 4.31115 6.04899 4.20332 5.87785 4.12962C5.70671 4.05592 5.52233 4.01791 5.336 4.01791C5.14967 4.01791 4.96529 4.05592 4.79415 4.12962C4.62301 4.20332 4.46871 4.31115 4.34067 4.44653C1.62196 7.69192 0.0908609 11.7672 0 15.9999C0 22.3939 3.02733 23.7072 4.66667 23.9485ZM6 27.5765V23.9485C6.74208 23.838 7.44758 23.5538 8.05912 23.1192C8.67066 22.6845 9.17096 22.1117 9.51933 21.4472C10.2015 22.0904 11.07 22.5007 12 22.6192V26.0072C9.95193 26.3254 7.94157 26.8512 6 27.5765ZM12.6613 3.99986C15.1742 6.99437 16.5875 10.7582 16.6667 14.6665C16.6667 18.5159 15.46 20.8665 13.3333 21.2665V18.6665C13.3333 18.4897 13.2631 18.3201 13.1381 18.1951C13.013 18.0701 12.8435 17.9999 12.6667 17.9999C12.4899 17.9999 12.3203 18.0701 12.1953 18.1951C12.0702 18.3201 12 18.4897 12 18.6665V21.2665C11.2484 21.1253 10.5729 20.718 10.0973 20.1192C10.504 18.7852 10.6967 17.3945 10.6667 15.9999C10.655 13.8742 10.2481 11.7693 9.46667 9.79253C10.1555 7.67693 11.2396 5.71127 12.6613 3.99986ZM5.33333 5.33319C6.53075 6.76182 7.48893 8.37492 8.17067 10.1099L8.17533 10.1192C8.93055 11.9883 9.32353 13.984 9.33333 15.9999C9.33333 19.8492 8.12667 22.1999 6 22.5999V20.2759L7.80467 18.4712C7.92611 18.3455 7.9933 18.1771 7.99178 18.0023C7.99026 17.8275 7.92015 17.6603 7.79655 17.5366C7.67294 17.413 7.50573 17.3429 7.33093 17.3414C7.15614 17.3399 6.98774 17.4071 6.862 17.5285L5.33333 19.0572L3.80467 17.5285C3.67893 17.4071 3.51053 17.3399 3.33573 17.3414C3.16093 17.3429 2.99373 17.413 2.87012 17.5366C2.74652 17.6603 2.6764 17.8275 2.67488 18.0023C2.67337 18.1771 2.74056 18.3455 2.862 18.4712L4.66667 20.2759V22.5999C2.54 22.1999 1.33333 19.8499 1.33333 15.9999C1.42 12.0932 2.83 8.33319 5.33333 5.33319Z" fill="black"/>
<path d="M38.7193 32.9273C38.7535 33.008 38.8033 33.0811 38.8658 33.1425C38.9283 33.2039 39.0022 33.2523 39.0835 33.2852C39.1647 33.318 39.2516 33.3345 39.3392 33.3337C39.4268 33.3329 39.5133 33.3149 39.594 33.2807C39.6746 33.2464 39.7477 33.1967 39.8091 33.1342C39.8705 33.0717 39.919 32.9977 39.9518 32.9165C39.9846 32.8353 40.0011 32.7484 40.0003 32.6608C39.9995 32.5732 39.9815 32.4866 39.9473 32.406L32.4293 14.6393C32.5873 14.126 32.6673 13.5907 32.6666 13.0533C32.6671 12.2331 32.4883 11.4227 32.1429 10.6788C31.7974 9.93493 31.2936 9.2755 30.6666 8.74667V7.33333C30.6649 6.92116 30.5359 6.51958 30.2972 6.18353C30.0586 5.84749 29.7219 5.59339 29.3333 5.456V2.33333C29.3333 1.7145 29.0875 1.121 28.6499 0.683418C28.2123 0.245833 27.6188 0 27 0C26.3811 0 25.7876 0.245833 25.3501 0.683418C24.9125 1.121 24.6666 1.7145 24.6666 2.33333V5.456C24.278 5.59339 23.9414 5.84749 23.7027 6.18353C23.464 6.51958 23.335 6.92116 23.3333 7.33333V8.74667C22.7065 9.27562 22.2028 9.93508 21.8573 10.679C21.5119 11.4228 21.333 12.2332 21.3333 13.0533C21.3326 13.5911 21.4124 14.1259 21.57 14.64L14.0533 32.406C13.9897 32.5676 13.9916 32.7477 14.0588 32.9079C14.1259 33.0682 14.253 33.1958 14.4129 33.2638C14.5727 33.3317 14.7528 33.3346 14.9148 33.2717C15.0767 33.2089 15.2078 33.0853 15.28 32.9273L15.9933 31.2413L19.6993 29.6513C20.3149 29.3842 20.8084 28.8965 21.0826 28.284L25.4293 18.4973C26.4523 18.7965 27.5396 18.7965 28.5626 18.4973L32.916 28.288C33.1904 28.9007 33.6844 29.3883 34.3006 29.6547L38.0033 31.2433L38.7193 32.9273ZM28.6666 13.1733C28.6666 13.3922 28.6235 13.6089 28.5398 13.8111C28.456 14.0134 28.3332 14.1971 28.1785 14.3518C28.0237 14.5066 27.84 14.6294 27.6378 14.7131C27.4356 14.7969 27.2188 14.84 27 14.84C26.7811 14.84 26.5644 14.7969 26.3622 14.7131C26.16 14.6294 25.9762 14.5066 25.8215 14.3518C25.6667 14.1971 25.5439 14.0134 25.4602 13.8111C25.3764 13.6089 25.3333 13.3922 25.3333 13.1733C25.3353 13.0007 25.3653 12.83 25.4213 12.6667H28.578C28.6353 12.8293 28.6646 13.0007 28.6666 13.1733ZM26 2.33333C26 2.06812 26.1053 1.81376 26.2929 1.62623C26.4804 1.43869 26.7348 1.33333 27 1.33333C27.2652 1.33333 27.5195 1.43869 27.7071 1.62623C27.8946 1.81376 28 2.06812 28 2.33333V5.33333H26V2.33333ZM24.6666 7.33333C24.6666 7.15652 24.7369 6.98695 24.8619 6.86193C24.9869 6.73691 25.1565 6.66667 25.3333 6.66667H28.6666C28.8434 6.66667 29.013 6.73691 29.138 6.86193C29.2631 6.98695 29.3333 7.15652 29.3333 7.33333V10.6667C29.3333 10.8435 29.2631 11.013 29.138 11.1381C29.013 11.2631 28.8434 11.3333 28.6666 11.3333H25.3333C25.1565 11.3333 24.9869 11.2631 24.8619 11.1381C24.7369 11.013 24.6666 10.8435 24.6666 10.6667V7.33333ZM19.17 28.4273L16.7433 29.4667L22.3333 16.252C22.8172 16.9604 23.4554 17.5498 24.2 17.976L20.2 26.992L19.8666 27.74C19.7282 28.0479 19.4797 28.293 19.17 28.4273ZM25.3266 17.0527C24.7609 16.8145 24.2523 16.4586 23.8348 16.0085C23.4173 15.5585 23.1004 15.0247 22.9053 14.4427C22.7445 13.9972 22.6637 13.5269 22.6666 13.0533C22.6657 12.233 22.8996 11.4296 23.3406 10.738C23.3606 11.3453 23.658 11.91 24.1466 12.2713C24.0514 12.5626 24.002 12.8669 24 13.1733C24 13.969 24.316 14.732 24.8786 15.2947C25.4413 15.8573 26.2043 16.1733 27 16.1733C27.7956 16.1733 28.5587 15.8573 29.1213 15.2947C29.6839 14.732 30 13.969 30 13.1733C29.999 12.8656 29.9498 12.5598 29.854 12.2673C30.0944 12.0893 30.2917 11.8593 30.4311 11.5946C30.5706 11.3298 30.6485 11.037 30.6593 10.738C31.1003 11.4296 31.3342 12.233 31.3333 13.0533C31.336 13.5333 31.2533 14.01 31.088 14.4613C30.8932 15.0405 30.5767 15.5713 30.1597 16.0181C29.7428 16.4648 29.235 16.8171 28.6706 17.0513C27.6002 17.4951 26.3974 17.4956 25.3266 17.0527ZM34.8326 28.4287C34.522 28.2954 34.2726 28.0506 34.1333 27.7427L29.8 17.9767C30.5455 17.5527 31.184 16.9636 31.6666 16.2547L37.256 29.4667L34.8326 28.4287Z" fill="black"/>
</svg>
