<svg width="40" height="40" viewBox="0 0 40 40" fill="none" xmlns="http://www.w3.org/2000/svg">
<path d="M35 13.9094V3.75C35 3.58424 34.9341 3.42527 34.8169 3.30806C34.6997 3.19085 34.5407 3.125 34.375 3.125H28.125C27.9592 3.125 27.8002 3.19085 27.683 3.30806C27.5658 3.42527 27.5 3.58424 27.5 3.75V7.15875L20.4187 0.785625C20.3039 0.682367 20.155 0.625163 20.0006 0.625C19.76 0.625 19.76 0.625 10.2068 9.22313L0.831841 17.6606C0.768823 17.7174 0.718016 17.7864 0.682514 17.8634C0.647012 17.9404 0.627558 18.0239 0.625337 18.1087C0.623115 18.1934 0.638171 18.2778 0.66959 18.3566C0.701009 18.4353 0.748132 18.5069 0.808091 18.5669L2.68309 20.4419C2.79574 20.5546 2.94725 20.62 3.10656 20.6247C3.26587 20.6293 3.42093 20.5729 3.53997 20.4669L4.99997 19.1694V38.75C4.99997 38.9158 5.06581 39.0747 5.18302 39.1919C5.30023 39.3092 5.45921 39.375 5.62497 39.375H34.375C34.5407 39.375 34.6997 39.3092 34.8169 39.1919C34.9341 39.0747 35 38.9158 35 38.75V19.1694L36.46 20.4669C36.5789 20.573 36.734 20.6295 36.8934 20.6249C37.0527 20.6202 37.2043 20.5548 37.3168 20.4419L39.1918 18.5669C39.2518 18.5069 39.2989 18.4353 39.3303 18.3566C39.3618 18.2778 39.3768 18.1934 39.3746 18.1087C39.3724 18.0239 39.3529 17.9404 39.3174 17.8634C39.2819 17.7864 39.2311 17.7174 39.1681 17.6606L35 13.9094ZM28.75 4.375H33.75V12.7844L28.75 8.28438V4.375ZM6.24997 32.8056L11.1981 28.9569L13.5293 31.2881L7.83122 38.125H6.24997V32.8056ZM17.2612 18.8775C16.4024 18.0199 15.3398 17.3945 14.1731 17.06L12.0825 16.4625C12.0228 16.4452 11.9704 16.4091 11.933 16.3595C11.8956 16.3099 11.8752 16.2496 11.875 16.1875C11.875 16.0787 11.9356 15.9813 12.0331 15.9325C12.4372 15.7308 12.8826 15.6255 13.3343 15.625H13.3375C15.1947 15.6258 17.0365 15.961 18.775 16.6144C20.1791 17.1386 21.4536 17.9593 22.5118 19.0206L24.375 20.8838V22.2412C24.375 22.9781 24.6618 23.6706 25.1831 24.1919C25.585 24.5934 26.1021 24.8597 26.6625 24.9537L24.3293 27.2869C24.221 26.6462 23.8889 26.0647 23.3921 25.646C22.8953 25.2272 22.266 24.9983 21.6162 25C21.0216 24.9983 20.4325 25.1146 19.8831 25.3421C19.3337 25.5697 18.8349 25.904 18.4156 26.3256L18.125 26.6162L15.8837 24.375L17.2881 22.9706C17.8281 22.4306 18.125 21.7131 18.1243 20.9225C18.1243 20.1606 17.8275 19.4438 17.2612 18.8775ZM28.125 25.2588L29.7412 26.875L26.25 30.3662L24.6337 28.75L28.125 25.2588ZM16.6162 26.875L13.75 29.7412L12.7587 28.75L15.625 25.8838L16.6162 26.875ZM33.75 38.125H9.45934L14.8556 31.6506C14.9555 31.5307 15.0069 31.3778 14.9997 31.2219C14.9926 31.0659 14.9273 30.9184 14.8168 30.8081L14.6337 30.625L17.5 27.7588L17.6831 27.9419C17.7411 28 17.81 28.0461 17.8858 28.0775C17.9616 28.1089 18.0429 28.1251 18.125 28.1251C18.2071 28.1251 18.2883 28.1089 18.3642 28.0775C18.44 28.0461 18.5089 28 18.5668 27.9419L19.2993 27.2094C19.6029 26.9042 19.964 26.6623 20.3617 26.4977C20.7594 26.333 21.1858 26.2488 21.6162 26.25C22.0193 26.25 22.3981 26.4069 22.6831 26.6919C22.9681 26.9769 23.125 27.3563 23.125 27.7588V28.75C23.125 28.9163 23.1906 29.075 23.3081 29.1919L25.8081 31.6919C25.866 31.7501 25.9349 31.7963 26.0107 31.8279C26.0865 31.8594 26.1678 31.8756 26.25 31.8756C26.3321 31.8756 26.4134 31.8594 26.4893 31.8279C26.5651 31.7963 26.6339 31.7501 26.6918 31.6919L31.0668 27.3169C31.1249 27.2589 31.171 27.19 31.2025 27.1142C31.2339 27.0384 31.2501 26.9571 31.2501 26.875C31.2501 26.7929 31.2339 26.7116 31.2025 26.6358C31.171 26.56 31.1249 26.4911 31.0668 26.4331L28.5668 23.9331C28.5089 23.875 28.44 23.8289 28.3642 23.7974C28.2884 23.766 28.2071 23.7499 28.125 23.75H27.1337C26.7306 23.75 26.3518 23.5931 26.0668 23.3081C25.7818 23.0231 25.625 22.6437 25.625 22.2412V20.625C25.6251 20.5429 25.609 20.4616 25.5775 20.3858C25.5461 20.3099 25.5 20.2411 25.4418 20.1831L23.3956 18.1369C22.2105 16.9486 20.7833 16.0297 19.2112 15.4425C17.3336 14.7373 15.3444 14.3757 13.3387 14.375H13.3343C12.689 14.3758 12.0526 14.526 11.475 14.8137C11.219 14.9403 11.0036 15.1361 10.8533 15.3789C10.7031 15.6218 10.6239 15.9019 10.625 16.1875C10.625 16.8694 11.0825 17.4762 11.7387 17.6644L13.8293 18.2619C14.8037 18.5426 15.6901 19.0678 16.4043 19.7875C16.5564 19.9401 16.6764 20.1217 16.7571 20.3215C16.8378 20.5213 16.8777 20.7352 16.8743 20.9506C16.8751 21.1615 16.8339 21.3704 16.7532 21.5653C16.6726 21.7601 16.554 21.937 16.4043 22.0856L14.5581 23.9319C14.5 23.9899 14.4539 24.0587 14.4225 24.1346C14.391 24.2104 14.3748 24.2917 14.3748 24.3738C14.3748 24.4558 14.391 24.5371 14.4225 24.6129C14.4539 24.6888 14.5 24.7576 14.5581 24.8156L14.7412 25L11.875 27.8662L11.6918 27.6831C11.5842 27.5752 11.4409 27.5104 11.2887 27.5009C11.1366 27.4915 10.9863 27.5381 10.8662 27.6319L6.24997 31.2219V18.0581L20 5.83625L33.75 18.0581V38.125ZM36.85 19.1413L20.415 4.53312C20.301 4.43079 20.1532 4.37418 20 4.37418C19.8468 4.37418 19.699 4.43079 19.585 4.53312L3.14997 19.1413L2.15747 18.1488L20.0006 2.09125L37.8425 18.1488L36.85 19.1413Z" fill="black"/>
</svg>
