<svg width="40" height="40" viewBox="0 0 40 40" fill="none" xmlns="http://www.w3.org/2000/svg">
<path d="M0.585938 35.5503V38.2422C0.585938 38.8894 1.11062 39.414 1.75781 39.414H38.2422C38.8894 39.414 39.4141 38.8894 39.4141 38.2422V24.812C39.4141 24.1648 38.8894 23.6401 38.2422 23.6401H34.5605C33.0504 23.6401 31.8262 24.8644 31.8262 26.3745V30.6128C31.8262 32.1229 30.602 33.3472 29.0918 33.3472H17.5733C16.0631 33.3472 14.8389 32.1229 14.8389 30.6128V26.3745C14.8389 24.8644 13.6147 23.6401 12.1045 23.6401H1.75781C1.11062 23.6401 0.585938 24.1648 0.585938 24.812V32.816" stroke="black" stroke-width="1.5" stroke-miterlimit="10" stroke-linecap="round" stroke-linejoin="round"/>
<path d="M4.22612 30.9204C4.89624 30.9204 5.43948 30.3771 5.43948 29.707C5.43948 29.0369 4.89624 28.4937 4.22612 28.4937C3.556 28.4937 3.01276 29.0369 3.01276 29.707C3.01276 30.3771 3.556 30.9204 4.22612 30.9204Z" stroke="black" stroke-width="1.5" stroke-miterlimit="10" stroke-linecap="round" stroke-linejoin="round"/>
<path d="M11.5063 34.5605C12.1764 34.5605 12.7197 34.0173 12.7197 33.3471C12.7197 32.677 12.1764 32.1338 11.5063 32.1338C10.8362 32.1338 10.293 32.677 10.293 33.3471C10.293 34.0173 10.8362 34.5605 11.5063 34.5605Z" stroke="black" stroke-width="1.5" stroke-miterlimit="10" stroke-linecap="round" stroke-linejoin="round"/>
<path d="M35.7739 35.7739C36.444 35.7739 36.9873 35.2306 36.9873 34.5605C36.9873 33.8904 36.444 33.3472 35.7739 33.3472C35.1038 33.3472 34.5605 33.8904 34.5605 34.5605C34.5605 35.2306 35.1038 35.7739 35.7739 35.7739Z" stroke="black" stroke-width="1.5" stroke-miterlimit="10" stroke-linecap="round" stroke-linejoin="round"/>
<path d="M10.9112 9.34937L0.585938 3.38773M7.2132 4.41227L0.585938 0.585938V10.394L7.87758 14.6041M12.1245 7.24781L9.6482 5.81813M20.3423 21.697C21.3851 23.2027 22.0604 24.9319 22.3141 26.7459C22.3772 27.1976 21.9187 27.5459 21.5005 27.3636C20.999 27.1448 20.5781 26.8894 19.5953 26.8894C17.8766 26.8894 17.8766 27.6706 16.157 27.6706C15.557 27.6706 15.1664 27.5753 14.8391 27.4519M10.5861 14.7666L16.5672 18.2197C17.2538 18.616 17.8985 19.081 18.4913 19.6075M8.32203 16.2612L7.27125 15.6545L12.7315 6.19711L13.8183 6.82453C14.3787 7.14812 14.5709 7.86484 14.2472 8.42531L9.97961 15.817C9.64445 16.3974 8.90234 16.5963 8.32203 16.2612Z" stroke="black" stroke-width="1.5" stroke-miterlimit="10" stroke-linecap="round" stroke-linejoin="round"/>
<path d="M31.8266 27.1916C31.3195 27.4111 30.9 27.6705 29.9086 27.6705C28.4916 27.6705 28.2428 27.1395 27.236 26.9531C27.0871 26.9259 26.9509 26.8513 26.8478 26.7404C26.7447 26.6295 26.6802 26.4882 26.664 26.3377C26.6631 26.3299 26.6622 26.322 26.6612 26.3142C26.545 25.427 25.6066 24.7464 25.3809 23.9538C25.1373 23.0986 25.5652 22.0251 25.2158 21.2727C24.8439 20.4718 23.7399 20.1093 23.2745 19.4161C22.7846 18.6866 22.8643 17.534 22.3018 16.9132C21.7116 16.2618 20.5463 16.2263 19.9118 15.6825C19.2392 15.106 19.028 13.9686 18.3478 13.4987C17.6045 12.9852 16.4517 13.1903 15.7541 12.7857C14.9354 12.3109 14.5458 11.221 13.875 10.8673C13.5951 10.7196 13.2988 10.6304 13.0081 10.5713M21.5007 27.3636C21.8762 27.5273 22.297 27.6705 23.0328 27.6705C23.2866 27.6705 23.5029 27.6535 23.6927 27.6244" stroke="black" stroke-width="1.5" stroke-miterlimit="10" stroke-linecap="round" stroke-linejoin="round"/>
</svg>
