<svg width="32" height="38" viewBox="0 0 32 38" fill="none" xmlns="http://www.w3.org/2000/svg">
<path d="M28.5467 12.8335C29.8508 12.9802 30.7992 14.001 30.8983 15.3093C31.0117 16.806 31.0784 18.8452 30.8317 20.6143C30.7503 21.1961 30.464 21.7298 30.0242 22.1193C28.9992 23.0302 26.7484 24.8002 23.1592 26.4352C23.0598 27.2926 22.9536 28.1493 22.8409 29.0052C22.7952 29.3627 22.6292 29.694 22.3702 29.9446C22.1112 30.1953 21.7747 30.3503 21.4159 30.3843C20.1442 30.506 18.0725 30.6668 16 30.6668C13.9275 30.6668 11.8559 30.506 10.5842 30.3835C10.2255 30.3495 9.88904 30.1946 9.63007 29.9441C9.37111 29.6936 9.20505 29.3625 9.15918 29.0052C9.07585 28.3829 8.96974 27.5263 8.84085 26.4352C5.25168 24.8002 3.00002 23.0302 1.97585 22.1193C1.53636 21.7297 1.25032 21.196 1.16918 20.6143C0.921685 18.8452 0.988351 16.806 1.10168 15.3093C1.20085 14.001 2.14918 12.9802 3.45335 12.8335C5.51835 12.6002 9.34419 12.3335 16 12.3335C22.6559 12.3335 26.4817 12.6018 28.5467 12.8335Z" stroke="#242424" stroke-width="2" stroke-linecap="round" stroke-linejoin="round"/>
<path d="M6.84004 12.5574C6.8356 11.9747 6.83337 11.3444 6.83337 10.6666C6.83337 7.26412 6.89254 5.10495 6.95337 3.78495C7.00837 2.58912 7.67337 1.56995 8.86921 1.51078C9.17845 1.4951 9.48829 1.4951 9.79754 1.51078C10.9942 1.56912 11.6584 2.58912 11.7134 3.78578C11.7742 5.10412 11.8334 7.26328 11.8334 10.6666C11.8334 11.2738 11.8317 11.8424 11.8284 12.3724M20.1717 12.3724C20.1684 11.8424 20.1667 11.2738 20.1667 10.6666C20.1667 7.26412 20.2259 5.10495 20.2867 3.78495C20.3417 2.58912 21.0067 1.56995 22.2025 1.51078C22.5118 1.4951 22.8216 1.4951 23.1309 1.51078C24.3267 1.56912 24.9917 2.58912 25.0467 3.78578C25.1075 5.10412 25.1667 7.26328 25.1667 10.6666C25.1667 11.3444 25.1645 11.9747 25.16 12.5574M12.9792 30.5708C13.14 32.5466 13.3234 34.3599 13.4284 35.3541C13.4817 35.8591 13.7825 36.2866 14.2817 36.3749C14.6675 36.4433 15.2217 36.4999 15.9992 36.4999C16.7767 36.4999 17.3317 36.4433 17.7159 36.3749C18.2159 36.2866 18.5167 35.8583 18.57 35.3541C18.675 34.3599 18.8584 32.5466 19.02 30.5708" stroke="#242424" stroke-width="2" stroke-linecap="round" stroke-linejoin="round"/>
</svg>
