<svg width="40" height="40" viewBox="0 0 40 40" fill="none" xmlns="http://www.w3.org/2000/svg">
<path d="M0 21.3333V22.6667C0.00132656 23.0985 0.142739 23.5183 0.402998 23.863C0.663257 24.2076 1.02831 24.4585 1.44333 24.578L4.228 37.3713C4.3888 38.1148 4.79901 38.7809 5.39055 39.259C5.98209 39.7372 6.71938 39.9986 7.48 40H32.52C33.28 39.9987 34.0166 39.7377 34.608 39.2604C35.1993 38.783 35.6098 38.1179 35.7713 37.3753L38.5567 24.5753C38.9713 24.456 39.336 24.2055 39.5962 23.8614C39.8564 23.5173 39.9981 23.0981 40 22.6667V21.3333C40 20.8029 39.7893 20.2942 39.4142 19.9191C39.0391 19.5441 38.5304 19.3333 38 19.3333H36.9213C36.3726 17.425 35.6166 15.5824 34.6667 13.8387V12C34.665 11.5878 34.5359 11.1863 34.2973 10.8502C34.0586 10.5142 33.7219 10.2601 33.3333 10.1227V6.93334L35.228 4.95334L35.806 5.53134C36.1861 5.89459 36.6916 6.09731 37.2173 6.09731C37.7431 6.09731 38.2486 5.89459 38.6287 5.53134L39.4153 4.74467C39.7887 4.36984 39.9982 3.86236 39.9982 3.33334C39.9982 2.80432 39.7887 2.29684 39.4153 1.922L38.082 0.588671C37.8969 0.401647 37.6764 0.253292 37.4334 0.152233C37.1905 0.0511743 36.9298 -0.000571361 36.6667 4.75827e-06H23.3333C22.9797 4.75827e-06 22.6406 0.140481 22.3905 0.390529C22.1405 0.640578 22 0.979716 22 1.33334V3.33334C22 3.68696 22.1405 4.0261 22.3905 4.27615C22.6406 4.5262 22.9797 4.66667 23.3333 4.66667H24V7L22.8 7.90067C22.3757 8.21893 22.0951 8.69273 22.0201 9.21783C21.9451 9.74293 22.0817 10.2763 22.4 10.7007C22.7183 11.125 23.1921 11.4056 23.7172 11.4806C24.2423 11.5556 24.7757 11.4189 25.2 11.1007L27.2033 9.6C27.4501 9.41244 27.6504 9.17053 27.7885 8.89305C27.9267 8.61557 27.9991 8.30998 28 8V5.11134L29.3333 6.88867V10.1227C28.9447 10.2601 28.6081 10.5142 28.3694 10.8502C28.1307 11.1863 28.0017 11.5878 28 12V13.892L27.46 15.5173C26.9735 16.9758 26.1275 18.2881 25 19.3333H22.6667V15.3333C22.6678 14.5447 22.5131 13.7636 22.2117 13.0349C21.9102 12.3061 21.4679 11.6441 20.91 11.0867C20.6213 10.8009 20.3051 10.5443 19.966 10.3207C19.9848 10.2662 19.9962 10.2095 20 10.152V4.44467C19.9997 4.24967 19.9482 4.05818 19.8506 3.88935C19.753 3.72053 19.6128 3.58029 19.444 3.48267C19.2773 3.38493 19.0876 3.3334 18.8943 3.3334C18.7011 3.3334 18.5114 3.38493 18.3447 3.48267C17.8151 3.71126 17.2444 3.82918 16.6677 3.82918C16.0909 3.82918 15.5202 3.71126 14.9907 3.48267C14.6507 3.28267 14.2293 3.28267 13.8893 3.48267C13.7205 3.58029 13.5803 3.72053 13.4827 3.88935C13.3852 4.05818 13.3336 4.24967 13.3333 4.44467V10.152C13.3367 10.212 13.3487 10.2713 13.3687 10.328C12.9941 10.5761 12.6485 10.8653 12.338 11.19C12.3053 11.156 12.2773 11.1233 12.2433 11.0867C11.9547 10.8009 11.6385 10.5443 11.2993 10.3207C11.3181 10.2662 11.3295 10.2095 11.3333 10.152V5.33334C11.3333 4.44928 10.9821 3.60144 10.357 2.97632C9.7319 2.35119 8.88406 2 8 2C7.11595 2 6.2681 2.35119 5.64298 2.97632C5.01786 3.60144 4.66667 4.44928 4.66667 5.33334V10.152C4.67 10.212 4.682 10.2707 4.702 10.3267C3.87222 10.8722 3.19092 11.6152 2.7193 12.4891C2.24768 13.363 2.00052 14.3403 2 15.3333V19.3333C1.46957 19.3333 0.960859 19.5441 0.585786 19.9191C0.210714 20.2942 0 20.8029 0 21.3333ZM1.33333 21.3333C1.33333 21.1565 1.40357 20.987 1.5286 20.8619C1.65362 20.7369 1.82319 20.6667 2 20.6667H4.66667V23.3333H2C1.82319 23.3333 1.65362 23.2631 1.5286 23.1381C1.40357 23.0131 1.33333 22.8435 1.33333 22.6667V21.3333ZM11.3333 16C11.5101 16 11.6797 16.0702 11.8047 16.1953C11.9298 16.3203 12 16.4899 12 16.6667V27.3333C12 27.5102 11.9298 27.6797 11.8047 27.8047C11.6797 27.9298 11.5101 28 11.3333 28H6.66667C6.48986 28 6.32029 27.9298 6.19526 27.8047C6.07024 27.6797 6 27.5102 6 27.3333V16.6667C6 16.4899 6.07024 16.3203 6.19526 16.1953C6.32029 16.0702 6.48986 16 6.66667 16H11.3333ZM10.8793 35.2447C10.9022 35.4169 10.8569 35.5912 10.7532 35.7305C10.6495 35.8698 10.4955 35.9632 10.324 35.9907C10.1479 36.0131 9.97003 35.9665 9.82759 35.8606C9.68515 35.7547 9.58925 35.5977 9.56 35.4227L8.724 29.3333H10.0667L10.8793 35.2447ZM34.4667 37.0953C34.3699 37.5399 34.1241 37.9381 33.7701 38.2238C33.416 38.5096 32.975 38.6658 32.52 38.6667H7.48C7.02466 38.6649 6.58356 38.5078 6.2296 38.2214C5.87564 37.9349 5.63001 37.5363 5.53333 37.0913L2.82733 24.6667H4.66667V27.3333C4.66667 27.8638 4.87738 28.3725 5.25245 28.7476C5.62753 29.1226 6.13623 29.3333 6.66667 29.3333H7.37933L8.23933 35.606C8.30758 36.0835 8.54512 36.5207 8.90868 36.8377C9.27224 37.1548 9.73762 37.3307 10.22 37.3333C10.3093 37.332 10.398 37.3253 10.4867 37.314C10.7472 37.2792 10.9984 37.1934 11.2257 37.0613C11.4529 36.9292 11.6519 36.7535 11.8111 36.5443C11.9703 36.3351 12.0866 36.0966 12.1533 35.8423C12.2201 35.588 12.2359 35.3231 12.2 35.0627L11.41 29.3253C11.9257 29.3056 12.4137 29.0872 12.7721 28.716C13.1306 28.3448 13.3316 27.8494 13.3333 27.3333V24.6667H37.1727L34.4667 37.0953ZM38.6667 22.6667C38.6667 22.8435 38.5964 23.0131 38.4714 23.1381C38.3464 23.2631 38.1768 23.3333 38 23.3333H13.3333V20.6667H38C38.1768 20.6667 38.3464 20.7369 38.4714 20.8619C38.5964 20.987 38.6667 21.1565 38.6667 21.3333V22.6667ZM30.6667 7.33334H32V10H30.6667V7.33334ZM23.3333 1.33334H25.3333V3.33334H23.3333V1.33334ZM26.4 8.53334L24.4 10.0333C24.33 10.0859 24.2503 10.1241 24.1655 10.1458C24.0806 10.1675 23.9924 10.1724 23.9057 10.16C23.7307 10.135 23.5728 10.0415 23.4667 9.90001C23.3606 9.75856 23.315 9.58076 23.34 9.40572C23.365 9.23069 23.4586 9.07276 23.6 8.96667L25.0667 7.86667C25.1495 7.80457 25.2167 7.72405 25.263 7.63148C25.3092 7.53891 25.3333 7.43683 25.3333 7.33334V4.66667H26.6667V8C26.6653 8.20934 26.5667 8.40667 26.4 8.53334ZM28 3.33334H26.6667V1.33334H36.6667C36.844 1.33334 37.0133 1.40334 37.1387 1.52867L38.472 2.862C38.5954 2.9868 38.6645 3.1552 38.6645 3.33067C38.6645 3.50615 38.5954 3.67454 38.472 3.79934L37.6853 4.58534C37.5592 4.70604 37.3913 4.7734 37.2167 4.7734C37.0421 4.7734 36.8742 4.70604 36.748 4.58534L35.688 3.52534C35.5626 3.40169 35.3934 3.33267 35.2173 3.33334H35.21C35.1213 3.3344 35.0336 3.35316 34.9522 3.38854C34.8708 3.42391 34.7973 3.47518 34.736 3.53934L32.3813 6H30.3333L28.5333 3.6C28.4712 3.51721 28.3907 3.45001 28.2981 3.40372C28.2056 3.35743 28.1035 3.33334 28 3.33334ZM29.3333 12C29.3333 11.8232 29.4036 11.6536 29.5286 11.5286C29.6536 11.4036 29.8232 11.3333 30 11.3333H32.6667C32.8435 11.3333 33.0131 11.4036 33.1381 11.5286C33.2631 11.6536 33.3333 11.8232 33.3333 12V13.3333H29.3333V12ZM28.726 15.9367L29.148 14.6667H33.5933C34.3908 16.1551 35.0406 17.7182 35.5333 19.3333H26.8373C27.6734 18.329 28.314 17.1769 28.726 15.9367ZM14.6667 4.80667C15.9552 5.29536 17.3781 5.29536 18.6667 4.80667V9.682C17.374 9.21624 15.9593 9.21624 14.6667 9.682V4.80667ZM16.6667 10.6667C17.2798 10.6657 17.887 10.7858 18.4537 11.0199C19.0203 11.2541 19.5351 11.5978 19.9687 12.0314C20.4022 12.4649 20.7459 12.9797 20.9801 13.5463C21.2143 14.113 21.3343 14.7202 21.3333 15.3333V19.3333H20V16C20 15.8232 19.9298 15.6536 19.8047 15.5286C19.6797 15.4036 19.5101 15.3333 19.3333 15.3333C19.1565 15.3333 18.987 15.4036 18.8619 15.5286C18.7369 15.6536 18.6667 15.8232 18.6667 16V19.3333H13.3333V16.6667C13.3326 16.2612 13.2086 15.8656 12.9778 15.5323C12.7471 15.1989 12.4205 14.9435 12.0413 14.8C12.127 14.0116 12.4142 13.2586 12.8753 12.6133C13.308 12.0119 13.8774 11.5217 14.5365 11.1833C15.1956 10.8449 15.9257 10.6678 16.6667 10.6667ZM8 3.33334C8.53043 3.33334 9.03914 3.54405 9.41421 3.91912C9.78929 4.2942 10 4.80291 10 5.33334V6H6V5.33334C6 4.80291 6.21071 4.2942 6.58579 3.91912C6.96086 3.54405 7.46957 3.33334 8 3.33334ZM6 7.33334H10V9.68134C8.70726 9.21602 7.29274 9.21602 6 9.68134V7.33334ZM3.33333 15.3333C3.33247 14.4098 3.60566 13.5068 4.11829 12.7386C4.63093 11.9704 5.35997 11.3716 6.21312 11.018C7.06627 10.6644 8.00515 10.5718 8.91092 10.7521C9.81669 10.9324 10.6486 11.3773 11.3013 12.0307C11.382 12.1113 11.4553 12.1933 11.526 12.2753C11.0883 13.0053 10.8127 13.8208 10.718 14.6667H6.66667C6.13623 14.6667 5.62753 14.8774 5.25245 15.2525C4.87738 15.6275 4.66667 16.1362 4.66667 16.6667V19.3333H3.33333V15.3333Z" fill="black"/>
<path d="M31.0604 26.0185C30.8001 25.9826 30.5353 25.9983 30.2811 26.0648C30.0269 26.1313 29.7882 26.2472 29.5789 26.406C29.3695 26.5647 29.1934 26.7632 29.0608 26.99C28.9281 27.2168 28.8414 27.4675 28.8057 27.7278L27.799 35.0611C27.7607 35.3225 27.7746 35.5889 27.8398 35.8449C27.905 36.1009 28.0203 36.3415 28.179 36.5527C28.3377 36.7639 28.5366 36.9416 28.7644 37.0754C28.9921 37.2093 29.2442 37.2967 29.5059 37.3327C29.7676 37.3686 30.0339 37.3523 30.2893 37.2848C30.5447 37.2172 30.7841 37.0998 30.9939 36.9391C31.2036 36.7785 31.3795 36.5779 31.5113 36.349C31.6431 36.12 31.7282 35.8672 31.7617 35.6052L32.7677 28.2718C32.8399 27.7466 32.7006 27.2143 32.3804 26.7918C32.0603 26.3693 31.5855 26.0911 31.0604 26.0185ZM30.441 35.4238C30.417 35.599 30.3243 35.7575 30.1834 35.8644C30.0425 35.9713 29.8649 36.0179 29.6897 35.9938C29.5145 35.9698 29.356 35.8771 29.2491 35.7362C29.1422 35.5953 29.0957 35.4177 29.1197 35.2425L30.1257 27.9091C30.1377 27.8222 30.1666 27.7386 30.211 27.6629C30.2554 27.5872 30.3142 27.521 30.3842 27.4681C30.4542 27.4152 30.5339 27.3767 30.6188 27.3547C30.7038 27.3326 30.7922 27.3276 30.879 27.3398C30.9659 27.3516 31.0495 27.3804 31.1252 27.4246C31.2009 27.4687 31.2671 27.5274 31.3201 27.5972C31.3731 27.667 31.4119 27.7465 31.4341 27.8313C31.4563 27.916 31.4616 28.0043 31.4497 28.0912L30.441 35.4238ZM17.5277 26.5145C17.3349 26.3389 17.1093 26.2031 16.864 26.1147C16.6186 26.0264 16.3582 25.9874 16.0977 25.9998C15.8353 26.0124 15.5779 26.0765 15.3402 26.1886C15.1026 26.3007 14.8893 26.4585 14.7127 26.6531C14.5361 26.8476 14.3995 27.075 14.3108 27.3223C14.2221 27.5697 14.183 27.832 14.1957 28.0945L14.549 35.4278C14.5739 35.9413 14.7955 36.4255 15.1679 36.7799C15.5404 37.1344 16.0349 37.3318 16.549 37.3312H16.647C16.9094 37.3185 17.1668 37.2543 17.4043 37.1422C17.6419 37.03 17.8551 36.8722 18.0316 36.6777C18.2082 36.4832 18.3447 36.2558 18.4334 36.0085C18.522 35.7612 18.5611 35.4989 18.5484 35.2365L18.195 27.9031C18.1684 27.3698 17.9284 26.8685 17.5277 26.5145ZM16.5824 35.9998L16.5457 36.6665V35.9998C16.3743 36 16.2094 35.9342 16.0853 35.816C15.9611 35.6978 15.8873 35.5364 15.879 35.3652L15.5257 28.0318C15.5214 27.9437 15.5347 27.8556 15.5646 27.7727C15.5946 27.6897 15.6408 27.6135 15.7005 27.5485C15.7601 27.4836 15.8321 27.4311 15.9122 27.3941C15.9923 27.3571 16.0789 27.3364 16.167 27.3332H16.2004C16.3617 27.3351 16.5167 27.3963 16.6357 27.5051C16.7018 27.5636 16.7556 27.6346 16.7941 27.714C16.8325 27.7934 16.8549 27.8797 16.8597 27.9678L17.213 35.3012C17.2218 35.4774 17.1603 35.6498 17.0421 35.7808C16.9239 35.9117 16.7586 35.9905 16.5824 35.9998ZM23.903 25.9998C23.3747 25.9801 22.8597 26.168 22.4683 26.5234C22.0769 26.8788 21.8402 27.3734 21.809 27.9012L21.4557 35.2345C21.4424 35.4974 21.4812 35.7604 21.5698 36.0083C21.6584 36.2562 21.795 36.4842 21.9719 36.6792C22.1488 36.8742 22.3625 37.0323 22.6006 37.1445C22.8388 37.2567 23.0967 37.3208 23.3597 37.3332H23.455C23.9686 37.3329 24.4623 37.1351 24.834 36.7808C25.2057 36.4265 25.4269 35.9427 25.4517 35.4298L25.805 28.0965C25.8181 27.8339 25.7792 27.5713 25.6906 27.3237C25.602 27.0762 25.4655 26.8485 25.2888 26.6538C25.1121 26.459 24.8988 26.301 24.661 26.1888C24.4233 26.0766 24.1657 26.0124 23.903 25.9998ZM24.1197 35.3631C24.1115 35.5344 24.0376 35.6958 23.9135 35.814C23.7893 35.9322 23.6244 35.998 23.453 35.9978V36.6645L23.419 35.9978C23.2425 35.9892 23.0766 35.9108 22.9579 35.7799C22.8391 35.649 22.7772 35.4763 22.7857 35.2998L23.139 27.9665C23.1456 27.7947 23.219 27.6323 23.3435 27.5138C23.468 27.3952 23.6338 27.33 23.8057 27.3318H23.8397C24.0162 27.3404 24.1821 27.4188 24.3009 27.5497C24.4196 27.6806 24.4816 27.8533 24.473 28.0298L24.1197 35.3631Z" fill="black"/>
<path d="M16.6667 7.99984C17.0349 7.99984 17.3333 7.70136 17.3333 7.33317C17.3333 6.96498 17.0349 6.6665 16.6667 6.6665C16.2985 6.6665 16 6.96498 16 7.33317C16 7.70136 16.2985 7.99984 16.6667 7.99984Z" fill="black"/>
</svg>
