<svg width="40" height="40" viewBox="0 0 40 40" fill="none" xmlns="http://www.w3.org/2000/svg">
<path d="M14.5519 25.0576C14.4504 24.8144 14.2791 24.6067 14.0596 24.4609C13.84 24.3151 13.5822 24.2377 13.3186 24.2384C13.0551 24.2392 12.7977 24.3181 12.579 24.4652C12.3603 24.6123 12.1902 24.8209 12.0901 25.0647L10.3627 29.3481L9.85431 30.5714C9.61752 31.1461 9.51778 31.7681 9.56297 32.3881C9.60816 33.0081 9.79706 33.609 10.1147 34.1433C10.4057 34.6434 10.8106 35.0677 11.2965 35.3818C11.7824 35.6958 12.3356 35.8908 12.911 35.9507C13.1841 35.9792 13.4594 35.9793 13.7325 35.951C14.3083 35.8913 14.8618 35.6965 15.348 35.3823C15.8342 35.0682 16.2393 34.6437 16.5304 34.1433C16.8481 33.609 17.037 33.0081 17.0822 32.3881C17.1274 31.7681 17.0276 31.1461 16.7908 30.5714L14.5519 25.0576ZM15.3855 33.4613C15.2 33.7826 14.9412 34.0555 14.6303 34.2578C14.3193 34.4602 13.965 34.5862 13.5961 34.6257C13.4138 34.6446 13.23 34.6446 13.0477 34.6257C12.679 34.586 12.3249 34.4599 12.0141 34.2576C11.7033 34.0552 11.4447 33.7824 11.2593 33.4613C11.0475 33.1056 10.9215 32.7055 10.8911 32.2926C10.8608 31.8797 10.9269 31.4655 11.0844 31.0826L13.3196 25.5629L15.0522 29.8596L15.5606 31.0826C15.7182 31.4654 15.7843 31.8797 15.7539 32.2926C15.7235 32.7055 15.5974 33.1056 15.3855 33.4613ZM3.99672 22.6494C3.82008 22.6495 3.65068 22.7197 3.5258 22.8446C3.40091 22.9695 3.33077 23.1389 3.33079 23.3156V23.9818C3.3327 24.1572 3.40372 24.3248 3.52842 24.4481C3.65312 24.5715 3.82144 24.6407 3.99684 24.6407C4.17224 24.6407 4.34056 24.5715 4.46526 24.4481C4.58996 24.3248 4.66098 24.1572 4.66289 23.9818V23.3156C4.66289 23.2281 4.64566 23.1415 4.61217 23.0606C4.57869 22.9798 4.52961 22.9064 4.46775 22.8445C4.40588 22.7826 4.33243 22.7336 4.2516 22.7001C4.17076 22.6666 4.08421 22.6494 3.99672 22.6494ZM3.99672 25.9802C3.82008 25.9802 3.65068 26.0504 3.5258 26.1754C3.40091 26.3003 3.33077 26.4697 3.33079 26.6464V35.3059C3.32983 35.394 3.34635 35.4814 3.37939 35.563C3.41243 35.6447 3.46134 35.719 3.52328 35.7816C3.58522 35.8442 3.65897 35.8939 3.74026 35.9279C3.82155 35.9618 3.90876 35.9793 3.99684 35.9793C4.08492 35.9793 4.17213 35.9618 4.25342 35.9279C4.33471 35.8939 4.40846 35.8442 4.4704 35.7816C4.53234 35.719 4.58125 35.6447 4.61429 35.563C4.64733 35.4814 4.66385 35.394 4.66289 35.3059V26.6464C4.66289 26.5589 4.64566 26.4722 4.61217 26.3914C4.57869 26.3106 4.52961 26.2371 4.46775 26.1753C4.40588 26.1134 4.33243 26.0643 4.2516 26.0309C4.17076 25.9974 4.08421 25.9802 3.99672 25.9802Z" fill="black"/>
<path d="M36.2439 21.6342C34.612 20.7947 33.2002 20.0504 32.689 18.4113L35.7265 15.3739C35.8502 15.2501 35.9483 15.1033 36.0153 14.9416C36.0823 14.78 36.1167 14.6067 36.1167 14.4317C36.1167 14.2568 36.0823 14.0835 36.0153 13.9219C35.9483 13.7602 35.8502 13.6134 35.7265 13.4896L31.4877 9.25024C31.3347 9.09727 31.1466 8.98391 30.9399 8.92001C30.7331 8.85611 30.5139 8.84358 30.3013 8.88351L24.4816 0.569647C24.37 0.410176 24.2249 0.277076 24.0564 0.179702C23.8878 0.0823279 23.7 0.0230431 23.5062 0.00601432C23.3123 -0.0108863 23.1171 0.0148564 22.9343 0.0814343C22.7515 0.148012 22.5854 0.253811 22.4479 0.391399L14.8864 7.95283C14.6823 8.15798 14.5504 8.42378 14.5102 8.71032C14.4701 8.99685 14.524 9.28867 14.6638 9.54198L15.6425 11.3041L13.8807 10.3247C13.6272 10.1853 13.3354 10.1317 13.0489 10.1718C12.7624 10.212 12.4966 10.3438 12.2913 10.5476L10.3822 12.457C10.2997 12.5416 10.2289 12.6371 10.1717 12.7406C7.27342 12.8997 0 13.5426 0 15.988V18.6526C0.0107438 18.8892 0.0765655 19.1201 0.192228 19.3268C0.307891 19.5335 0.470203 19.7104 0.666249 19.8433V36.7631C0.670217 36.8009 0.677677 36.8381 0.688867 36.8747L0.690454 36.8837C0.699422 36.9432 0.716406 37.0011 0.740929 37.0557C1.53979 39.3414 8.88146 39.9686 13.3224 39.9686C18.0234 39.9686 25.9789 39.267 25.9789 36.6379V25.1216L28.4022 22.6981C30.0409 23.2093 30.7855 24.6209 31.6251 26.253C32.0634 27.1944 32.6112 28.0808 33.257 28.894C33.547 29.2314 33.9041 29.5046 34.3056 29.6961C34.7071 29.8877 35.1442 29.9935 35.5889 30.0066C36.051 30.0231 36.5116 29.9443 36.9421 29.7752C37.3725 29.606 37.7636 29.3502 38.0909 29.0236L39.015 28.1C39.3416 27.7726 39.5973 27.3815 39.7664 26.9511C39.9354 26.5207 40.0142 26.0601 39.9978 25.598C39.9847 25.1534 39.879 24.7164 39.6875 24.3149C39.496 23.9134 39.2228 23.5563 38.8855 23.2664C38.0722 22.6204 37.1855 22.0726 36.2439 21.6342ZM34.785 14.4311L24.4222 24.7941L20.1832 20.5547L30.5459 10.1924L34.785 14.4311ZM1.72518 18.9619C1.57385 18.8872 1.44009 18.7812 1.33274 18.651L1.3321 18.6513V17.609C1.59501 17.7379 1.86565 17.8503 2.14247 17.9457L2.1716 17.9556L2.17382 17.9566C4.52835 18.8094 8.69083 19.3187 13.3224 19.3187C14.6464 19.3187 15.9699 19.2703 17.2645 19.1833L18.875 20.3108C18.8712 20.33 18.8722 20.3498 18.8694 20.3693C17.0264 20.5581 15.175 20.6521 13.3224 20.6508C8.15855 20.6508 3.39307 19.958 1.72518 18.9619ZM13.6572 16.6579L15.494 17.9435C14.7732 17.9708 14.0481 17.9863 13.3224 17.9863C10.5407 18.0105 7.76242 17.7875 5.02024 17.3201C7.76245 16.8529 10.5407 16.6301 13.3224 16.6542C13.4362 16.656 13.5462 16.657 13.6569 16.6579H13.6572ZM13.2334 11.4895L17.0335 13.6006C17.1601 13.671 17.3061 13.6983 17.4495 13.6782C17.593 13.6582 17.726 13.592 17.8284 13.4896C17.9308 13.3872 17.997 13.2542 18.017 13.1108C18.037 12.9673 18.0097 12.8213 17.9394 12.6947L15.8285 8.89462L18.7255 5.99757L22.9686 11.0895C23.0425 11.1823 23.1398 11.2537 23.2505 11.2964C23.3612 11.339 23.4813 11.3513 23.5983 11.3319C23.7153 11.3126 23.825 11.2624 23.9161 11.1865C24.0073 11.1106 24.0764 11.0117 24.1165 10.9001C24.1567 10.7885 24.1664 10.6682 24.1445 10.5516C24.1226 10.435 24.0699 10.3264 23.9919 10.237L19.6714 5.05173L23.39 1.33319L29.2082 9.64547L19.636 19.2177L11.324 13.3991L13.2334 11.4895ZM10.1782 14.077C10.2747 14.2404 10.4049 14.3814 10.5601 14.4906L11.777 15.3419C7.9061 15.4386 4.4951 15.8968 2.38556 16.6121C1.99242 16.4946 1.63184 16.2877 1.3321 16.0075V16.0041C1.53519 15.4734 4.32709 14.397 10.1782 14.0772V14.077ZM13.3224 38.6363C6.27091 38.6363 2.20945 37.3324 1.99835 36.6302V20.5544C4.2955 21.4352 8.53306 21.9829 13.3224 21.9829C15.3521 21.9858 17.3804 21.8759 19.398 21.6537L23.4801 25.7359C23.6035 25.8601 23.7503 25.9585 23.9121 26.0255C24.0738 26.0925 24.2472 26.1267 24.4222 26.1262C24.4976 26.1253 24.5726 26.1179 24.6468 26.1042V36.6287C24.4421 37.3306 20.3804 38.6364 13.3224 38.6364V38.6363ZM38.0729 27.1583L37.1491 28.0821C36.9511 28.2789 36.7149 28.433 36.455 28.535C36.1951 28.637 35.9171 28.6847 35.6381 28.6752C35.3767 28.6681 35.1196 28.6066 34.8833 28.4945C34.647 28.3825 34.4367 28.2224 34.2657 28.0245C33.69 27.2898 33.2014 26.4908 32.8096 25.6436C32.0383 24.1438 31.1805 22.4759 29.4414 21.6591L31.6495 19.4506C32.4664 21.19 34.134 22.0475 35.6341 22.8191C36.4813 23.2109 37.2803 23.6995 38.015 24.2752C38.2129 24.4462 38.373 24.6565 38.4851 24.8927C38.5972 25.129 38.6588 25.386 38.666 25.6474C38.6858 26.2116 38.4713 26.7585 38.0729 27.1583Z" fill="black"/>
<path d="M23.0093 19.6126L22.5383 20.0836C22.4536 20.1658 22.3922 20.2691 22.3605 20.3828C22.3288 20.4965 22.3279 20.6167 22.3579 20.7309C22.3879 20.845 22.4477 20.9492 22.5312 21.0327C22.6146 21.1162 22.7188 21.176 22.8329 21.206C22.9471 21.236 23.0672 21.2351 23.1809 21.2034C23.2946 21.1717 23.3979 21.1104 23.4801 21.0257L23.9514 20.5548C24.0737 20.4293 24.1416 20.2607 24.1405 20.0854C24.1394 19.9102 24.0694 19.7425 23.9455 19.6185C23.6876 19.3609 23.2703 19.3582 23.0093 19.6126ZM30.0744 12.5476L24.8935 17.7287C24.8087 17.8109 24.7474 17.9142 24.7157 18.028C24.684 18.1417 24.6831 18.2618 24.7131 18.376C24.7431 18.4902 24.8029 18.5944 24.8864 18.6779C24.9699 18.7614 25.0741 18.8212 25.1883 18.8512C25.3025 18.8812 25.4226 18.8803 25.5364 18.8486C25.6501 18.8169 25.7534 18.7556 25.8356 18.6709L31.0165 13.4893C31.1012 13.407 31.1625 13.3038 31.1942 13.1901C31.2259 13.0764 31.2269 12.9563 31.1969 12.8421C31.167 12.7279 31.1072 12.6237 31.0236 12.5402C30.9401 12.4567 30.8359 12.397 30.7216 12.3671C30.6074 12.3371 30.4873 12.338 30.3736 12.3697C30.2598 12.4014 30.1566 12.4628 30.0744 12.5476H30.0744Z" fill="black"/>
</svg>
