<svg width="40" height="40" viewBox="0 0 40 40" fill="none" xmlns="http://www.w3.org/2000/svg">
<path d="M39.375 0H0.625C0.45924 0 0.300269 0.065848 0.183058 0.183058C0.065848 0.300269 0 0.45924 0 0.625L0 39.375C0 39.5408 0.065848 39.6997 0.183058 39.8169C0.300269 39.9342 0.45924 40 0.625 40H39.375C39.5408 40 39.6997 39.9342 39.8169 39.8169C39.9342 39.6997 40 39.5408 40 39.375V0.625C40 0.45924 39.9342 0.300269 39.8169 0.183058C39.6997 0.065848 39.5408 0 39.375 0ZM38.75 38.75H1.25V1.25H38.75V38.75Z" fill="black"/>
<path d="M3.75 19.375H18.75C18.9158 19.375 19.0747 19.3092 19.1919 19.1919C19.3092 19.0747 19.375 18.9158 19.375 18.75V3.75C19.375 3.58424 19.3092 3.42527 19.1919 3.30806C19.0747 3.19085 18.9158 3.125 18.75 3.125H3.75C3.58424 3.125 3.42527 3.19085 3.30806 3.30806C3.19085 3.42527 3.125 3.58424 3.125 3.75V18.75C3.125 18.9158 3.19085 19.0747 3.30806 19.1919C3.42527 19.3092 3.58424 19.375 3.75 19.375ZM9.00875 18.125L14.8169 12.3169L13.9331 11.4331L7.24125 18.125H5.25875L18.125 5.25875V18.125H9.00875ZM13.4913 4.375L7.05813 10.8081L7.94187 11.6919L15.2587 4.375H17.2413L4.375 17.2413V4.375H13.4913ZM21.25 19.375H36.25C36.4158 19.375 36.5747 19.3092 36.6919 19.1919C36.8092 19.0747 36.875 18.9158 36.875 18.75V3.75C36.875 3.58424 36.8092 3.42527 36.6919 3.30806C36.5747 3.19085 36.4158 3.125 36.25 3.125H21.25C21.0842 3.125 20.9253 3.19085 20.8081 3.30806C20.6908 3.42527 20.625 3.58424 20.625 3.75V18.75C20.625 18.9158 20.6908 19.0747 20.8081 19.1919C20.9253 19.3092 21.0842 19.375 21.25 19.375ZM21.875 4.375H35.625V18.125H21.875V4.375ZM3.75 36.875H18.75C18.9158 36.875 19.0747 36.8092 19.1919 36.6919C19.3092 36.5747 19.375 36.4158 19.375 36.25V21.25C19.375 21.0842 19.3092 20.9253 19.1919 20.8081C19.0747 20.6908 18.9158 20.625 18.75 20.625H3.75C3.58424 20.625 3.42527 20.6908 3.30806 20.8081C3.19085 20.9253 3.125 21.0842 3.125 21.25V36.25C3.125 36.4158 3.19085 36.5747 3.30806 36.6919C3.42527 36.8092 3.58424 36.875 3.75 36.875ZM4.375 21.875H18.125V35.625H4.375V21.875ZM21.25 36.875H36.25C36.4158 36.875 36.5747 36.8092 36.6919 36.6919C36.8092 36.5747 36.875 36.4158 36.875 36.25V21.25C36.875 21.0842 36.8092 20.9253 36.6919 20.8081C36.5747 20.6908 36.4158 20.625 36.25 20.625H21.25C21.0842 20.625 20.9253 20.6908 20.8081 20.8081C20.6908 20.9253 20.625 21.0842 20.625 21.25V36.25C20.625 36.4158 20.6908 36.5747 20.8081 36.6919C20.9253 36.8092 21.0842 36.875 21.25 36.875ZM26.5088 35.625L32.3169 29.8169L31.4331 28.9331L24.7412 35.625H22.7588L35.625 22.7588V35.625H26.5088ZM30.9912 21.875L24.5581 28.3081L25.4419 29.1919L32.7588 21.875H34.7412L21.875 34.7412V21.875H30.9912Z" fill="black"/>
</svg>
