<svg width="40" height="40" viewBox="0 0 40 40" fill="none" xmlns="http://www.w3.org/2000/svg">
<path d="M20 37.5H2.5V4.16667C2.5 4.16667 5.83333 2.5 11.25 2.5C16.6667 2.5 20 4.16667 20 4.16667V37.5ZM20 37.5V20.8333H20.4167C20.4167 20.8333 23.3333 22.5 28.75 22.5C34.1667 22.5 37.0833 20.8333 37.0833 20.8333H37.5V37.5H20ZM2.5 15.8333C2.5 15.8333 5.83333 14.1667 11.25 14.1667C16.6667 14.1667 20 15.8333 20 15.8333M6.66667 7.5V10.8333M6.66667 18.3333V21.6667M30.8333 22.415V16.25C30.8333 15.6975 30.6138 15.1676 30.2231 14.7769C29.8324 14.3862 29.3025 14.1667 28.75 14.1667C28.1975 14.1667 27.6676 14.3862 27.2769 14.7769C26.8862 15.1676 26.6667 15.6975 26.6667 16.25V16.6667" stroke="#242424" stroke-width="1.66667"/>
</svg>
