<svg width="20" height="13" viewBox="0 0 20 13" fill="none" xmlns="http://www.w3.org/2000/svg">
<path d="M19.1695 7.29063L16.0445 1.04063C16.0056 0.962674 15.9457 0.897112 15.8716 0.851296C15.7975 0.80548 15.7121 0.781224 15.625 0.78125H4.375C4.28787 0.781224 4.20247 0.80548 4.12836 0.851296C4.05426 0.897112 3.99438 0.962674 3.95547 1.04063L0.830469 7.29063C0.798322 7.35575 0.781487 7.42737 0.78125 7.5V11.875C0.78125 12.1651 0.896484 12.4433 1.1016 12.6484C1.30672 12.8535 1.58492 12.9688 1.875 12.9688H18.125C18.4151 12.9688 18.6933 12.8535 18.8984 12.6484C19.1035 12.4433 19.2188 12.1651 19.2188 11.875V7.5C19.2185 7.42737 19.2017 7.35575 19.1695 7.29063ZM7.78984 7.03125L6.69609 4.84375H9.39766L10.4914 7.03125H7.78984ZM7.83516 1.71875L8.92891 3.90625H6.22734L5.13359 1.71875H7.83516ZM11.5852 1.71875L12.6789 3.90625H9.97734L8.88359 1.71875H11.5852ZM11.5398 7.03125L10.4461 4.84375H13.1477L14.2414 7.03125H11.5398ZM15.2898 7.03125L14.1961 4.84375H16.8977L17.9914 7.03125H15.2898ZM16.4289 3.90625H13.7273L12.6336 1.71875H15.3352L16.4289 3.90625ZM1.71875 11.875V7.61094L4.375 2.29844L7.03125 7.61094V12.0312H1.875C1.83356 12.0312 1.79382 12.0148 1.76451 11.9855C1.73521 11.9562 1.71875 11.9164 1.71875 11.875ZM18.125 12.0312H7.96875V7.96875H18.2812V11.875C18.2812 11.9164 18.2648 11.9562 18.2355 11.9855C18.2062 12.0148 18.1664 12.0312 18.125 12.0312Z" fill="#242424"/>
</svg>
