<svg width="32" height="32" viewBox="0 0 32 32" fill="none" xmlns="http://www.w3.org/2000/svg">
<g clip-path="url(#clip0_2205_2624)">
<g clip-path="url(#clip1_2205_2624)">
<path d="M30 26.0013H28V12.0013C28 11.4709 27.7893 10.9622 27.4142 10.5871C27.0391 10.212 26.5304 10.0013 26 10.0013H18V4.0013C18.0002 3.63913 17.9021 3.28369 17.7161 2.97293C17.5301 2.66216 17.2633 2.40773 16.944 2.23679C16.6247 2.06585 16.265 1.98482 15.9032 2.00234C15.5415 2.01987 15.1913 2.1353 14.89 2.3363L4.89 9.0013C4.61567 9.18433 4.39086 9.43235 4.23558 9.72328C4.0803 10.0142 3.99937 10.339 4 10.6688V26.0013H2C1.73478 26.0013 1.48043 26.1067 1.29289 26.2942C1.10536 26.4817 1 26.7361 1 27.0013C1 27.2665 1.10536 27.5209 1.29289 27.7084C1.48043 27.8959 1.73478 28.0013 2 28.0013H30C30.2652 28.0013 30.5196 27.8959 30.7071 27.7084C30.8946 27.5209 31 27.2665 31 27.0013C31 26.7361 30.8946 26.4817 30.7071 26.2942C30.5196 26.1067 30.2652 26.0013 30 26.0013ZM26 12.0013V26.0013H18V12.0013H26ZM6 10.6688L16 4.0013V26.0013H6V10.6688ZM14 14.0013V16.0013C14 16.2665 13.8946 16.5209 13.7071 16.7084C13.5196 16.8959 13.2652 17.0013 13 17.0013C12.7348 17.0013 12.4804 16.8959 12.2929 16.7084C12.1054 16.5209 12 16.2665 12 16.0013V14.0013C12 13.7361 12.1054 13.4817 12.2929 13.2942C12.4804 13.1067 12.7348 13.0013 13 13.0013C13.2652 13.0013 13.5196 13.1067 13.7071 13.2942C13.8946 13.4817 14 13.7361 14 14.0013ZM10 14.0013V16.0013C10 16.2665 9.89464 16.5209 9.70711 16.7084C9.51957 16.8959 9.26522 17.0013 9 17.0013C8.73478 17.0013 8.48043 16.8959 8.29289 16.7084C8.10536 16.5209 8 16.2665 8 16.0013V14.0013C8 13.7361 8.10536 13.4817 8.29289 13.2942C8.48043 13.1067 8.73478 13.0013 9 13.0013C9.26522 13.0013 9.51957 13.1067 9.70711 13.2942C9.89464 13.4817 10 13.7361 10 14.0013ZM10 21.0013V23.0013C10 23.2665 9.89464 23.5209 9.70711 23.7084C9.51957 23.8959 9.26522 24.0013 9 24.0013C8.73478 24.0013 8.48043 23.8959 8.29289 23.7084C8.10536 23.5209 8 23.2665 8 23.0013V21.0013C8 20.7361 8.10536 20.4817 8.29289 20.2942C8.48043 20.1067 8.73478 20.0013 9 20.0013C9.26522 20.0013 9.51957 20.1067 9.70711 20.2942C9.89464 20.4817 10 20.7361 10 21.0013ZM14 21.0013V23.0013C14 23.2665 13.8946 23.5209 13.7071 23.7084C13.5196 23.8959 13.2652 24.0013 13 24.0013C12.7348 24.0013 12.4804 23.8959 12.2929 23.7084C12.1054 23.5209 12 23.2665 12 23.0013V21.0013C12 20.7361 12.1054 20.4817 12.2929 20.2942C12.4804 20.1067 12.7348 20.0013 13 20.0013C13.2652 20.0013 13.5196 20.1067 13.7071 20.2942C13.8946 20.4817 14 20.7361 14 21.0013Z" fill="black"/>
</g>
</g>
<defs>
<clipPath id="clip0_2205_2624">
<rect width="32" height="32" fill="white"/>
</clipPath>
<clipPath id="clip1_2205_2624">
<rect width="32" height="32" fill="white"/>
</clipPath>
</defs>
</svg>
