<svg width="56" height="56" viewBox="0 0 56 56" fill="none" xmlns="http://www.w3.org/2000/svg">
<rect x="0.5" y="0.5" width="55" height="55" rx="27.5" stroke="#242424"/>
<path d="M35.8902 24.748C35.1593 25.1358 34.5585 25.7299 34.1626 26.4563C33.7666 27.1828 33.593 28.0097 33.6632 28.834C33.7178 29.6646 34.0037 30.4633 34.4887 31.1398C34.9736 31.8163 35.6382 32.3436 36.4072 32.662C36.4109 32.6933 36.4109 32.7248 36.4072 32.756C35.8798 34.279 35.046 35.6777 33.9572 36.866C33.5328 37.3893 32.9504 37.7612 32.2972 37.926C31.8123 38.0102 31.314 37.9696 30.8492 37.808C30.3542 37.655 29.8712 37.455 29.3652 37.313C28.476 37.1022 27.5424 37.185 26.7042 37.549C26.2748 37.7057 25.8388 37.839 25.3962 37.949C25.1289 38.01 24.852 38.0153 24.5826 37.9647C24.3132 37.9141 24.0571 37.8087 23.8302 37.655C23.2926 37.3066 22.8153 36.8729 22.4172 36.371C21.004 34.6494 20.0807 32.5788 19.7442 30.377C19.438 28.887 19.5896 27.3393 20.1792 25.937C20.4971 25.1559 21.0052 24.4666 21.6573 23.9319C22.3095 23.3971 23.0849 23.0338 23.9132 22.875C24.6736 22.7305 25.4591 22.7958 26.1852 23.064L27.7402 23.594C28.0132 23.699 28.3152 23.699 28.5882 23.594C29.247 23.3408 29.9193 23.1245 30.6022 22.946C31.5161 22.6819 32.4874 22.6917 33.3957 22.9743C34.3041 23.257 35.1095 23.8 35.7122 24.536L35.8902 24.748Z" fill="#242424"/>
<path d="M32.1914 18C32.258 18.6147 32.1775 19.2365 31.9564 19.814C31.5489 20.8668 30.7925 21.7479 29.8134 22.31C29.3255 22.6004 28.7672 22.7512 28.1994 22.746C28.0464 22.746 28.0114 22.746 27.9994 22.546C27.9742 21.5645 28.2953 20.6055 28.9064 19.837C29.6472 18.8574 30.7419 18.2066 31.9564 18.024L32.1914 18Z" fill="#242424"/>
</svg>
