<svg width="40" height="40" viewBox="0 0 40 40" fill="none" xmlns="http://www.w3.org/2000/svg">
<path fill-rule="evenodd" clip-rule="evenodd" d="M34.9852 34.5401H4.9911C4.68647 34.5401 4.42871 34.2823 4.42871 33.9543V20.5741C4.42871 20.246 4.68647 19.9883 4.9911 19.9883H15.5359V12.9584C15.5359 12.6303 15.7937 12.3726 16.1217 12.3726H23.878C24.2061 12.3726 24.4639 12.6303 24.4639 12.9584V19.9883H34.9852C35.3133 19.9883 35.5711 20.246 35.5711 20.5741V33.9777C35.5476 34.2823 35.2899 34.5401 34.9852 34.5401ZM5.55349 33.3919H34.3994V21.113H23.878C23.55 21.113 23.2922 20.8553 23.2922 20.5272V13.5442H16.6607V20.5741C16.6607 20.8787 16.4029 21.1599 16.0749 21.1599H5.55349V33.3919Z" fill="black"/>
<path fill-rule="evenodd" clip-rule="evenodd" d="M39.4142 37.3989H34.9854C34.6573 37.3989 34.3995 37.1412 34.3995 36.8131V17.7153C34.3995 17.3872 34.6573 17.1294 34.9854 17.1294H39.4142C39.7422 17.1294 40 17.3872 40 17.7153V36.8365C39.9531 37.1412 39.6954 37.3989 39.4142 37.3989ZM35.5477 36.2507H38.8284V18.2542H35.5477V36.2507ZM4.99121 37.3989H0.585823C0.257762 37.3989 0 37.1412 0 36.8131V17.7153C0 17.3872 0.257762 17.1294 0.585823 17.1294H4.99121C5.31927 17.1294 5.57704 17.3872 5.57704 17.7153V36.8365C5.5536 37.1412 5.29584 37.3989 4.99121 37.3989ZM1.12478 36.2507H4.42882V18.2542H1.12478V36.2507ZM24.464 13.5442H15.536C14.5284 13.5442 13.7083 12.7241 13.7083 11.7164C13.7083 10.7323 14.5284 9.86523 15.536 9.86523H24.4405C25.4482 9.86523 26.2449 10.7323 26.2449 11.7164C26.2917 12.7241 25.4716 13.5442 24.464 13.5442ZM15.536 10.99C15.1377 10.99 14.8565 11.2946 14.8565 11.693C14.8565 12.0914 15.1611 12.3726 15.536 12.3726H24.4405C24.8155 12.3726 25.1201 12.0445 25.1201 11.693C25.1201 11.2946 24.792 10.99 24.4405 10.99H15.536ZM14.6924 26.1745C11.4118 26.1745 8.90451 25.5419 8.74048 25.495C8.43585 25.4481 8.24839 25.1201 8.31869 24.8154C8.38899 24.5342 8.71705 24.3233 8.99824 24.3936C9.06854 24.3936 14.5753 25.8231 19.8243 24.3936C25.331 22.8939 31.0018 24.3233 31.2595 24.3936C31.5407 24.4639 31.7516 24.792 31.6813 25.0732C31.611 25.3778 31.283 25.5653 31.0018 25.495C30.9315 25.495 25.3779 24.0656 20.1523 25.495C18.2542 26.034 16.3796 26.1745 14.6924 26.1745ZM14.6924 30.1113C11.4118 30.1113 8.90451 29.4552 8.74048 29.4317C8.43585 29.3614 8.24839 29.0334 8.31869 28.7522C8.38899 28.4475 8.71705 28.2601 8.99824 28.3304C9.06854 28.3304 14.5753 29.7598 19.8243 28.3304C25.331 26.8307 31.0018 28.2601 31.2595 28.3304C31.5407 28.4007 31.7516 28.7287 31.6813 29.0099C31.611 29.3146 31.283 29.502 31.0018 29.4317C30.9315 29.4317 25.3779 28.0023 20.1523 29.4317C18.2542 29.9238 16.3796 30.1113 14.6924 30.1113Z" fill="black"/>
<path fill-rule="evenodd" clip-rule="evenodd" d="M21.2067 10.9901H18.8165C18.4885 10.9901 18.2307 10.7323 18.2307 10.4042V8.01408C18.2307 7.70945 18.4885 7.42826 18.8165 7.42826C19.1446 7.42826 19.4023 7.70945 19.4023 8.01408V9.81841H20.6677V8.01408C20.6677 7.70945 20.9255 7.42826 21.2536 7.42826C21.5816 7.42826 21.8394 7.70945 21.8394 8.01408V10.4042C21.7691 10.7557 21.5113 10.9901 21.2067 10.9901ZM21.2067 6.06915C20.8786 6.06915 20.6209 5.81138 20.6209 5.48332V4.35854C20.6209 4.00705 20.3397 3.72585 19.9882 3.72585C19.6601 3.72585 19.3555 4.03048 19.3555 4.35854V5.53019C19.3555 5.85825 19.0977 6.11601 18.7697 6.11601C18.4416 6.11601 18.1838 5.85825 18.1838 5.53019V4.35854C18.1838 3.37436 18.9806 2.60107 19.9413 2.60107C20.9255 2.60107 21.7222 3.37436 21.7222 4.35854V5.53019C21.7691 5.81138 21.5113 6.06915 21.2067 6.06915Z" fill="black"/>
<path fill-rule="evenodd" clip-rule="evenodd" d="M26.9947 8.64674H13.0287C12.0211 8.64674 11.1775 7.80316 11.1775 6.79554C11.1775 5.78793 12.0211 4.96777 13.0287 4.96777H26.9947C28.0023 4.96777 28.8225 5.78793 28.8225 6.79554C28.8225 7.80316 28.0023 8.64674 26.9947 8.64674ZM13.0287 6.06912C12.6303 6.06912 12.3023 6.39718 12.3023 6.74868C12.3023 7.14704 12.6303 7.4751 13.0287 7.4751H26.9947C27.3931 7.4751 27.6743 7.14704 27.6743 6.74868C27.6743 6.37375 27.3931 6.06912 26.9947 6.06912H13.0287Z" fill="black"/>
</svg>
