<svg width="81" height="80" viewBox="0 0 81 80" fill="none" xmlns="http://www.w3.org/2000/svg">
<mask id="path-1-inside-1_2311_2056" fill="white">
<path d="M79.7468 40C80.1628 40 80.5007 40.3374 80.4929 40.7533C80.3131 50.3054 76.7191 59.4876 70.3479 66.6289C63.9767 73.7703 55.2624 78.3844 45.7926 79.6483C45.3803 79.7033 45.0066 79.4059 44.9594 78.9926C44.9121 78.5793 45.2091 78.2067 45.6214 78.1514C54.7236 76.9297 63.0989 72.4915 69.2239 65.6261C75.3488 58.7607 78.8067 49.9354 78.9862 40.7533C78.9944 40.3374 79.3308 40 79.7468 40Z"/>
</mask>
<path d="M79.7468 40C80.1628 40 80.5007 40.3374 80.4929 40.7533C80.3131 50.3054 76.7191 59.4876 70.3479 66.6289C63.9767 73.7703 55.2624 78.3844 45.7926 79.6483C45.3803 79.7033 45.0066 79.4059 44.9594 78.9926C44.9121 78.5793 45.2091 78.2067 45.6214 78.1514C54.7236 76.9297 63.0989 72.4915 69.2239 65.6261C75.3488 58.7607 78.8067 49.9354 78.9862 40.7533C78.9944 40.3374 79.3308 40 79.7468 40Z" stroke="#242424" stroke-width="5.33333" mask="url(#path-1-inside-1_2311_2056)"/>
<mask id="path-2-inside-2_2311_2056" fill="white">
<path d="M40.5 0.753203C40.5 0.337225 40.8374 -0.000734185 41.2533 0.00709356C50.8054 0.186865 59.9876 3.78087 67.1289 10.1521C74.2703 16.5233 78.8844 25.2376 80.1483 34.7074C80.2033 35.1197 79.9059 35.4934 79.4926 35.5406C79.0793 35.5879 78.7067 35.2909 78.6514 34.8786C77.4297 25.7764 72.9915 17.4011 66.1261 11.2761C59.2607 5.15118 50.4354 1.69333 41.2533 1.51376C40.8374 1.50563 40.5 1.16918 40.5 0.753203Z"/>
</mask>
<path d="M40.5 0.753203C40.5 0.337225 40.8374 -0.000734185 41.2533 0.00709356C50.8054 0.186865 59.9876 3.78087 67.1289 10.1521C74.2703 16.5233 78.8844 25.2376 80.1483 34.7074C80.2033 35.1197 79.9059 35.4934 79.4926 35.5406C79.0793 35.5879 78.7067 35.2909 78.6514 34.8786C77.4297 25.7764 72.9915 17.4011 66.1261 11.2761C59.2607 5.15118 50.4354 1.69333 41.2533 1.51376C40.8374 1.50563 40.5 1.16918 40.5 0.753203Z" stroke="#242424" stroke-width="5.33333" mask="url(#path-2-inside-2_2311_2056)"/>
<mask id="path-3-inside-3_2311_2056" fill="white">
<path d="M1.2532 40C0.837223 40 0.499264 39.6626 0.507092 39.2467C0.686862 29.6946 4.28087 20.5124 10.6521 13.3711C17.0233 6.2297 25.7376 1.61564 35.2074 0.351696C35.6197 0.296665 35.9933 0.59409 36.0406 1.00738C36.0879 1.42067 35.7909 1.79327 35.3786 1.84861C26.2764 3.07032 17.9011 7.50855 11.7761 14.3739C5.65118 21.2393 2.19333 30.0646 2.01376 39.2467C2.00563 39.6626 1.66918 40 1.2532 40Z"/>
</mask>
<path d="M1.2532 40C0.837223 40 0.499264 39.6626 0.507092 39.2467C0.686862 29.6946 4.28087 20.5124 10.6521 13.3711C17.0233 6.2297 25.7376 1.61564 35.2074 0.351696C35.6197 0.296665 35.9933 0.59409 36.0406 1.00738C36.0879 1.42067 35.7909 1.79327 35.3786 1.84861C26.2764 3.07032 17.9011 7.50855 11.7761 14.3739C5.65118 21.2393 2.19333 30.0646 2.01376 39.2467C2.00563 39.6626 1.66918 40 1.2532 40Z" stroke="#242424" stroke-width="5.33333" mask="url(#path-3-inside-3_2311_2056)"/>
<mask id="path-4-inside-4_2311_2056" fill="white">
<path d="M40.5 79.2468C40.5 79.6628 40.1626 80.0007 39.7467 79.9929C30.1946 79.8131 21.0124 76.2191 13.8711 69.8479C6.7297 63.4767 2.11564 54.7624 0.85169 45.2926C0.796659 44.8803 1.09408 44.5066 1.50738 44.4594C1.92066 44.4121 2.29326 44.7091 2.3486 45.1214C3.57032 54.2236 8.00854 62.5989 14.8739 68.7239C21.7393 74.8488 30.5646 78.3067 39.7467 78.4862C40.1626 78.4944 40.5 78.8308 40.5 79.2468Z"/>
</mask>
<path d="M40.5 79.2468C40.5 79.6628 40.1626 80.0007 39.7467 79.9929C30.1946 79.8131 21.0124 76.2191 13.8711 69.8479C6.7297 63.4767 2.11564 54.7624 0.85169 45.2926C0.796659 44.8803 1.09408 44.5066 1.50738 44.4594C1.92066 44.4121 2.29326 44.7091 2.3486 45.1214C3.57032 54.2236 8.00854 62.5989 14.8739 68.7239C21.7393 74.8488 30.5646 78.3067 39.7467 78.4862C40.1626 78.4944 40.5 78.8308 40.5 79.2468Z" stroke="#242424" stroke-width="5.33333" mask="url(#path-4-inside-4_2311_2056)"/>
</svg>
