<svg width="56" height="56" viewBox="0 0 56 56" fill="none" xmlns="http://www.w3.org/2000/svg">
<rect x="0.5" y="0.5" width="55" height="55" rx="27.5" stroke="#242424"/>
<g clip-path="url(#clip0_2078_2051)">
<path d="M28 16C34.6274 16 40 21.3726 40 28C40 33.9896 35.6117 38.9543 29.875 39.8545V31.4688H32.6709L33.2031 28H29.875V25.749C29.875 24.8 30.3404 23.875 31.8311 23.875H33.3438V20.9219C33.3438 20.9219 33.0005 20.8633 32.4932 20.8047C32.3664 20.7901 32.2294 20.7754 32.085 20.7617C31.6511 20.7205 31.1497 20.6875 30.6572 20.6875C30.1435 20.6875 29.6631 20.7457 29.2217 20.8604C29.0743 20.8986 28.9314 20.9434 28.793 20.9941C28.3779 21.1462 28.0037 21.354 27.6758 21.6152C27.5664 21.7024 27.4622 21.7955 27.3633 21.8945C26.5729 22.6858 26.125 23.8529 26.125 25.3564V28H23.0781V31.4688H26.125V39.8545C20.3882 38.9543 16 33.9895 16 28C16 21.3726 21.3726 16 28 16Z" fill="#242424"/>
</g>
<defs>
<clipPath id="clip0_2078_2051">
<rect width="24" height="24" fill="white" transform="translate(16 16)"/>
</clipPath>
</defs>
</svg>
