<svg width="56" height="56" viewBox="0 0 56 56" fill="none" xmlns="http://www.w3.org/2000/svg">
<rect x="0.5" y="0.5" width="55" height="55" rx="27.5" stroke="#242424"/>
<g clip-path="url(#clip0_2078_2044)">
<path d="M24.361 16.7889C21.9631 17.6208 19.8951 19.1998 18.4608 21.2938C17.0265 23.3879 16.3015 25.8867 16.3924 28.4233C16.4832 30.9598 17.3851 33.4004 18.9655 35.3864C20.5459 37.3725 22.7216 38.7995 25.1729 39.4577C27.1603 39.9705 29.2424 39.993 31.2404 39.5233C33.0504 39.1168 34.7238 38.2471 36.0967 36.9996C37.5256 35.6615 38.5627 33.9592 39.0967 32.0758C39.677 30.0277 39.7803 27.8738 39.3985 25.7796H28.2385V30.4089H34.7017C34.5725 31.1473 34.2957 31.852 33.8878 32.4809C33.48 33.1098 32.9494 33.6499 32.3279 34.0689C31.5387 34.591 30.649 34.9423 29.716 35.1002C28.7803 35.2742 27.8205 35.2742 26.8848 35.1002C25.9364 34.9041 25.0392 34.5127 24.2504 33.9508C22.9832 33.0538 22.0317 31.7794 21.5317 30.3096C21.0232 28.8122 21.0232 27.1888 21.5317 25.6914C21.8876 24.6418 22.476 23.6862 23.2529 22.8958C24.142 21.9747 25.2677 21.3163 26.5063 20.9928C27.745 20.6694 29.0488 20.6933 30.2748 21.0621C31.2325 21.3561 32.1083 21.8697 32.8323 22.5621C33.561 21.8371 34.2885 21.1102 35.0148 20.3814C35.3898 19.9896 35.7985 19.6164 36.1679 19.2152C35.0627 18.1867 33.7654 17.3864 32.3504 16.8602C29.7736 15.9246 26.9541 15.8994 24.361 16.7889Z" fill="#242424"/>
<path d="M24.3607 16.7899C26.9536 15.8997 29.7731 15.9242 32.3501 16.8592C33.7654 17.389 35.062 18.1932 36.1657 19.2255C35.7907 19.6267 35.3951 20.0017 35.0126 20.3917C34.2851 21.118 33.5582 21.8417 32.832 22.563C32.1079 21.8706 31.2321 21.357 30.2745 21.063C29.0489 20.6929 27.7451 20.6676 26.5061 20.9897C25.2671 21.3119 24.1408 21.9691 23.2507 22.8892C22.4738 23.6796 21.8854 24.6353 21.5295 25.6849L17.6426 22.6755C19.0338 19.9165 21.4427 17.8062 24.3607 16.7899Z" fill="#242424"/>
<path d="M16.6114 25.6561C16.8203 24.6207 17.1672 23.618 17.6427 22.6748L21.5295 25.6917C21.0211 27.1891 21.0211 28.8124 21.5295 30.3098C20.2345 31.3098 18.9389 32.3148 17.6427 33.3248C16.4523 30.9554 16.0893 28.2557 16.6114 25.6561Z" fill="#242424"/>
<path d="M28.2381 25.7783H39.3981C39.7799 27.8726 39.6766 30.0264 39.0963 32.0746C38.5623 33.958 37.5252 35.6602 36.0963 36.9983C34.8419 36.0196 33.5819 35.0483 32.3275 34.0696C32.9494 33.6501 33.4802 33.1094 33.8881 32.4798C34.296 31.8503 34.5726 31.1448 34.7013 30.4058H28.2381C28.2363 28.8646 28.2381 27.3214 28.2381 25.7783Z" fill="#242424"/>
<path d="M17.6406 33.3246C18.9369 32.3246 20.2325 31.3196 21.5275 30.3096C22.0285 31.7799 22.9814 33.0544 24.25 33.9508C25.0413 34.5101 25.9404 34.8983 26.89 35.0908C27.8257 35.2648 28.7855 35.2648 29.7213 35.0908C30.6542 34.9329 31.5439 34.5816 32.3331 34.0596C33.5875 35.0383 34.8475 36.0096 36.1019 36.9883C34.7292 38.2366 33.0558 39.1068 31.2456 39.5139C29.2476 39.9836 27.1655 39.9611 25.1781 39.4483C23.6063 39.0286 22.1381 38.2888 20.8656 37.2752C19.5187 36.2059 18.4187 34.8583 17.6406 33.3246Z" fill="#242424"/>
</g>
<defs>
<clipPath id="clip0_2078_2044">
<rect width="24" height="24" fill="white" transform="translate(16 16)"/>
</clipPath>
</defs>
</svg>
