<svg width="14" height="15" viewBox="0 0 14 15" fill="none" xmlns="http://www.w3.org/2000/svg">
<g clip-path="url(#clip0_33_223)">
<g clip-path="url(#clip1_33_223)">
<g clip-path="url(#clip2_33_223)">
<path fill-rule="evenodd" clip-rule="evenodd" d="M10.5 0.5H3.5C1.57518 0.5 0 2.07448 0 4V11C0 12.9248 1.57518 14.5 3.5 14.5H10.5C12.4248 14.5 14 12.9248 14 11V4C14 2.07448 12.4248 0.5 10.5 0.5ZM6.99973 10.4168C5.38868 10.4168 4.08301 9.11057 4.08301 7.50022C4.08301 5.88917 5.38868 4.5835 6.99973 4.5835C8.61008 4.5835 9.91646 5.88917 9.91646 7.50022C9.91646 9.11057 8.61008 10.4168 6.99973 10.4168ZM9.91699 3.7085C9.91699 4.19167 10.3083 4.5835 10.792 4.5835C11.2757 4.5835 11.667 4.19167 11.667 3.7085C11.667 3.22532 11.2757 2.8335 10.792 2.8335C10.3083 2.8335 9.91699 3.22532 9.91699 3.7085Z" fill="white"/>
</g>
</g>
</g>
<defs>
<clipPath id="clip0_33_223">
<rect width="14" height="14" fill="white" transform="translate(0 0.5)"/>
</clipPath>
<clipPath id="clip1_33_223">
<rect width="14" height="14" fill="white" transform="translate(0 0.5)"/>
</clipPath>
<clipPath id="clip2_33_223">
<rect width="14" height="14" fill="white" transform="translate(0 0.5)"/>
</clipPath>
</defs>
</svg>
