<svg width="21" height="20" viewBox="0 0 21 20" fill="none" xmlns="http://www.w3.org/2000/svg">
<path d="M6.33354 8.33354H8.83354V5.83354L5.91687 2.91687C6.8499 2.47127 7.89812 2.32588 8.9172 2.50072C9.93628 2.67557 10.8761 3.16205 11.6072 3.89318C12.3384 4.62431 12.8248 5.56412 12.9997 6.58321C13.1745 7.60229 13.0291 8.65051 12.5835 9.58354L17.5835 14.5835C17.9151 14.9151 18.1013 15.3647 18.1013 15.8335C18.1013 16.3024 17.9151 16.752 17.5835 17.0835C17.252 17.4151 16.8024 17.6013 16.3335 17.6013C15.8647 17.6013 15.4151 17.4151 15.0835 17.0835L10.0835 12.0835C9.15051 12.5291 8.10229 12.6745 7.08321 12.4997C6.06412 12.3248 5.12431 11.8384 4.39318 11.1072C3.66205 10.3761 3.17557 9.43628 3.00072 8.4172C2.82588 7.39812 2.97127 6.3499 3.41687 5.41687L6.33354 8.33354Z" stroke="#003BFF" stroke-width="1.66667" stroke-linecap="round" stroke-linejoin="round"/>
</svg>
