<svg width="15" height="16" viewBox="0 0 15 16" fill="none" xmlns="http://www.w3.org/2000/svg">
<path d="M7.5 0.166016C6.67591 0.166016 5.87033 0.410386 5.18512 0.868225C4.49992 1.32606 3.96587 1.97681 3.6505 2.73817C3.33514 3.49953 3.25262 4.3373 3.41339 5.14556C3.57417 5.95381 3.971 6.69624 4.55372 7.27896C5.13644 7.86168 5.87887 8.25852 6.68712 8.41929C7.49538 8.58006 8.33315 8.49755 9.09451 8.18218C9.85587 7.86682 10.5066 7.33276 10.9645 6.64756C11.4223 5.96235 11.6667 5.15677 11.6667 4.33268C11.6667 3.22761 11.2277 2.16781 10.4463 1.3864C9.66488 0.605002 8.60507 0.166016 7.5 0.166016ZM7.5 6.83268C7.00555 6.83268 6.5222 6.68606 6.11107 6.41136C5.69995 6.13665 5.37952 5.74621 5.1903 5.28939C5.00108 4.83258 4.95157 4.32991 5.04804 3.84496C5.1445 3.36 5.3826 2.91455 5.73223 2.56492C6.08186 2.21528 6.52732 1.97718 7.01227 1.88072C7.49723 1.78426 7.99989 1.83376 8.45671 2.02298C8.91352 2.2122 9.30397 2.53263 9.57867 2.94376C9.85338 3.35488 10 3.83823 10 4.33268C10 4.99572 9.73661 5.63161 9.26777 6.10045C8.79893 6.56929 8.16304 6.83268 7.5 6.83268ZM15 15.9993V15.166C15 13.6189 14.3854 12.1352 13.2915 11.0412C12.1975 9.94726 10.7138 9.33268 9.16667 9.33268H5.83333C4.28624 9.33268 2.80251 9.94726 1.70854 11.0412C0.614581 12.1352 0 13.6189 0 15.166V15.9993H1.66667V15.166C1.66667 14.0609 2.10565 13.0011 2.88705 12.2197C3.66846 11.4383 4.72826 10.9993 5.83333 10.9993H9.16667C10.2717 10.9993 11.3315 11.4383 12.1129 12.2197C12.8943 13.0011 13.3333 14.0609 13.3333 15.166V15.9993H15Z" fill="#242424"/>
</svg>
