<svg width="650" height="800" viewBox="0 0 650 800" fill="none" xmlns="http://www.w3.org/2000/svg">
<g clip-path="url(#clip0_79_2700)">
<path d="M650 0H0V800H650V0Z" fill="#C6C6C6"/>
<path d="M325 0V469.098L0 602V0H325Z" fill="#DADADA"/>
<path d="M650 0V602L508.271 544.051L467.538 527.395L459.824 524.243L426.747 510.718L414.642 505.766L407.304 502.758L406.293 502.349L376.22 490.051L325 469.098V0H650Z" fill="#415969"/>
<g style="mix-blend-mode:multiply" opacity="0.1">
<path d="M58.6729 206.97L102.006 181.952C102.902 181.432 103.595 180.219 103.595 179.179V163.03C103.595 162.019 102.873 161.614 102.006 162.105L58.6729 187.123C57.7773 187.643 57.084 188.856 57.084 189.896V206.045C57.084 207.056 57.8062 207.461 58.6729 206.97Z" fill="#1D1D1B"/>
<path d="M34.5518 199.083L77.885 174.065C78.7805 173.545 79.4738 172.332 79.4738 171.292V155.143C79.4738 154.132 78.7516 153.699 77.885 154.219L34.5518 179.236C33.6851 179.756 32.9629 180.97 32.9629 182.01V198.158C32.9629 199.17 33.6851 199.603 34.5518 199.083Z" fill="#1D1D1B"/>
<path d="M58.6729 163.607L102.006 138.59C102.902 138.07 103.595 136.856 103.595 135.816V119.667C103.595 118.656 102.873 118.223 102.006 118.743L58.6729 143.761C57.8062 144.281 57.084 145.494 57.084 146.534V162.683C57.084 163.694 57.8062 164.098 58.6729 163.607Z" fill="#1D1D1B"/>
</g>
<g style="mix-blend-mode:multiply" opacity="0.1">
<path d="M55.8399 476.704L99.173 451.687C100.069 451.167 100.762 449.953 100.762 448.913V432.765C100.762 431.753 100.04 431.32 99.173 431.84L55.8399 456.858C54.9443 457.378 54.251 458.591 54.251 459.631V475.78C54.251 476.791 54.9732 477.224 55.8399 476.704Z" fill="#1D1D1B"/>
<path d="M80.1074 440.853L123.441 415.836C124.336 415.316 125.03 414.102 125.03 413.062V396.914C125.03 395.902 124.307 395.498 123.441 395.989L80.1074 421.007C79.2408 421.527 78.5186 422.74 78.5186 423.78V439.929C78.5186 440.94 79.2408 441.345 80.1074 440.853Z" fill="#1D1D1B"/>
<path d="M31.7188 468.818L75.052 443.8C75.9475 443.28 76.6409 442.067 76.6409 441.027V424.878C76.6409 423.867 75.9186 423.433 75.052 423.953L31.7188 448.971C30.8521 449.491 30.1299 450.704 30.1299 451.744V467.893C30.1299 468.904 30.8521 469.309 31.7188 468.818Z" fill="#1D1D1B"/>
<path d="M104.26 405.407L147.593 380.389C148.488 379.869 149.182 378.656 149.182 377.616V361.467C149.182 360.456 148.46 360.051 147.593 360.542L104.26 385.56C103.393 386.08 102.671 387.293 102.671 388.333V404.482C102.671 405.493 103.393 405.927 104.26 405.407Z" fill="#1D1D1B"/>
<path d="M55.8399 433.342L99.173 408.325C100.069 407.805 100.762 406.591 100.762 405.551V389.402C100.762 388.391 100.04 387.987 99.173 388.478L55.8399 413.496C54.9732 414.016 54.251 415.229 54.251 416.269V432.418C54.251 433.429 54.9732 433.833 55.8399 433.342Z" fill="#1D1D1B"/>
</g>
<g style="mix-blend-mode:multiply" opacity="0.1">
<path d="M324.999 125.503V145.321L291.199 164.821C290.304 165.341 289.61 164.936 289.61 163.925V147.776C289.61 146.765 290.304 145.523 291.199 145.003L324.999 125.503Z" fill="#1D1D1B"/>
<path d="M324.997 103.663V123.481L315.464 128.999C314.597 129.49 313.875 129.085 313.875 128.074V111.925C313.875 110.914 314.597 109.672 315.464 109.152L324.997 103.663Z" fill="#1D1D1B"/>
<path d="M267.047 156.934L310.38 131.916C311.247 131.396 311.969 130.183 311.969 129.143V112.994C311.969 111.983 311.247 111.55 310.38 112.07L267.047 137.087C266.151 137.607 265.458 138.821 265.458 139.861V156.01C265.458 157.021 266.18 157.425 267.047 156.934Z" fill="#1D1D1B"/>
<path d="M324.999 82.1411V101.988L291.199 121.488C290.304 121.979 289.61 121.574 289.61 120.563V104.414C289.61 103.403 290.304 102.161 291.199 101.641L324.999 82.1411Z" fill="#1D1D1B"/>
</g>
<g style="mix-blend-mode:multiply" opacity="0.1">
<path d="M214.672 40.4545L258.005 15.4368C258.901 14.9168 259.594 13.7035 259.594 12.6635V-3.48535C259.594 -4.49645 258.872 -4.9009 258.005 -4.40979L214.672 20.6079C213.776 21.1279 213.083 22.3412 213.083 23.3812V39.5301C213.083 40.5412 213.805 40.9745 214.672 40.4545Z" fill="#1D1D1B"/>
<path d="M190.52 32.5683L233.853 7.55059C234.748 7.03059 235.442 5.81727 235.442 4.77727V-11.3716C235.442 -12.3827 234.719 -12.7871 233.853 -12.296L190.52 12.7217C189.653 13.2417 188.931 14.455 188.931 15.495V31.6439C188.931 32.655 189.653 33.0883 190.52 32.5683Z" fill="#1D1D1B"/>
<path d="M142.103 60.5033L185.436 35.4856C186.331 34.9656 187.025 33.7523 187.025 32.7123V16.5635C187.025 15.5524 186.302 15.1479 185.436 15.639L142.103 40.6567C141.207 41.1767 140.514 42.3901 140.514 43.4301V59.5789C140.514 60.59 141.236 60.9945 142.103 60.5033Z" fill="#1D1D1B"/>
<path d="M166.255 25.057L209.588 0.0393266C210.484 -0.480672 211.177 -1.694 211.177 -2.734V-18.8828C211.177 -19.894 210.455 -20.3273 209.588 -19.8073L166.255 5.21042C165.359 5.73042 164.666 6.94375 164.666 7.98375V24.1326C164.666 25.1437 165.388 25.577 166.255 25.057Z" fill="#1D1D1B"/>
</g>
<g style="mix-blend-mode:multiply" opacity="0.1">
<path d="M155.134 299.009L198.467 273.991C199.334 273.471 200.056 272.258 200.056 271.218V255.069C200.056 254.058 199.334 253.654 198.467 254.145L155.134 279.163C154.238 279.683 153.545 280.896 153.545 281.936V298.085C153.545 299.096 154.267 299.5 155.134 299.009Z" fill="#1D1D1B"/>
<path d="M179.255 263.563L222.588 238.545C223.455 238.025 224.177 236.812 224.177 235.772V219.623C224.177 218.612 223.455 218.208 222.588 218.699L179.255 243.716C178.359 244.236 177.666 245.45 177.666 246.49V262.638C177.666 263.65 178.388 264.054 179.255 263.563Z" fill="#1D1D1B"/>
<path d="M130.866 291.498L174.199 266.48C175.066 265.96 175.788 264.747 175.788 263.707V247.558C175.788 246.547 175.066 246.143 174.199 246.634L130.866 271.651C129.971 272.171 129.277 273.385 129.277 274.425V290.574C129.277 291.585 130 291.989 130.866 291.498Z" fill="#1D1D1B"/>
<path d="M155.134 255.676L198.467 230.658C199.363 230.138 200.056 228.925 200.056 227.885V211.736C200.056 210.725 199.334 210.292 198.467 210.812L155.134 235.83C154.238 236.35 153.545 237.563 153.545 238.603V254.752C153.545 255.763 154.267 256.167 155.134 255.676Z" fill="#1D1D1B"/>
</g>
<g opacity="0.1">
<path d="M36.918 11.6816L80.2512 -13.3361C81.1179 -13.8561 81.8401 -15.0695 81.8401 -16.1095V-32.2583C81.8401 -33.2694 81.1179 -33.6738 80.2512 -33.1827L36.918 -8.16505C36.0224 -7.64505 35.3291 -6.4317 35.3291 -5.3917V10.7571C35.3291 11.7682 36.0513 12.1727 36.918 11.6816Z" fill="#1D1D1B"/>
<path d="M0.375 12.9234V32.77L31.8349 14.5989C32.7305 14.0789 33.4238 12.8367 33.4238 11.8256V-4.32324C33.4238 -5.33435 32.7305 -5.73879 31.8349 -5.21879L0.375 12.9234Z" fill="#1D1D1B"/>
<path d="M12.7696 3.76604L56.1028 -21.2517C56.9694 -21.7717 57.6916 -22.985 57.6916 -24.025V-40.1738C57.6916 -41.1849 56.9694 -41.5894 56.1028 -41.0983L12.7696 -16.0806C11.874 -15.5606 11.1807 -14.3472 11.1807 -13.3073V2.8416C11.1807 3.85271 11.9029 4.25715 12.7696 3.76604Z" fill="#1D1D1B"/>
<path d="M0.375 -8.85844V10.9593L7.71274 6.71262C8.5794 6.22151 9.30163 4.9793 9.30163 3.96819V-12.1807C9.30163 -13.1918 8.5794 -13.5962 7.71274 -13.1051L0.375 -8.85844Z" fill="#1D1D1B"/>
</g>
<mask id="mask0_79_2700" style="mask-type:luminance" maskUnits="userSpaceOnUse" x="0" y="61" width="650" height="739">
<path d="M650 61H0V800H650V61Z" fill="white"/>
</mask>
<g mask="url(#mask0_79_2700)">
<path d="M459.103 498.689V491.784L330.952 424.069L325.405 420.862L262.572 450.213V457.147L396.241 534.973L459.103 498.689Z" fill="#A68660"/>
<path d="M459.101 491.842L453.497 495.078L450.579 496.724L442.432 501.375L440.063 502.791L436.597 504.755L434.546 505.94L432.003 507.442H431.917C431.599 507.529 431.368 507.586 431.368 507.76C431.368 507.76 431.281 507.76 431.281 507.846L425.503 511.169L422.817 512.758L417.212 515.993L415.392 517.033L404.819 523.129L402.277 524.544L396.181 528.097L262.513 450.213L267.164 447.527L267.713 447.209L268.579 446.747L269.908 445.967L273.057 444.147L275.426 442.731L277.968 441.316L280.886 439.669L281.117 439.524L288.397 435.336L290.622 434.064L291.026 433.833L293.944 432.187L301.224 427.911L301.455 427.824L301.541 427.738L304.373 426.091L306.915 424.589L309.053 423.404L310.324 422.624L313.155 421.036L317.344 418.58L318.297 418.118L321.215 416.384L324.046 414.738L325.317 414.016L330.921 417.251L459.072 491.9L459.101 491.842Z" fill="#DBC7C0"/>
<path d="M726.321 652.81V645.906L467.564 503.426L462.018 500.22L399.185 529.6V536.504L663.459 689.095L726.321 652.81Z" fill="#A68660"/>
<path d="M726.322 645.935L720.718 649.171L717.8 650.817L709.654 655.468L707.285 656.884L703.818 658.848L701.767 660.033L699.225 661.535H699.138C698.82 661.622 698.589 661.679 698.589 661.853C698.589 661.853 698.503 661.853 698.503 661.939L692.725 665.262L690.038 666.85L684.434 670.086L682.614 671.126L672.04 677.222L669.498 678.637L663.403 682.19L399.128 529.542L403.779 526.855L405.195 526.075L409.701 523.475L412.07 522.06L417.53 518.969L417.761 518.824L425.041 514.635L427.266 513.364L438.157 507.038L440.988 505.391L446.91 501.924L449.741 500.335L457.801 495.684L460.632 494.038L461.903 493.315L467.508 496.551L726.236 645.935H726.322Z" fill="#DBC7C0"/>
<path d="M524.969 612.482V605.577L266.241 463.098L260.694 459.891L197.832 489.242V496.175L462.136 648.766L524.969 612.482Z" fill="#A68660"/>
<path d="M524.968 605.548L518.323 609.333L517.052 610.055L512.719 612.597L509.945 614.244H509.859L503.705 617.797L501.799 618.981H501.712L495.79 622.448H495.703L493.739 623.633C493.739 623.633 493.739 623.546 493.652 623.633L482.819 629.873L482.183 630.277L470.425 636.979L469.068 637.759H468.981L462.105 641.775L197.744 489.213L207.855 483.377L210.773 481.731L216.609 478.322L219.151 476.906L223.426 474.364L223.888 474.133L229.493 470.897L230.764 470.175L240.095 464.802L243.013 463.069L260.635 452.958L266.153 456.106L524.881 605.49L524.968 605.548Z" fill="#DBC7C0"/>
<path d="M791.724 767.066V760.132L532.996 617.653L527.449 614.446L464.616 643.826V650.731L728.891 803.321L791.724 767.066Z" fill="#A68660"/>
<path d="M791.754 760.103L785.341 763.83L784.619 764.234L778.292 767.874H778.205L776.472 768.914L766.91 774.519L765.87 775.068L758.214 779.488L757.116 780.123L749.605 784.457L747.236 785.785L739.176 790.436L737.039 791.708L728.834 796.445L464.56 643.797L469.702 640.793L472.533 639.204L481.373 634.061L484.146 632.473L494.257 626.637L496.077 625.597L510.608 617.219L511.562 616.67L518.437 612.713L520.488 611.528L527.45 607.513L532.968 610.748L791.696 760.074L791.754 760.103Z" fill="#DBC7C0"/>
<path d="M327.744 574.984V568.079L200.777 501.895L195.231 498.688L132.397 528.068V534.973L264.91 611.268L327.744 574.984Z" fill="#A68660"/>
<path d="M327.801 568.079L322.197 571.315L319.279 572.962L311.133 577.613L308.764 579.028L305.297 580.993L303.246 582.177L300.704 583.679H300.617C300.299 583.766 300.068 583.824 300.068 583.997C300.068 583.997 299.981 583.997 299.981 584.084L294.204 587.406L291.517 588.995L285.913 592.23L284.093 593.27L273.519 599.366L270.977 600.782L264.882 604.335L132.397 528.011L137.049 525.324L138.377 524.544H138.464L140.689 523.273L142.971 521.944L145.34 520.528L148.806 518.564L150.771 517.466L151.002 517.322L151.637 516.917L158.282 513.133L160.506 511.862L161.835 511.082L164.666 509.435L171.369 505.564L171.917 505.246L172.062 505.16L174.2 503.888L177.608 501.924L179.66 500.653L180.122 500.422L182.953 498.833L188.008 495.915L188.962 495.366L191.013 494.182L193.844 492.535L195.115 491.813L200.72 495.049L327.686 568.137L327.801 568.079Z" fill="#DBC7C0"/>
<path d="M594.762 729.28V722.375L336.034 579.896L330.487 576.689L267.625 606.069V612.973L531.929 765.564L594.762 729.28Z" fill="#A68660"/>
<path d="M594.733 722.375L585.806 727.517H585.72L585.084 727.922L576.302 733.064L573.384 734.71L564.457 739.853L562.811 740.893C562.811 740.893 562.811 740.806 562.724 740.893L552.382 746.902L549.84 748.317L542.184 752.737L539.411 754.326L531.9 758.659L267.625 606.097L269.358 605.057L271.9 603.642L276.176 601.186L278.14 600.002L285.969 595.495L288.8 593.849L298.276 588.331L301.28 586.684L310.525 581.311L312.749 579.953L321.04 575.215L322.687 574.175L330.429 569.755L335.947 572.991L594.675 722.375H594.733Z" fill="#DBC7C0"/>
<path d="M394.188 689.211V682.306L135.431 539.827L129.884 536.62L67.0508 566V572.904L331.354 725.495L394.188 689.211Z" fill="#A68660"/>
<path d="M394.159 682.306L385.232 687.448H385.145L384.51 687.853L375.728 692.995L372.81 694.641L363.883 699.784L362.237 700.824C362.237 700.824 362.236 700.737 362.15 700.824L351.808 706.833L349.265 708.248L341.61 712.668L338.837 714.257L331.325 718.59L67.0508 566.029L68.7841 564.989L71.3263 563.573L75.6018 561.117L77.5663 559.933L85.3951 555.426L88.2262 553.78L97.7018 548.262L100.706 546.615L109.951 541.242L112.175 539.884L120.466 535.146L122.113 534.107L129.855 529.687L135.373 532.922L394.101 682.306H394.159Z" fill="#DBC7C0"/>
<path d="M862.533 883.719V876.815L603.776 734.306L598.23 731.128L535.396 760.479V767.384L799.7 920.003L862.533 883.719Z" fill="#A68660"/>
<path d="M862.563 876.814L856.958 880.05L854.04 881.697L845.894 886.348L843.525 887.763L840.058 889.728L838.007 890.912L835.465 892.414H835.378C835.06 892.501 834.829 892.559 834.829 892.732C834.829 892.732 834.743 892.732 834.743 892.819L828.965 896.141L826.278 897.73L820.674 900.965L818.854 902.005L808.281 908.101L805.738 909.516L799.643 913.07L535.368 760.421L540.019 757.735L541.435 756.955L545.941 754.355L548.31 752.939L553.77 749.848L554.001 749.704L561.281 745.515L563.506 744.244L574.397 737.917L577.228 736.27L583.15 732.804L585.981 731.215L594.041 726.564L596.872 724.917L598.143 724.195L603.748 727.43L862.476 876.814H862.563Z" fill="#DBC7C0"/>
<path d="M661.206 843.361V836.457L402.449 693.977L396.902 690.771L334.069 720.15V727.055L598.373 879.645L661.206 843.361Z" fill="#A68660"/>
<path d="M661.177 836.457L654.532 840.241L653.261 840.964L648.928 843.506L646.154 845.152H646.068L639.914 848.706L638.008 849.89H637.921L631.999 853.357H631.912L629.948 854.541C629.948 854.541 629.948 854.455 629.861 854.541L619.028 860.781L618.392 861.186L606.634 867.888L605.277 868.668H605.19L598.314 872.683L333.953 720.122L344.064 714.286L346.982 712.639L352.818 709.231L355.36 707.815L359.635 705.273L360.097 705.042L365.702 701.806L366.973 701.084L376.304 695.711L379.222 693.977L396.844 683.866L402.362 687.015L661.09 836.399L661.177 836.457Z" fill="#DBC7C0"/>
<path d="M196.787 651.915V645.01L68.6366 577.295L63.09 574.088L0.256836 603.468V610.373L133.954 688.199L196.787 651.915Z" fill="#A68660"/>
<path d="M196.817 645.068L191.212 648.304L188.295 649.95L180.148 654.602L177.779 656.017L174.312 657.981L172.261 659.166L169.719 660.668H169.632C169.315 660.755 169.084 660.813 169.084 660.986C169.084 660.986 168.997 660.986 168.997 661.073L163.219 664.395L160.532 665.984L154.928 669.219L153.108 670.259L142.535 676.355L139.993 677.77L133.897 681.324L0.228516 603.411L4.87961 600.724L5.42851 600.406L6.29514 599.944L7.62404 599.164L10.7729 597.344L13.1418 595.928L15.684 594.513L18.6018 592.866L18.8329 592.722L26.1129 588.533L28.3373 587.262L28.7417 587.031L31.6595 585.384L38.9395 581.108L39.1706 581.022L39.2573 580.935L42.0884 579.288L44.6306 577.786L46.7684 576.602L48.0395 575.822L50.8706 574.233L55.0594 571.777L56.0128 571.315L58.9305 569.582L61.7617 567.935L63.0328 567.213L68.6372 570.448L196.788 645.097L196.817 645.068Z" fill="#DBC7C0"/>
<path d="M464.009 806.036V799.132L205.252 656.652L199.705 653.446L136.872 682.826V689.73L401.176 842.321L464.009 806.036Z" fill="#A68660"/>
<path d="M464.038 799.161L458.434 802.397L455.516 804.043L447.369 808.694L445.001 810.11L441.534 812.074L439.483 813.259L436.941 814.761H436.854C436.536 814.848 436.305 814.905 436.305 815.079C436.305 815.079 436.218 815.079 436.218 815.165L430.441 818.488L427.754 820.077L422.15 823.312L420.33 824.352L409.756 830.448L407.214 831.863L401.119 835.416L136.844 682.768L141.495 680.081L142.91 679.301L147.417 676.701L149.786 675.286L155.246 672.195L155.477 672.05L162.757 667.861L164.981 666.59L175.873 660.264L178.704 658.617L184.626 655.15L187.457 653.561L195.517 648.91L198.348 647.264L199.619 646.542L205.224 649.777L463.952 799.161H464.038Z" fill="#DBC7C0"/>
<path d="M262.685 765.708V758.804L3.92763 616.324L-1.61901 613.118L-64.4521 642.469V649.402L199.851 801.993L262.685 765.708Z" fill="#A68660"/>
<path d="M262.655 758.775L256.011 762.559L254.74 763.281L250.406 765.824L247.633 767.47H247.546L241.393 771.024L239.486 772.208H239.4L233.477 775.675H233.391L231.426 776.859C231.426 776.859 231.426 776.772 231.34 776.859L220.506 783.099L219.871 783.504L208.113 790.206L206.755 790.986H206.669L199.793 795.001L-64.5684 642.44L-54.4573 636.604L-51.5395 634.957L-45.704 631.548L-43.1617 630.133L-38.8862 627.591L-38.424 627.36L-32.8196 624.124L-31.5484 623.402L-22.2174 618.029L-19.2996 616.295L-1.67743 606.184L3.84034 609.333L262.568 758.717L262.655 758.775Z" fill="#DBC7C0"/>
<path d="M529.44 920.291V913.358L270.684 770.879L265.137 767.672L202.304 797.052V803.956L466.607 956.547L529.44 920.291Z" fill="#A68660"/>
<path d="M529.442 913.329L523.028 917.056L522.306 917.46L515.979 921.101H515.893L514.159 922.14L504.597 927.745L503.557 928.294L495.902 932.714L494.804 933.349L487.293 937.683L484.924 939.012L476.864 943.663L474.726 944.934L466.522 949.671L202.247 797.023L207.389 794.019L210.22 792.43L219.06 787.288L221.834 785.699L231.945 779.863L233.765 778.823L248.296 770.445L249.249 769.897L256.125 765.939L258.176 764.754L265.138 760.739L270.656 763.974L529.384 913.301L529.442 913.329Z" fill="#DBC7C0"/>
<path d="M65.4599 728.21V721.306L-61.5353 655.122L-67.0819 651.915L-129.915 681.295V688.199L2.59786 764.495L65.4599 728.21Z" fill="#A68660"/>
<path d="M65.4888 721.306L59.8844 724.541L56.9666 726.188L48.82 730.839L46.4511 732.255L42.9844 734.219L40.9333 735.404L38.3911 736.906H38.3044C37.9867 736.993 37.7556 737.05 37.7556 737.224C37.7556 737.224 37.6689 737.224 37.6689 737.31L31.8911 740.633L29.2045 742.221L23.6 745.457L21.78 746.497L11.2068 752.592L8.66454 754.008L2.569 757.561L-129.915 681.237L-125.264 678.551L-123.935 677.771H-123.848L-121.624 676.499L-119.342 675.171L-116.973 673.755L-113.506 671.791L-111.542 670.693L-111.311 670.548L-110.675 670.144L-104.031 666.359L-101.806 665.088L-100.477 664.308L-97.6463 662.662L-90.944 658.791L-90.3951 658.473L-90.2507 658.386L-88.1129 657.115L-84.7041 655.151L-82.653 653.88L-82.1907 653.648L-79.3596 652.06L-74.3041 649.142L-73.3508 648.593L-71.2996 647.408L-68.4685 645.762L-67.1974 645.04L-61.593 648.275L65.3733 721.364L65.4888 721.306Z" fill="#DBC7C0"/>
<path d="M332.48 882.506V875.601L73.7235 733.122L68.1769 729.915L5.34375 759.295V766.199L269.647 918.79L332.48 882.506Z" fill="#A68660"/>
<path d="M332.452 875.601L323.525 880.743H323.438L322.803 881.148L314.021 886.29L311.103 887.937L302.176 893.079L300.529 894.119C300.529 894.119 300.529 894.032 300.443 894.119L290.101 900.128L287.558 901.543L279.903 905.963L277.13 907.552L269.618 911.885L5.34375 759.324L7.07705 758.284L9.61928 756.868L13.8948 754.412L15.8593 753.228L23.6881 748.721L26.5192 747.075L35.9948 741.557L38.9992 739.91L48.2436 734.537L50.468 733.179L58.7591 728.441L60.4058 727.402L68.148 722.981L73.6657 726.217L332.394 875.601H332.452Z" fill="#DBC7C0"/>
<path d="M131.875 842.437V835.532L-126.853 693.053L-132.4 689.846L-195.262 719.226V726.131L69.0419 878.721L131.875 842.437Z" fill="#A68660"/>
<path d="M131.846 835.532L122.919 840.674H122.833L122.197 841.079L113.415 846.221L110.497 847.868L101.571 853.01L99.924 854.05C99.924 854.05 99.924 853.963 99.8374 854.05L89.4952 860.059L86.953 861.474L79.2974 865.894L76.5241 867.483L69.013 871.817L-195.262 719.255L-193.528 718.215L-190.986 716.799L-186.711 714.344L-184.746 713.159L-176.917 708.653L-174.086 707.006L-164.611 701.488L-161.606 699.841L-152.362 694.468L-150.137 693.11L-141.846 688.373L-140.2 687.333L-132.457 682.913L-126.94 686.148L131.788 835.532H131.846Z" fill="#DBC7C0"/>
<path d="M0.953195 919.396V912.463L-257.804 769.983L-263.35 766.776L-326.184 796.156V803.061L-61.9088 955.651L0.953195 919.396Z" fill="#A68660"/>
<path d="M0.923647 912.463L-5.72079 916.247L-6.9919 916.969L-11.3252 919.512L-14.0986 921.158H-14.1852L-20.3385 924.712L-22.2452 925.896H-22.3318L-28.2541 929.363H-28.3407L-30.3052 930.547C-30.3052 930.547 -30.3052 930.46 -30.3918 930.547L-41.2251 936.787L-41.8607 937.192L-53.6184 943.894L-54.9762 944.674H-55.0629L-61.9384 948.689L-326.3 796.127L-316.189 790.292L-313.271 788.645L-307.435 785.236L-304.893 783.821L-300.618 781.279L-300.155 781.048L-294.551 777.812L-293.28 777.09L-283.949 771.716L-281.031 769.983L-263.409 759.872L-257.891 763.021L0.83694 912.405L0.923647 912.463Z" fill="#DBC7C0"/>
</g>
<g opacity="0.2">
<path d="M426.603 628.053C475.967 628.053 515.985 604.953 515.985 576.458C515.985 547.962 475.967 524.862 426.603 524.862C377.238 524.862 337.221 547.962 337.221 576.458C337.221 604.953 377.238 628.053 426.603 628.053Z" fill="#1D1D1B"/>
</g>
<g opacity="0.2">
<path d="M381.388 665.291C369.688 672.051 371.595 681.815 383.295 688.575C394.995 695.335 407.36 711.022 429.835 698.253C452.31 685.484 434.111 684.791 423.162 674.304C413.397 664.973 393.06 658.531 381.388 665.291Z" fill="#1D1D1B"/>
</g>
<path opacity="0.2" d="M317.459 703.192C295.648 690.597 265.344 685.859 237.177 689.037C236.975 679.388 230.561 669.797 217.822 662.43C191.966 647.495 150.02 647.495 124.164 662.43C98.3086 677.366 98.3086 701.574 124.164 716.51C136.182 723.443 151.637 727.112 167.382 727.603C160.362 744.474 168.277 763.021 191.071 776.194C225.968 796.359 282.561 796.359 317.488 776.194C352.386 756.03 352.386 723.357 317.488 703.221L317.459 703.192Z" fill="#1D1D1B"/>
<g opacity="0.2">
<path d="M60.7824 699.668C42.6402 710.155 42.6402 727.141 60.7824 737.628C78.9246 748.115 108.362 748.115 126.533 737.628C144.675 727.141 144.675 710.155 126.533 699.668C108.391 689.182 78.9535 689.182 60.7824 699.668Z" fill="#1D1D1B"/>
</g>
<path opacity="0.2" d="M396.844 462.578L223.656 561.608L146.898 517.293L320.087 418.262L396.844 462.578Z" fill="#1D1D1B"/>
<path opacity="0.2" d="M632.837 670.23L552.526 716.597L472.244 670.23L552.526 623.864L632.837 670.23Z" fill="#1D1D1B"/>
<path d="M46.9131 635.593L47.0286 636.344C46.9997 636.084 46.9997 635.853 46.9708 635.593H46.9131Z" fill="#B2B2B2"/>
<path d="M139.762 631.693C138.896 625.597 134.418 619.617 126.358 614.966C108.158 604.479 78.6625 604.479 60.4915 614.966C50.6693 620.628 46.1915 628.197 46.9715 635.593C46.9715 635.853 46.9715 636.084 47.0293 636.344L47.0871 636.69C47.1449 637.066 47.2315 637.442 47.3471 637.817C47.4338 638.135 47.5204 638.482 47.636 638.77C47.636 638.857 47.6938 638.944 47.7227 639.03C47.896 639.579 48.0982 640.128 48.3582 640.648C48.4449 640.85 48.5315 641.053 48.6471 641.255C48.8493 641.659 49.0515 642.093 49.3115 642.497C49.4849 642.786 49.6582 643.104 49.8604 643.393C50.1204 643.797 50.4382 644.23 50.7271 644.664C50.8715 644.837 51.016 645.01 51.1315 645.184C51.3915 645.473 51.6226 645.762 51.8826 646.05C52.0849 646.282 52.2871 646.513 52.4893 646.744C52.4893 646.744 52.6048 646.888 52.6626 646.946C52.9804 647.264 53.3271 647.61 53.6737 647.928C53.9337 648.188 54.1648 648.39 54.4248 648.621C55.667 649.719 57.0537 650.788 58.6426 651.799C59.2782 652.175 59.856 652.608 60.5493 653.013C62.8893 654.37 65.4026 655.526 68.0893 656.537C83.5159 662.344 103.536 662.315 118.905 656.537C121.534 655.555 124.076 654.37 126.416 653.041C127.109 652.637 127.716 652.204 128.351 651.799C135.458 647.148 139.358 641.428 139.936 635.622C140.08 634.322 140.051 633.05 139.849 631.75L139.762 631.693ZM98.5669 659.195C98.1336 659.253 97.7291 659.281 97.2958 659.281C97.1802 659.281 97.0647 659.281 96.9781 659.281C96.8047 659.281 96.6602 659.281 96.4869 659.281C94.4358 659.368 92.3847 659.368 90.3336 659.281C89.3514 659.224 88.3403 659.166 87.387 659.079C84.9892 658.906 82.6203 658.617 80.3092 658.184C79.6737 658.068 79.0381 657.953 78.4314 657.837H78.3737C76.6692 657.49 75.0225 657.057 73.4337 656.566C72.307 656.277 71.2092 655.873 70.1115 655.497C67.3381 654.515 64.6804 653.33 62.2537 651.915C61.4448 651.453 60.7804 650.99 60.0581 650.499C58.2093 649.257 56.6204 647.957 55.2626 646.599C54.9737 646.31 54.7137 646.05 54.4537 645.762C54.1649 645.473 53.9626 645.213 53.7315 644.924C53.4715 644.635 53.2404 644.346 53.0382 644.057C51.9982 642.67 51.1604 641.255 50.5826 639.81C50.4093 639.464 50.2937 639.088 50.1782 638.742C49.9182 638.019 49.7449 637.326 49.6004 636.604C49.5426 636.228 49.4849 635.824 49.4271 635.448C48.6471 628.399 52.8937 621.235 62.1959 615.862C79.4136 605.924 107.32 605.924 124.538 615.862C133.869 621.235 138.087 628.428 137.307 635.448C137.22 636.199 137.076 636.893 136.902 637.644C136.816 637.99 136.7 638.395 136.585 638.742C135.978 640.562 135.025 642.353 133.696 644.086C131.991 646.339 129.68 648.477 126.762 650.441C126.04 650.904 125.347 651.395 124.538 651.857C122.111 653.244 119.482 654.399 116.709 655.439C115.785 655.757 114.802 656.104 113.82 656.393C113.329 656.566 112.809 656.681 112.289 656.826C111.422 657.086 110.498 657.288 109.602 657.49C109.516 657.49 109.429 657.548 109.342 657.577C108.274 657.808 107.205 658.01 106.107 658.213C105.876 658.27 105.674 658.299 105.442 658.328C104.287 658.53 103.131 658.675 101.947 658.79C101.889 658.79 101.802 658.79 101.716 658.79C100.647 658.906 99.6069 659.021 98.538 659.079L98.5669 659.195Z" fill="#B2B2B2"/>
<path d="M139.993 635.593L137.219 655.122L135.659 666.215L135.053 670.462L134.157 676.904C134.157 678.059 133.926 679.215 133.666 680.37L128.235 718.706C128.235 723.848 124.826 728.99 118.037 732.89C104.459 740.748 82.4461 740.748 68.8683 732.89C62.0795 728.99 58.6995 723.848 58.6995 718.706L53.2395 679.937L52.9217 677.539L51.8817 670.231L51.3617 666.446L47.664 640.1C47.5773 639.753 47.5195 639.348 47.4906 638.973L47.1729 636.691C47.2306 637.066 47.3173 637.442 47.4328 637.817C47.5195 638.135 47.6062 638.482 47.7217 638.771C47.7217 638.857 47.7795 638.944 47.8084 639.031C47.9817 639.579 48.184 640.128 48.444 640.648C48.5306 640.851 48.6173 641.053 48.7328 641.255C48.935 641.659 49.1373 642.122 49.3973 642.497C49.5706 642.786 49.7439 643.104 49.9462 643.393C50.2062 643.797 50.5239 644.231 50.8128 644.664C50.9573 644.837 51.1017 645.011 51.2173 645.184C51.4484 645.473 51.6795 645.762 51.9684 646.051C52.1706 646.282 52.3439 646.484 52.575 646.744C52.575 646.744 52.6906 646.888 52.7484 646.946C53.0661 647.264 53.4128 647.611 53.7595 647.928C54.0195 648.188 54.2506 648.391 54.5106 648.622C55.7528 649.719 57.1395 650.788 58.7284 651.799C59.3639 652.175 59.9417 652.608 60.635 653.013C62.975 654.371 65.4884 655.526 68.175 656.537C83.6016 662.344 103.622 662.315 118.99 656.537C121.619 655.555 124.162 654.371 126.502 653.042C127.195 652.637 127.801 652.204 128.437 651.799C135.544 647.148 139.444 641.428 140.021 635.622H140.166L139.993 635.593Z" fill="#415969"/>
<path d="M137.365 635.593C137.047 638.539 135.863 641.486 133.725 644.23C132.021 646.484 129.71 648.622 126.792 650.586C126.07 651.048 125.376 651.539 124.567 652.002C122.141 653.388 119.512 654.544 116.739 655.584C102.496 660.726 84.3253 660.726 70.0831 655.584C67.3098 654.602 64.6521 653.417 62.2254 652.002C61.4165 651.539 60.7521 651.077 60.0299 650.586C57.0832 648.622 54.7721 646.455 53.0388 644.173C50.9588 641.457 49.7743 638.51 49.4277 635.564C48.6477 628.515 52.8943 621.351 62.1965 615.977C79.4142 606.039 107.321 606.039 124.539 615.977C133.87 621.351 138.087 628.544 137.307 635.564L137.365 635.593Z" fill="#CFEDD9"/>
<path d="M133.753 644.201C132.048 646.455 129.737 648.592 126.82 650.557C126.097 651.019 125.404 651.51 124.595 651.972C122.168 653.359 119.54 654.515 116.766 655.555C102.524 660.697 84.353 660.697 70.1108 655.555C67.3375 654.572 64.6797 653.388 62.2531 651.972C61.4442 651.51 60.7797 651.048 60.0575 650.557C57.1108 648.592 54.7997 646.426 53.0664 644.144C55.2042 641.341 58.2375 638.741 62.2241 636.459C79.4708 626.521 107.348 626.521 124.595 636.459C128.553 638.741 131.615 641.37 133.753 644.172V644.201Z" fill="#F3F3F3"/>
<path d="M139.995 635.592L137.221 655.121C137.221 655.121 137.048 655.237 136.932 655.295C135.546 655.901 134.332 654.197 133.812 652.781C132.801 652.579 132.137 653.792 131.819 654.775C130.75 658.097 132.397 663.701 129.306 665.29C126.07 666.966 127.139 656.248 124.019 660.87C122.459 663.239 124.684 669.883 122.141 671.183C120.726 671.906 119.946 669.046 119.657 667.457C119.397 665.868 119.772 662.604 117.057 663.846C112.724 665.868 115.959 676.528 114.746 682.797C114.457 684.299 113.764 686.032 112.232 686.35C110.152 686.783 108.824 684.183 108.535 682.103C108.246 680.023 108.679 674.39 105.848 676.73C102.873 679.243 105.01 685.512 104.086 689.615C103.624 691.752 103.566 693.832 101.544 694.641C99.2903 695.508 96.6903 693.919 95.5925 691.781C94.4658 689.643 94.4659 687.13 94.437 684.703C94.3792 679.59 94.1769 674.477 93.7725 669.392C93.6569 667.832 93.2236 665.897 91.6925 665.55C88.8614 664.886 87.6192 670.461 84.7592 669.999C83.6614 669.797 82.9681 668.786 82.2748 667.977C81.5525 667.139 80.4548 666.33 79.4437 666.792C77.9126 667.486 78.577 670.028 77.3637 671.183C76.4103 672.108 74.7348 671.617 73.8682 670.606C73.0015 669.595 72.7415 668.237 72.3948 666.937C72.0481 665.666 71.4415 664.337 70.2571 663.73C69.8237 668.872 69.3904 674.015 68.9281 679.157C68.7548 680.948 68.6103 682.826 67.6859 684.357C66.8192 685.917 64.9992 687.101 63.2659 686.697C60.897 686.119 60.0882 683.259 59.7126 680.861C58.8171 674.275 58.5282 667.543 58.9037 660.899C58.9904 659.801 58.6149 658.27 57.5171 658.415C56.8237 659.397 56.9971 660.755 56.9971 661.968C56.9971 663.181 56.5926 664.626 55.4082 665.001C54.1948 665.319 53.0682 664.25 52.4326 663.181C49.5726 658.386 50.4393 652.348 49.3127 646.917C48.8504 644.664 47.9838 642.41 47.5793 640.128C47.4927 639.781 47.4349 639.377 47.406 639.001C47.3482 638.626 47.3193 638.25 47.3193 637.875C47.3193 637.095 47.3193 636.401 47.5215 635.65C48.2438 636.026 48.9371 636.401 49.6304 636.777C49.7748 637.499 49.9482 638.192 50.2082 638.915C50.3238 639.261 50.4682 639.637 50.6127 639.984C51.1904 641.399 52.0282 642.844 53.0682 644.23C53.2704 644.519 53.5015 644.779 53.7615 645.097C53.9926 645.386 54.1949 645.646 54.4837 645.935C54.7437 646.224 55.0037 646.484 55.2926 646.772C56.6504 648.159 58.2393 649.43 60.0882 650.672C60.8104 651.135 61.5037 651.597 62.2837 652.088C64.7104 653.504 67.3681 654.659 70.1415 655.67C71.2392 656.046 72.337 656.45 73.4637 656.739C75.0525 657.23 76.6992 657.635 78.4037 658.01H78.4615C79.0681 658.155 79.7037 658.27 80.3392 658.357C82.6503 658.79 85.0192 659.108 87.417 659.252C88.3703 659.339 89.3814 659.397 90.3636 659.455C92.4147 659.541 94.4659 659.541 96.517 659.455C96.6903 659.455 96.8347 659.455 97.008 659.455C97.1236 659.455 97.2392 659.455 97.3258 659.455C97.7303 659.455 98.1636 659.455 98.597 659.368C99.6658 659.31 100.706 659.195 101.775 659.079C102.93 659.079 104.086 659.021 105.27 658.906C111.048 658.299 116.45 656.017 121.795 653.764C125.897 652.03 130.086 650.21 133.177 647.032C137.048 642.988 138.579 637.326 139.792 631.837C139.995 633.137 140.024 634.408 139.879 635.708H140.023L139.995 635.592Z" fill="#CFEDD9"/>
<path d="M328.638 436C329.245 436 329.88 435.884 330.487 435.682C333.231 434.671 334.618 431.609 333.607 428.893L242.607 184.638C241.596 181.894 238.563 180.536 235.818 181.518C233.074 182.529 231.687 185.592 232.698 188.307L323.698 432.562C324.478 434.7 326.5 436 328.638 436Z" fill="#706F6F"/>
<path d="M182.029 405.436C182.925 405.436 183.849 405.204 184.658 404.742L295.967 340.465C298.509 338.991 299.375 335.785 297.902 333.242C296.429 330.729 293.222 329.834 290.68 331.307L179.371 395.584C176.829 397.058 175.962 400.264 177.436 402.807C178.418 404.511 180.18 405.464 182.029 405.464V405.436Z" fill="#706F6F"/>
<path d="M259.566 450.213C260.462 450.213 261.357 449.982 262.195 449.52L373.504 385.242C376.046 383.769 376.912 380.562 375.439 378.02C373.995 375.478 370.759 374.611 368.217 376.085L256.908 440.362C254.366 441.836 253.5 445.042 254.973 447.584C255.955 449.289 257.717 450.242 259.566 450.242V450.213Z" fill="#706F6F"/>
<path d="M224.235 585.846C226.575 585.846 228.742 584.257 229.349 581.888L333.955 180.334C338.751 161.99 330.604 142.548 314.166 133.043L281.897 114.41C275.455 110.683 267.829 110.192 260.953 113.081C254.078 115.941 249.08 121.719 247.202 128.941L141.585 534.453C140.862 537.284 142.538 540.173 145.369 540.895C148.171 541.617 151.089 539.942 151.811 537.111L257.429 131.599C258.469 127.612 261.242 124.434 265.026 122.845C268.811 121.257 273.029 121.517 276.611 123.597L308.88 142.23C321.186 149.337 327.311 163.925 323.729 177.705L219.122 579.26C218.4 582.091 220.076 584.98 222.907 585.702C223.34 585.817 223.802 585.875 224.235 585.875V585.846Z" fill="#575756"/>
<path d="M152.504 475.896L232.526 522.089L255.55 508.8V506.373L175.528 462.607L152.504 473.469V475.896Z" fill="#575756"/>
<path d="M152.504 473.469L232.526 519.662L255.55 506.373L175.528 460.18L152.504 473.469Z" fill="#878787"/>
<path d="M165.072 428.518L245.065 474.74L268.119 461.422V458.996L188.097 415.229L165.072 426.12V428.518Z" fill="#575756"/>
<path d="M165.072 426.12L245.065 472.313L268.119 458.995L188.097 412.802L165.072 426.12Z" fill="#878787"/>
<path d="M177.609 381.169L257.631 427.363L280.685 414.045V411.618L200.663 367.852L177.609 378.743V381.169Z" fill="#575756"/>
<path d="M177.609 378.743L257.631 424.936L280.685 411.618L200.663 365.425L177.609 378.743Z" fill="#878787"/>
<path d="M190.175 333.792L270.197 379.985L293.221 366.696V364.27L213.228 320.474L190.175 331.365V333.792Z" fill="#575756"/>
<path d="M190.175 331.365L270.197 377.558L293.221 364.269L213.228 318.076L190.175 331.365Z" fill="#878787"/>
<path d="M202.74 286.414L282.733 332.607L305.787 319.318V316.892L225.765 273.125L202.74 283.987V286.414Z" fill="#575756"/>
<path d="M202.74 283.987L282.733 330.18L305.787 316.891L225.765 270.698L202.74 283.987Z" fill="#878787"/>
<path d="M215.281 239.036L295.303 285.258L338.868 260.241V257.814L258.846 214.047L215.281 236.638V239.036Z" fill="#575756"/>
<path d="M215.281 236.638L295.303 282.831L338.868 257.814L258.846 211.621L215.281 236.638Z" fill="#878787"/>
<path d="M406.206 480.778C406.813 480.778 407.449 480.662 408.055 480.46C410.8 479.449 412.186 476.387 411.175 473.671L320.176 229.416C319.165 226.672 316.131 225.314 313.387 226.296C310.642 227.307 309.256 230.37 310.267 233.085L401.267 477.34C402.047 479.478 404.069 480.778 406.235 480.778H406.206Z" fill="#706F6F"/>
<path d="M224.235 585.846C226.575 585.846 228.742 584.257 229.348 581.888L324.624 216.041C325.346 213.209 323.67 210.321 320.839 209.598C318.008 208.876 315.119 210.552 314.397 213.383L219.122 579.231C218.4 582.062 220.075 584.951 222.906 585.673C223.34 585.788 223.802 585.846 224.235 585.846Z" fill="#575756"/>
<path d="M78.3172 646.224L88.2549 644.808L72.6838 536.475L62.7461 537.891L78.3172 646.224Z" fill="#A3773B"/>
<path d="M79.4727 643.999C77.6816 645.386 77.9416 647.206 80.0505 648.073C82.1594 648.91 85.3082 648.477 87.0704 647.061C88.8326 645.646 88.6015 643.855 86.4927 642.988C84.3838 642.122 81.2349 642.584 79.4727 643.999Z" fill="#A3773B"/>
<path d="M63.9023 535.666C62.1112 537.053 62.3713 538.873 64.4802 539.739C66.589 540.577 69.7379 540.144 71.5001 538.728C73.2623 537.313 73.0312 535.522 70.9223 534.655C68.8135 533.817 65.6646 534.251 63.9023 535.666Z" fill="#9D9D9C"/>
<path d="M82.3044 551.96C71.6155 552.335 61.8222 551.295 54.8889 545.691C52.26 540.607 50.7289 535.089 50.4111 529.109C51.9134 525.267 54.0511 522.204 56.9689 519.951L66.3866 518.622C68.4377 518.333 70.46 519.056 71.8755 520.558L77.6533 526.682L87.851 531.044L82.2755 551.989L82.3044 551.96Z" fill="#FFBB7D"/>
<path d="M114.141 420.111C111.31 422.394 108.623 425.051 107.179 428.402C105.561 432.129 105.59 436.434 106.399 440.42C107.468 445.793 109.894 450.936 113.592 454.922C117.839 459.487 123.559 462.405 129.394 464.629C133.583 466.218 138.061 467.547 142.539 467.056C148.923 466.362 154.412 462.145 158.687 457.349C162.963 452.553 166.43 447.036 170.965 442.471C165.39 439.958 158.399 435.769 154.123 431.378C149.847 426.987 148.143 422.249 143.087 418.811C138.032 415.345 131.792 413.12 125.754 414.189C121.421 414.969 117.55 417.338 114.141 420.082V420.111Z" fill="#FFBB7D"/>
<path d="M266.209 729.193C270.687 731.879 274.905 734.335 278.949 736.501C287.067 740.864 294.434 744.244 301.396 746.613C313.269 750.253 319.423 747.479 320.52 741.817C321.676 733.41 320.52 726.824 318.556 718.359L317.545 712.004L315.465 698.975L289.494 697.299H289.205L289.638 699.842V699.986L291.227 709.981L291.574 712.061L289.552 712.206L280.712 712.784L275.194 712.206C271.525 711.83 267.827 713.073 265.574 715.904C261.674 720.815 263.407 727.286 266.209 729.221V729.193Z" fill="#0A1214"/>
<path d="M196.473 766.228C209.878 774.259 221.231 780.066 231.66 783.648C236.571 785.15 240.5 785.526 243.475 785.092C247.693 784.457 250.12 782.117 250.726 778.795C251.94 770.388 250.726 763.801 248.762 755.337V737.541L236.455 736.097L221.26 734.277L221.693 745.804L221.837 749.039L210.975 749.761L205.4 749.183C201.789 748.808 198.091 750.108 195.838 752.939C191.938 757.85 193.613 764.321 196.473 766.257V766.228Z" fill="#0A1214"/>
<path d="M277.623 516.109C276.93 519.316 278.287 512.209 266.732 573.02L261.705 599.655L254.252 638.684C254.396 642.266 254.541 645.56 254.685 648.593C254.743 650.442 254.83 652.175 254.916 653.851C254.945 654.4 254.945 654.948 254.974 655.497C255.032 657.288 255.09 658.993 255.147 660.611C255.176 660.9 255.176 661.16 255.176 661.42C255.205 662.373 255.263 663.268 255.292 664.077C255.379 666.851 255.436 669.277 255.465 671.444C255.465 671.906 255.494 672.397 255.494 672.831C255.61 677.453 255.61 680.717 255.581 683.375C255.523 685.108 255.465 686.553 255.436 687.882V687.939C255.408 688.604 255.379 689.268 255.35 689.904C255.35 690.279 255.35 690.655 255.321 691.031C255.292 691.666 255.263 692.359 255.205 693.024C255.09 697.502 255.032 703.482 255.465 717.059C255.494 717.204 255.494 717.319 255.494 717.464C255.523 719.284 255.61 721.162 255.696 723.184C255.812 725.957 255.956 728.962 256.072 732.313V732.659C256.13 733.902 256.187 735.115 256.274 736.444C256.332 737.773 256.39 739.102 256.447 740.488C256.39 741.124 256.303 741.73 256.187 742.308C256.159 742.366 256.159 742.453 256.13 742.51C256.014 743.204 255.812 743.868 255.61 744.475C255.407 745.024 255.176 745.515 254.945 745.977C254.685 746.497 254.396 746.988 254.05 747.45C253.703 747.884 253.356 748.288 252.952 748.693C252.287 749.386 251.479 749.993 250.67 750.426C250.41 750.599 250.121 750.744 249.861 750.888C249.803 750.917 249.774 750.946 249.745 750.946C249.456 751.148 249.139 751.235 248.85 751.379C245.73 752.65 242.09 752.968 238.248 752.564H238.219C232.239 751.841 226.028 749.328 221.752 745.804H221.723C220.914 745.082 220.163 744.33 219.528 743.55C217.708 741.413 216.523 739.015 216.35 736.444C216.263 732.919 215.743 723.762 214.992 712.35C214.703 707.555 214.357 702.384 213.981 697.039C213.577 690.799 213.114 684.299 212.681 678.002C211.641 662.748 210.717 648.506 210.283 640.793C210.225 639.637 210.225 638.655 210.139 637.817C210.023 636.98 209.994 636.257 209.994 635.766C209.965 635.506 209.965 635.304 209.965 635.189C209.879 634.033 209.965 632.935 210.023 631.866C210.11 631.173 210.832 623.691 211.872 613.117C212.334 608.004 212.941 602.198 213.519 596.131C213.576 595.466 213.634 594.773 213.692 594.109C215.656 573.742 217.852 550.775 218.834 540.607C219.065 537.833 219.239 536.071 219.296 535.464C219.874 534.684 220.51 533.904 221.116 533.211C221.954 532.2 222.821 531.304 223.716 530.409C227.674 526.509 232.094 523.822 236.861 521.944C243.505 519.373 250.872 518.304 258.816 517.611C264.767 517.062 271.036 516.716 277.594 516.109H277.623Z" fill="#003BFF"/>
<path d="M236.888 521.973L258.237 572.875H258.294L261.703 599.655L264.881 624.557C267.712 639.088 272.999 673.495 282.908 700.246C283.861 703.655 286.461 706.746 289.985 709.086C290.419 709.433 290.852 709.721 291.285 709.953C299.259 714.806 310.814 716.395 317.603 711.975C321.59 709.433 323.959 704.666 322.89 697.27C320.81 687.564 310.727 630.393 306.452 610.373L304.054 561.724C306.972 548.118 310.063 509.089 288.801 495.251L236.945 521.973H236.888Z" fill="#003BFF"/>
<path opacity="0.3" d="M265.574 715.875C261.674 720.786 263.407 727.257 266.209 729.192C270.687 731.879 274.905 734.335 278.949 736.501C284.294 726.968 288.425 718.272 289.58 712.177L280.741 712.755L275.223 712.177C271.554 711.801 267.856 713.043 265.603 715.875H265.574Z" fill="#1D1D1B"/>
<path opacity="0.15" d="M236.484 736.068C236.629 742.366 237.351 747.595 238.217 752.564C240.037 762.819 242.724 771.659 243.504 785.064C247.722 784.428 250.149 782.088 250.755 778.766C251.969 770.359 250.755 763.772 248.791 755.308V751.408C253.009 749.733 256.013 746.266 256.446 740.546C253.037 666.966 257.746 713.102 254.222 638.713L261.675 599.655L264.853 624.557C267.684 639.088 272.971 673.495 282.88 700.246C283.833 703.655 286.433 706.746 289.957 709.086V708.739C289.9 705.793 289.813 702.875 289.668 699.928V699.784C289.611 698.975 289.582 698.108 289.524 697.242C288.657 684.155 286.78 671.126 285.855 658.039C282.966 617.537 282.591 592.549 291.72 551.093C291.864 550.429 292.008 549.735 292.153 549.013C291.951 549.591 291.72 550.111 291.488 550.66C286.057 563.486 276.726 571.373 266.731 572.962C263.928 573.453 261.097 573.395 258.266 572.818H258.209C255.609 572.298 253.009 571.315 250.524 569.871C254.135 592.289 245.873 607.571 241.626 623.142C240.24 628.14 238.824 633.282 239.402 638.482C239.922 643.046 245.757 670.375 241.857 688.777C237.293 710.328 236.051 724.744 236.484 736.01V736.068Z" fill="#1D1D1B"/>
<path d="M288.743 495.28L258.843 517.611L240.73 531.073L233.421 536.533L229.579 539.422L226.257 541.878H225.217C223.079 541.473 220.941 541.069 218.832 540.578C204.157 537.458 189.944 533.471 176.424 528.3C174.546 527.578 172.639 526.827 170.761 526.018C166.11 524.14 161.604 522.089 157.155 519.836C156.346 519.431 155.508 519.027 154.699 518.564C151.897 517.12 149.441 515.502 147.13 513.711C141.497 509.436 136.788 504.38 130.664 499.7C128.41 496.465 125.666 489.878 125.522 486.845C125.464 484.967 125.724 482.656 126.215 480.258C127.342 474.336 129.537 468.067 129.739 467.431C129.739 467.402 129.768 467.402 129.768 467.373C129.768 467.373 136.008 459.516 137.077 458.216C159.524 438.745 187.95 418.811 217.821 436.116L288.772 495.222L288.743 495.28Z" fill="#003BFF"/>
<path d="M135.951 411.04C133.119 409.567 123.731 406.418 116.248 410.376C110.904 413.207 105.935 417.627 103.451 423.145C100.966 428.633 100.475 432.649 100.591 438.687C100.648 441.547 101.14 450.936 111.106 451.86C107.004 444.089 108.593 442.009 112.926 443.078C117.924 446.14 123.124 445.909 128.237 448.798C130.519 450.069 132.946 451.369 135.575 451.196C138.146 451.022 140.948 447.7 142.71 445.851C144.473 444.002 145.946 441.836 147.795 440.102C149.759 438.282 151.955 436.145 154.526 435.422C155.479 435.133 156.606 434.787 157.646 434.585C157.675 432.389 151.233 418.956 135.951 411.069V411.04Z" fill="#0A1214"/>
<path d="M116.912 438.138C117.75 437.878 118.674 438.08 119.483 438.34C123.441 439.669 126.647 442.991 127.832 446.978C128.063 447.729 128.207 448.596 127.745 449.231C127.37 449.751 126.705 449.982 126.041 449.954C125.405 449.954 124.799 449.694 124.192 449.434C122.719 448.798 121.274 448.105 119.887 447.325C118.732 446.689 117.576 445.996 116.652 445.071C115.728 444.147 115.005 442.934 114.89 441.605C114.745 440.16 115.496 438.542 116.883 438.109L116.912 438.138Z" fill="#FFBB7D"/>
<path d="M176.83 513.393C176.83 515.011 176.772 516.6 176.686 518.189C176.657 518.94 176.628 519.749 176.599 520.5C176.512 523.1 176.368 525.729 176.397 528.329C174.606 528.155 172.843 527.867 171.052 527.52C166.488 526.653 161.952 525.353 157.446 523.562C157.157 523.447 156.839 523.331 156.55 523.187C153.315 521.858 150.108 520.24 147.017 518.333C140.026 514.144 133.353 508.54 127.315 501.375C125.033 498.14 123.386 495.251 122.433 492.362C121.739 490.224 121.421 488.116 121.508 485.92V485.718C121.768 480.373 124.455 474.711 129.684 467.489C129.684 467.46 129.713 467.46 129.713 467.431C130.406 467.576 131.128 467.807 131.793 468.009C139.564 470.522 147.133 473.758 154.326 477.658C161.952 481.789 169.464 487.047 173.335 494.76C176.223 500.451 176.859 507.009 176.801 513.364L176.83 513.393Z" fill="#F3EDEB"/>
<path d="M207.336 440.564C192.892 445.504 176.599 456.395 164.783 468.558C156.463 464.398 147.016 461.133 137.05 458.273C149.241 444.522 164.147 434.931 180.47 430.915C180.961 430.8 181.452 430.684 181.943 430.569C190.321 432.851 201.876 437.82 207.336 440.564Z" fill="#F3EDEB"/>
<path d="M160.364 501.751C159.959 503.946 159.555 506.084 159.179 508.193C158.428 512.295 157.735 516.166 157.099 519.835C156.897 520.962 156.724 522.06 156.521 523.157C152.564 546.153 150.224 560.279 144.446 564.382C137.108 569.611 81.4972 555.686 81.4972 555.686C80.1394 554.906 79.1572 552.884 78.5505 550.284C76.4994 541.155 79.6771 524.833 92.6193 528.704L119.197 531.102L121.508 485.891V485.689C122.201 483.117 123.877 481.355 126.188 480.286C136.733 475.289 160.161 485.371 160.392 501.751H160.364Z" fill="#F3EDEB"/>
<path opacity="0.15" d="M237.177 537.226C235.964 543.437 232.353 552.826 229.55 558.72C225.708 566.808 222.299 575.1 219.526 583.651C216.406 593.155 214.095 603.266 211.87 613.146C212.333 608.033 212.939 602.226 213.517 596.159C213.575 595.495 213.633 594.802 213.69 594.137C215.655 573.771 217.85 550.804 218.833 540.635C204.157 537.515 189.944 533.529 176.424 528.357C174.633 528.184 172.871 527.895 171.079 527.549C166.515 526.682 161.98 525.382 157.473 523.591C157.184 523.475 156.866 523.36 156.577 523.215C152.62 546.211 150.28 560.337 144.502 564.44C137.164 569.668 81.5531 555.744 81.5531 555.744C80.1953 554.964 79.2131 552.942 78.6064 550.342C85.0198 552.249 92.7908 552.422 98.8575 553.346C106.513 554.502 114.371 555.455 121.969 556.206C130.606 557.015 136.5 556.582 140.804 549.331C144.82 542.6 145.686 535.06 146.408 527.433C146.697 524.429 146.928 521.424 147.015 518.391C147.073 516.86 147.102 515.329 147.102 513.798C147.102 507.76 146.611 501.722 145.311 495.8C149.384 500.682 154.093 504.726 159.235 508.251C164.724 512.035 170.675 515.242 176.742 518.218C179.977 519.835 183.242 521.366 186.448 522.926C194.422 526.74 203.464 529.08 211.87 530.842C214.962 531.477 218.053 532.373 221.144 533.24C225.246 534.482 229.348 535.724 233.45 536.591C234.721 536.851 235.964 537.082 237.235 537.255L237.177 537.226Z" fill="#1D1D1B"/>
<path d="M60.4062 524.14L70.344 522.696L67.7151 503.802L57.7773 505.218L60.4062 524.14Z" fill="#A3773B"/>
<path d="M61.5635 521.887C59.7724 523.274 60.0324 525.094 62.1413 525.96C64.2501 526.798 67.3991 526.365 69.1613 524.949C70.9524 523.562 70.6924 521.742 68.5835 520.876C66.4746 520.038 63.3257 520.471 61.5635 521.887Z" fill="#A3773B"/>
<path d="M58.9346 502.965C57.1435 504.351 57.4035 506.171 59.5124 507.038C61.6213 507.876 64.7701 507.442 66.5323 506.027C68.3234 504.64 68.0635 502.82 65.9546 501.953C63.8457 501.116 60.6968 501.549 58.9346 502.965Z" fill="#F3EDEB"/>
<path d="M372.81 675.662C372.926 676.702 373.099 677.771 373.33 678.84C373.417 678.926 373.446 678.984 373.532 679.042C373.763 679.331 373.995 679.562 374.226 679.822C375.15 680.775 376.075 681.642 377.028 682.48C378.501 683.722 380.061 684.791 381.65 685.715C382.199 686.004 382.748 686.293 383.297 686.553C383.383 686.611 383.499 686.668 383.586 686.697C383.817 686.813 384.048 686.928 384.308 687.015C384.51 687.131 384.741 687.188 384.943 687.275C385.001 687.304 385.03 687.333 385.059 687.333C385.579 687.564 386.099 687.737 386.648 687.911C387.168 688.084 387.659 688.228 388.15 688.373C388.15 688.373 388.237 688.431 388.295 688.431C388.555 688.517 388.815 688.575 389.103 688.633C389.363 688.72 389.623 688.777 389.912 688.806C390.028 688.864 390.172 688.893 390.317 688.893C390.375 688.893 390.403 688.922 390.461 688.893C390.721 688.98 391.039 689.008 391.299 689.037C391.588 689.095 391.877 689.124 392.166 689.153C392.339 689.153 392.512 689.182 392.715 689.211C393.408 689.297 394.13 689.355 394.881 689.384C395.026 689.384 395.17 689.384 395.315 689.384C395.748 689.384 396.181 689.384 396.643 689.384H396.788C399.446 687.188 402.046 685.166 404.617 683.404C410.163 679.533 415.479 676.644 420.506 674.997C420.534 674.997 420.621 674.997 420.65 674.968C421.488 674.708 422.326 674.477 423.163 674.275L421.661 667.14L420.621 662.228C420.043 659.513 418.397 657.115 415.999 655.7C403.432 648.304 390.866 648.68 378.357 658.242C373.677 662.922 372.001 668.786 372.781 675.633L372.81 675.662Z" fill="#003BFF"/>
<path d="M385.03 687.333C385.03 687.333 398.637 694.006 405.512 697.993C408.43 699.697 413.37 700.391 416.259 697.415C416.432 697.242 416.606 697.068 416.808 696.895C419.003 694.844 422.412 692.648 426.168 690.944C426.283 690.886 426.37 690.857 426.486 690.799C429.172 689.615 432.003 688.691 434.632 688.286C436.943 687.911 439.168 687.911 440.988 688.488C441.392 688.604 441.595 687.968 441.248 687.708C438.85 685.802 432.148 681.208 430.01 679.446C426.688 676.702 423.972 674.708 423.164 674.362C409.846 668.411 392.05 687.217 385.03 687.391V687.333Z" fill="#0437DD"/>
<path d="M624.43 646.079L547.788 690.308L471.175 646.079L547.788 601.822L624.43 646.079Z" fill="#DADBC0"/>
<path d="M547.788 629.988L598.517 659.282L621.396 646.079L547.788 603.555L474.208 646.079L497.088 659.282L547.788 629.988Z" fill="#3D6282"/>
<path d="M558.159 708.941L481.517 664.683L471.175 646.079L547.788 690.308L558.159 708.941Z" fill="#5386B1"/>
<path d="M558.158 708.941L616.86 675.112L624.429 646.079L547.787 690.308L558.158 708.941Z" fill="#477296"/>
<path d="M547.789 688.575L610.998 652.059L547.789 615.573L484.609 652.059L547.789 688.575Z" fill="#F3F3F3"/>
<path d="M650 43.6035V601.966L508.271 520.124L467.538 496.609L459.825 492.16L426.747 473.064L414.643 466.073L407.305 461.827L406.294 461.249V-97.085L508.271 -38.2096L650 43.6035Z" fill="#CFEDD9"/>
<path d="M650 43.6035V111.868C647.689 112.503 645.291 112.908 642.893 112.994C642.691 113.023 642.518 113.023 642.315 113.023H642.055C631.424 113.081 620.851 107.592 610.48 110.048C610.422 110.048 610.393 110.048 610.335 110.048C605.598 111.203 601.495 113.89 598.058 117.385C595.227 120.217 592.829 123.625 590.864 127.092C586.444 134.834 583.584 143.414 578.818 150.983C577.547 152.948 576.131 154.912 574.08 156.068C570.44 158.119 565.962 157.165 561.773 157.108C560.156 157.108 558.567 157.223 556.978 157.541C556.342 157.628 555.736 157.772 555.1 157.945C554.956 157.974 554.782 158.032 554.638 158.061C551.893 158.841 549.236 160.054 546.867 161.643C544.325 163.348 542.071 165.456 540.28 167.941C540.165 168.114 540.02 168.288 539.905 168.49C537.045 172.621 535.282 177.532 533.462 182.327C531.094 188.452 528.609 194.345 523.438 198.101C519.249 201.192 514.251 202.145 509.023 202.636C508.763 202.665 508.531 202.665 508.271 202.694C508.214 202.694 508.156 202.694 508.098 202.694C501.54 203.185 494.694 203.07 488.656 205.439C484.9 206.912 481.809 209.136 479.123 211.881C478.487 212.516 477.909 213.181 477.331 213.845C472.218 219.854 468.636 227.712 464.649 235.252C463.58 237.303 462.454 239.296 461.298 241.261C460.865 241.983 460.432 242.676 459.969 243.369C458.612 245.449 457.167 247.443 455.578 249.263C444.658 261.829 427.036 266.625 410.396 266.509H410.223C409.183 266.509 408.114 266.452 407.045 266.394C406.785 266.394 406.554 266.394 406.294 266.336V-97.085L508.271 -38.2096L650 43.6035Z" fill="#415969"/>
<path d="M508.271 -38.2096L406.294 -97.085V461.249L508.271 520.124V-38.2096Z" fill="#F3F3F3"/>
<path d="M649.998 43.5457V111.868C647.687 112.503 645.289 112.908 642.892 112.994C642.689 113.023 642.516 113.023 642.314 113.023H642.054C631.423 113.081 620.85 107.592 610.478 110.048C610.421 110.048 610.392 110.048 610.334 110.048C604.296 111.55 598.374 107.448 598.085 101.323C598.056 101.179 598.056 101.006 598.056 100.832V87.5723H598.027L594.387 86.3589L589.91 84.8567L555.792 73.5323L542.07 68.9968L537.448 67.4657L533.663 66.1946V174.181C533.288 175.163 533.288 178.081 533.461 182.328C533.808 190.041 534.79 202.059 535.252 214.365C535.425 218.727 535.541 223.119 535.541 227.365C535.57 246.634 533.316 263.043 524.216 260.096C518.352 258.218 516.128 249.465 515.059 239.383C514.885 237.852 514.77 236.263 514.654 234.674C513.528 219.421 514.221 203.041 509.05 203.041C508.848 203.041 508.674 203.041 508.472 203.099C508.414 203.099 508.328 203.127 508.27 203.127C508.154 203.185 508.01 203.214 507.865 203.272C500.557 206.132 492.323 212.256 484.321 219.421C478.341 224.765 472.477 230.687 467.248 236.292C465.254 238.43 463.348 240.51 461.586 242.503C461.008 243.138 460.459 243.774 459.91 244.381C458.35 246.114 456.906 247.761 455.577 249.292C444.657 261.858 427.035 266.654 410.395 266.538H410.221C409.181 266.538 408.112 266.481 407.044 266.423C406.784 266.423 406.552 266.423 406.292 266.365L403.981 234.501L403.201 223.465L402.075 207.836L401.439 198.996V198.939L399.504 172.101L398.781 161.99L397.857 149.308L397.481 144.021V143.963L376.248 -150.385L649.998 43.5169V43.5457Z" fill="#415969"/>
<path d="M650 105.685V127.554C641.593 127.496 643.442 117.674 642.893 112.994C642.835 112.388 642.72 111.839 642.518 111.434C642.431 111.81 642.373 112.359 642.315 113.023C642.026 116.403 641.593 122.759 637.231 122.73C632.146 122.73 632.204 117.183 631.627 120.419C630.529 126.688 630.847 128.999 630.442 133.303C630.211 135.788 629.489 138.908 627.004 139.37C625.358 139.716 623.682 138.474 622.931 136.972C622.18 135.441 622.122 133.679 622.093 131.974C621.978 127.554 621.891 123.134 621.775 118.714C621.747 117.154 621.053 115.045 619.551 115.363C618.684 118.079 619.551 121.054 619.262 123.885C619.002 126.745 616.633 129.923 613.889 129.085C611.549 128.363 610.942 125.301 611.116 122.845C611.289 120.39 611.722 117.616 610.162 115.71C606.089 114.988 609.989 117.761 607.793 136.423C607.476 139.139 606.233 142.461 603.518 142.461C598.838 142.461 598.115 138.099 598.058 135.268C597.913 129.403 597.971 123.423 598.058 117.414C598.115 112.041 598.173 106.639 598.087 101.352C598.087 100.832 598.087 100.312 598.058 99.821V98.4054C598.058 95.0255 598.982 92.281 601.495 89.9699C604.442 87.2544 609.093 87.9477 612.993 88.9877C625.242 92.281 637.029 97.2788 647.92 103.837C648.671 104.27 649.451 104.761 649.913 105.512L650 105.685Z" fill="#F3F3F3"/>
<path d="M554.809 147.228L559.142 142.779C556.831 140.728 555.213 138.677 553.827 137.059C553.076 136.308 552.093 135.846 551.053 135.672C548.165 135.21 542.502 134.632 541.954 137.001C541.202 140.179 549.291 140.901 549.291 140.901C551.66 143.443 553.653 145.841 554.809 147.257V147.228Z" fill="#E6A871"/>
<path d="M553.796 151.33L558.13 146.881C555.819 144.83 554.201 142.779 552.814 141.161C552.063 140.41 551.081 139.948 550.041 139.774C547.152 139.312 541.49 138.734 540.941 141.103C540.19 144.281 548.279 145.003 548.279 145.003C550.648 147.545 552.641 149.943 553.796 151.359V151.33Z" fill="#E6A871"/>
<path d="M561.338 146.043C561.482 146.679 561.598 147.401 561.396 148.21C561.222 148.961 560.558 149.654 560.038 150.348C559.749 150.694 559.489 151.099 559.373 151.446C559.258 151.734 559.316 151.966 559.373 152.283C559.431 152.659 559.46 153.15 559.171 153.93C559.113 154.103 558.969 154.248 558.825 154.479C558.276 155.201 557.265 156.154 557.178 156.703C557.178 156.906 557.12 157.079 557.062 157.252C556.745 158.812 555.993 159.881 554.694 160.69C552.036 162.683 548.887 164.388 545.536 165.948C541.809 167.739 537.794 169.386 533.894 171.206L533.431 170.223L530.022 163.29L528.434 160.026L530.398 157.974L534.731 153.352L537.678 150.232L543.08 144.483C543.282 144.483 543.427 144.426 543.629 144.368C543.976 144.281 544.322 144.194 544.669 144.108C546.691 143.559 548.656 142.808 550.62 141.941C552.065 141.334 553.538 140.641 555.011 139.948L551.805 136.51L551.573 136.279C551.573 136.279 549.234 136.077 547.211 135.412C546.345 135.123 545.507 134.719 544.958 134.257C544.38 133.766 544.091 133.159 544.236 132.408C544.756 130.155 549.985 130.559 552.96 131.021C553.105 131.021 553.22 131.021 553.336 131.079C554.376 131.252 555.358 131.715 556.109 132.466C556.427 132.841 556.773 133.246 557.091 133.65C558.391 135.181 559.922 136.972 562.002 138.706C563.851 141.103 562.118 142.577 561.193 144.137C561.193 144.137 561.193 144.194 561.193 144.223C560.962 144.714 561.193 145.292 561.309 146.043H561.338Z" fill="#FFBB7D"/>
<path d="M548.772 145.957L538.084 158.35L535.252 161.672L532.248 165.139L531.035 162.105L529.966 159.505C530.11 158.985 530.255 158.465 530.37 157.945C531.468 153.728 532.19 149.308 532.421 144.945C532.479 144.252 532.652 142.548 533.461 141.161C535.166 138.157 535.224 135.499 535.166 132.697C534.964 131.483 535.946 129.432 537.968 129.519C538.17 129.519 538.315 129.577 538.488 129.605C540.106 130.068 540.568 132.437 540.568 135.181V135.557C540.568 135.845 540.568 136.134 540.568 136.423C540.568 136.972 540.51 137.55 540.452 138.099C540.886 141.017 542.532 142.837 544.67 144.108C545.248 144.454 545.884 144.801 546.548 145.061C547.27 145.379 548.021 145.697 548.772 145.928V145.957Z" fill="#FFBB7D"/>
<path opacity="0.1" d="M557.322 147.574C558.68 146.534 559.98 145.436 561.222 144.252C561.02 144.714 561.193 145.321 561.338 146.043C561.136 146.101 560.818 146.188 560.038 146.39C558.998 146.679 558.218 146.967 557.322 147.574Z" fill="#1D1D1B"/>
<path opacity="0.1" d="M556.341 153.352C556.976 152.197 558.796 151.041 560.039 150.348C559.75 150.723 559.49 151.07 559.374 151.445C559.288 151.734 559.316 151.965 559.374 152.283C558.276 152.283 557.207 152.688 556.341 153.352Z" fill="#1D1D1B"/>
<path opacity="0.1" d="M554.434 158.263C555.908 157.107 557.236 155.461 558.854 154.479C558.305 155.201 557.265 156.154 557.179 156.732C557.179 156.934 557.121 157.107 557.063 157.281C556.139 157.512 555.243 157.83 554.405 158.263H554.434Z" fill="#1D1D1B"/>
<path opacity="0.3" d="M416.058 542.571C419.813 547.28 418.138 553.52 415.451 555.368C411.147 557.968 407.073 560.308 403.202 562.388C398.06 553.231 394.102 544.882 392.976 538.989L401.469 539.537L406.784 538.989C410.309 538.613 413.862 539.826 416.029 542.542L416.058 542.571Z" fill="#1D1D1B"/>
<path d="M549.928 118.425C546.981 117.79 544.034 119.697 543.399 122.672L540.568 136.423C540.568 136.972 540.51 137.55 540.452 138.099C540.885 141.016 542.532 142.836 544.67 144.108C546.692 143.559 548.657 142.808 550.621 141.941L551.806 136.51L552.961 131.05L554.145 124.983C554.781 121.979 552.874 119.061 549.899 118.454L549.928 118.425Z" fill="#4D3D4F"/>
<path d="M379.773 373.976V376.98L379.802 377.124L379.86 382.382L381.16 388.218L384.251 392.869C385.926 394.804 387.66 394.66 388.411 393.533C388.902 392.811 388.96 391.656 388.266 390.442L386.042 386.744L385.262 380.88V372.387H385.117L383.182 372.993L379.744 373.976H379.773Z" fill="#FFBB7D"/>
<path d="M375.267 376.547V383.74L376.075 390.442L379.744 395.96C381.593 398.127 383.529 397.693 384.107 396.249C384.395 395.527 384.338 394.573 383.76 393.533L380.958 388.853L380.871 382.845L381.131 375.16L375.267 376.547Z" fill="#FFBB7D"/>
<path d="M370.24 385.126L371.453 392.031L374.371 397.404C375.526 398.993 377.173 398.82 377.982 397.895C378.473 397.346 378.646 396.538 378.271 395.7L376.307 390.76L375.786 384.751L376.307 377.211L370.587 377.962L370.471 380.042L370.211 385.126H370.24Z" fill="#FFBB7D"/>
<path d="M365.298 376.229C365.414 377.067 365.674 378.049 366.31 378.8C366.541 379.06 366.801 379.291 367.118 379.493C367.956 380.042 369.17 380.331 370.903 380.158C371.163 380.158 371.394 380.1 371.625 380.071C374.485 379.32 377.374 378.309 379.801 377.153C381.447 376.373 382.863 375.478 383.932 374.582C384.221 374.293 384.538 374.033 384.77 373.744C384.77 373.744 384.769 373.744 384.827 373.744C384.972 373.571 385.145 373.369 385.289 373.196L385.145 372.502L384.163 367.418L379.801 345.145L369.372 348.756L368.187 349.073L368.361 357.624C364.894 361.149 365.154 368.602 365.327 376.316L365.298 376.229Z" fill="#FFBB7D"/>
<path d="M365.3 376.229L366.196 385.069L367.207 390.269L369.547 394.718C370.269 395.902 371.511 395.931 372.263 395.353C372.754 394.978 373.043 394.371 372.84 393.707L371.569 389.518L370.616 385.213L370.905 380.187V379.58L366.629 377.038L365.271 376.229H365.3Z" fill="#FFBB7D"/>
<path d="M378.645 363.518C379.454 367.389 381.188 370.653 384.654 372.387L385.665 378.598C386.185 380.1 386.937 381.978 388.294 382.844C388.988 383.48 390.057 383.278 390.808 382.584C391.414 382.007 391.79 381.111 391.559 380.1L390.75 377.529L389.565 372.416L389.652 364.182C387.457 358.376 384.828 354.273 381.968 353.06L381.852 344.596L378.385 345.462C378.212 350.951 377.49 357.913 378.674 363.518H378.645Z" fill="#FFBB7D"/>
<path d="M359.58 272.027C358.771 275.465 358.367 278.989 358.424 282.542C358.684 299.211 361.833 320.964 365.271 355.053C367.409 365.049 387.4 364.789 388.151 355.342C390.982 319.347 386.851 371.895 393.64 285.2L397.222 262.176L398.609 253.105L399.129 249.782L400.602 240.191L403.78 219.796C407.853 197.407 376.855 192.987 372.349 217.485L368.189 235.28L366.138 244.178L365.473 247.067L363.422 255.849L359.638 272.027H359.58Z" fill="#F3EDEB"/>
<path d="M415.451 555.368C411.146 557.968 407.073 560.308 403.202 562.388C395.402 566.606 388.324 569.842 381.622 572.095C370.211 575.62 364.288 572.933 363.22 567.473C362.122 559.384 363.22 553.057 365.126 544.911L366.108 538.815L368.102 526.277L393.062 524.66H393.351L392.946 527.115V527.26L391.415 536.88L391.097 538.873L393.033 539.017L401.526 539.566L406.842 539.017C410.366 538.642 413.919 539.855 416.086 542.571C419.842 547.28 418.166 553.52 415.479 555.368H415.451Z" fill="#0A1214"/>
<path d="M482.472 590.959C469.588 598.673 458.668 604.277 448.643 607.686C443.934 609.131 440.15 609.477 437.261 609.073C433.188 608.466 430.877 606.213 430.27 603.006C429.114 594.917 430.27 588.59 432.177 580.444V563.342L444.021 561.955L458.639 560.193L458.234 571.286L458.09 574.377L468.548 575.071L473.921 574.522C477.388 574.146 480.941 575.388 483.108 578.133C486.863 582.842 485.245 589.082 482.501 590.931L482.472 590.959Z" fill="#0A1214"/>
<path d="M469.531 464.918C469.531 465.438 469.473 466.275 469.415 467.46C468.577 482.626 463.666 551.237 463.406 562.36C463.175 565.711 461.182 568.773 458.235 571.286C455.693 573.511 452.284 575.273 448.702 576.457C446.651 577.151 444.513 577.584 442.346 577.815C438.706 578.219 435.124 577.931 432.177 576.746C428.133 575.099 425.244 571.806 424.84 566.288C428.133 495.511 423.598 539.884 426.949 468.384L419.784 430.858L414.96 405.233L404.906 352.656L404.56 350.951L404.502 350.547L414.035 351.356H414.093L415.682 351.529L421.084 351.934L444.831 353.985L448.76 354.331L450.06 354.447L454.826 354.851L456.473 355.025L459.246 355.256L459.535 358.318L459.766 360.369L459.882 361.785L459.997 363.085L460.171 364.5L460.286 365.8L460.46 367.216L460.691 369.873L469.444 461.827C469.56 462.838 469.617 463.935 469.56 464.946L469.531 464.918Z" fill="#003BFF"/>
<path d="M429.489 355.053L428.969 359.04L423.105 405.089H423.047L419.754 430.828L416.692 454.777C413.976 468.731 408.892 501.837 399.358 527.548C398.434 530.841 395.949 533.788 392.569 536.041C392.165 536.359 391.732 536.648 391.327 536.879C383.643 541.559 372.549 543.061 366.05 538.815C362.207 536.359 359.954 531.795 360.965 524.659C362.958 515.328 372.665 460.353 376.767 441.113L379.078 394.342C378.934 393.706 378.847 393.042 378.789 392.406C378.154 388.795 377.721 385.069 377.49 381.226V380.706C377.432 379.637 377.403 378.569 377.345 377.529C377.345 376.835 377.287 376.2 377.287 375.535C377.201 371.144 377.287 366.753 377.663 362.506C377.721 361.813 377.75 361.12 377.836 360.426C377.981 358.635 378.154 356.873 378.385 355.111C379.252 348.495 380.609 342.458 382.314 337.575V337.518L389.247 340.118L390.576 340.638L397.972 343.353L414.9 349.651L420.996 351.904L429.403 355.053H429.489Z" fill="#003BFF"/>
<path d="M484.812 217.023C483.049 225.371 481.518 233.431 480.103 241.26C479.814 242.734 479.583 244.265 479.352 245.738C479.005 247.789 478.658 249.782 478.34 251.747C478.167 252.7 478.052 253.682 477.878 254.636C477.474 257.294 477.069 259.865 476.694 262.465C475.683 269.167 474.816 275.58 473.978 281.705C469.154 317.324 459.447 354.967 459.274 355.14C458.523 355.833 454.103 355.833 449.221 355.978C447.516 356.035 445.754 356.093 444.107 356.209C432.638 356.96 417.472 355.255 404.587 350.864C395.285 347.744 387.139 343.324 382.43 337.46C379.772 334.109 378.963 317.873 379.367 314.118C379.367 260.442 375.381 207.923 389.594 200.874C391.414 200.527 394.592 200.007 398.058 199.458C405.512 198.274 414.236 196.945 414.236 196.945C414.236 196.945 433.476 198.996 443.472 201.827C450.925 205.063 456.587 206.883 462.452 208.76C466.612 210.003 470.8 211.303 475.683 213.18C478.456 214.191 481.489 215.463 484.84 216.936L484.812 217.023Z" fill="#003BFF"/>
<path d="M547.791 179.872C547.271 183.512 546.491 187.874 545.336 193.045C543.458 201.625 540.569 212.401 536.236 225.805C534.647 230.572 529.707 231.987 525.171 234.27C507.896 242.907 493.827 250.736 479.122 254.434C478.66 254.549 478.285 254.607 477.88 254.665C475.54 255.127 473.402 254.954 471.467 254.318C464.071 252.036 460.171 242.907 460.662 233.75C461.125 224.996 465.66 216.214 475.194 213.412C475.367 213.354 475.54 213.296 475.656 213.238C480.249 211.419 484.005 210.061 487.24 208.934C495.069 206.219 500.356 204.947 507.867 203.243C513.76 189.319 523.611 170.136 528.378 158.725C533.896 153.265 548.022 157.974 548.773 166.063C548.947 168.172 548.889 172.534 547.82 179.872H547.791Z" fill="#F3EDEB"/>
<path opacity="0.15" d="M444.108 386.744C441.363 388.333 411.579 404.338 385.29 372.387C390.519 385.964 397.51 391.309 409.586 396.913C410.597 417.395 412.07 440.044 404.501 477.513C400.63 496.724 393.061 508.655 392.628 535.695V536.013C396.008 533.76 398.492 530.784 399.417 527.52C408.95 501.809 414.034 468.702 416.75 454.749L419.812 430.8L416.259 398.589C421.892 398.242 432.957 397.376 444.108 386.716V386.744Z" fill="#1D1D1B"/>
<path opacity="0.15" d="M410.106 316.602C410.511 328.909 411.32 341.504 416.231 352.771C410.655 348.871 404.386 345.953 397.8 344.162C410.02 310.853 401.555 272.98 412.129 239.123C409.962 264.891 409.297 290.776 410.106 316.602Z" fill="#1D1D1B"/>
<path d="M462.452 208.818C451.937 212.689 445.35 225.689 444.397 241.492L391.068 232.305C389.739 221.125 392.888 206.218 398.03 199.545C405.455 198.361 414.208 197.032 414.208 197.032C414.208 197.032 432.495 198.389 442.432 201.249C449.857 204.485 456.588 206.969 462.423 208.847L462.452 208.818Z" fill="#F3EDEB"/>
<path d="M480.104 241.26C479.816 242.734 479.584 244.265 479.353 245.738C479.007 247.789 478.66 249.782 478.342 251.747C478.169 252.7 478.053 253.682 477.88 254.636C477.476 257.293 477.071 259.865 476.696 262.465C475.684 269.167 474.818 275.58 473.98 281.705C472.218 281.589 470.629 281.242 469.271 280.578C460.027 276.533 458.322 261.28 460.633 233.72H460.691L480.104 241.231V241.26Z" fill="#F3EDEB"/>
<path d="M419.609 146.534C420.072 146.245 435.7 134.632 435.7 134.632C443.616 126.543 460.227 126.572 466.12 133.852C468.431 136.712 467.883 142.143 461.296 144.57L447.343 150.81L419.609 146.563V146.534Z" fill="#0437DD"/>
<path d="M413.632 168.663C414.556 172.881 415.51 177.127 417.156 181.114C418.803 185.1 421.201 188.885 424.61 191.543C428.452 194.518 433.478 195.876 438.303 195.327C439.805 195.183 441.307 194.836 442.723 194.287C444.138 193.738 445.525 193.016 446.594 191.947C448.269 190.243 448.963 187.903 449.367 185.534C449.454 185.014 449.541 184.465 449.598 183.945C451.043 171.841 449.541 159.505 446.796 147.603C446.392 145.841 445.929 144.05 445.092 142.461C442.607 137.723 436.916 135.267 431.543 135.47C426.198 135.672 421.172 138.156 416.752 141.218C415.538 142.056 414.354 142.952 413.458 144.136C412.621 145.263 412.101 146.592 411.35 147.776C410.425 149.25 412.187 162.336 413.603 168.663H413.632Z" fill="#FFBB7D"/>
<path opacity="0.1" d="M435.729 185.476C436.134 188.047 436.625 190.589 437.116 193.16C437.232 193.709 437.318 194.287 437.636 194.749C437.809 195.009 438.041 195.212 438.272 195.356C439.774 195.212 441.276 194.865 442.692 194.316C444.107 193.767 445.494 193.045 446.563 191.976C448.238 190.272 448.932 187.932 449.336 185.563C445.176 191.138 441.334 187.614 437.954 174.238C438.156 180.738 434.661 179.092 435.701 185.505L435.729 185.476Z" fill="#1D1D1B"/>
<path d="M436.06 162.649L406.277 167.584L412.663 206.117L442.446 201.181L436.06 162.649Z" fill="#FFBB7D"/>
<path d="M415.769 198.303C410.511 202.636 411.407 208.096 417.791 210.494C424.175 212.891 433.622 211.331 438.909 206.998C444.195 202.665 443.271 197.205 436.887 194.807C430.502 192.409 421.055 193.969 415.769 198.303Z" fill="#FFBB7D"/>
<path d="M441.075 151.3C437.117 154.565 435.933 159.678 436.308 164.792C436.684 169.905 438.273 174.903 438.648 180.016C439.024 185.129 437.955 190.791 433.997 194.114C431.253 196.425 427.555 197.205 424.002 197.754C419.35 198.476 413.168 199.227 410.684 195.211C377.866 142.201 413.197 132.378 417.357 131.309C432.062 127.554 445.177 135.932 446.679 146.765C446.968 148.874 442.433 150.145 441.075 151.272V151.3Z" fill="#0A1214"/>
<path d="M434.805 162.914C436.452 162.682 437.896 163.982 438.618 165.34C439.543 167.045 439.803 168.951 440.091 170.829C440.438 173.227 440.756 175.711 439.947 178.022C439.716 178.629 439.398 179.265 438.792 179.611C437.896 180.131 436.654 179.842 435.874 179.178C435.094 178.513 434.689 177.589 434.343 176.665C433.332 174.007 432.609 171.262 432.234 168.489C432.06 167.362 431.974 166.207 432.32 165.138C432.696 164.069 433.62 163.087 434.834 162.914H434.805Z" fill="#FFBB7D"/>
<path d="M439.804 128.652C435.471 123.654 426.082 123.134 419.351 125.214C406.813 129.085 397.886 135.383 396.673 148.672C396.384 151.907 396.009 154.247 396.789 159.996C397.135 162.452 403.028 163.376 405.455 163.405C437.724 163.521 447.402 147.112 446.795 145.234C445.437 141.103 442.664 131.916 439.833 128.652H439.804Z" fill="#003BFF"/>
<path d="M436.049 156.558L461.298 144.57L445.438 141.161C445.929 145.985 440.815 152.601 436.049 156.587V156.558Z" fill="#0437DD"/>
<path d="M533.664 66.2232C533.664 68.4188 534.415 69.9788 535.657 70.6432C535.744 70.7299 535.802 70.7588 535.888 70.7876C537.102 71.3654 538.691 71.221 540.453 70.181C541.84 69.401 543.111 68.1877 544.122 66.7721C546 64.2588 547.242 61.081 547.242 58.2788C547.242 56.0832 546.491 54.5233 545.248 53.8299C544.006 53.1366 542.331 53.2233 540.453 54.321C538.084 55.7366 535.946 58.3944 534.762 61.2832C534.068 62.9299 533.664 64.6343 533.664 66.2232Z" fill="#DADADA"/>
<path d="M535.659 70.6434V70.7011L535.89 70.8167L586.446 100.312L590.259 93.6388L596.066 83.4411L545.25 53.8301L539.415 64.0278L535.659 70.6434Z" fill="#DADADA"/>
<path d="M584.451 95.8342C584.451 98.0297 585.202 99.5897 586.445 100.254C587.687 100.976 589.362 100.89 591.24 99.7919C595.024 97.5964 598.058 92.2519 598.058 87.8897C598.058 83.5275 595.024 81.7364 591.24 83.932C588.842 85.3475 586.733 87.9764 585.549 90.8942C584.856 92.5408 584.451 94.2453 584.451 95.8342Z" fill="#9D9D9C"/>
<path d="M549.639 123.134C549.639 123.134 549.437 123.134 549.322 123.105C548.571 122.932 548.137 122.181 548.31 121.459L551.546 107.968C552.413 104.414 555.822 101.988 559.433 102.334L582.544 104.472C584.364 104.674 586.068 103.577 586.704 101.872L590.719 91.2699C590.979 90.5477 591.788 90.201 592.481 90.461C593.204 90.721 593.55 91.5299 593.29 92.2232L589.275 102.825C588.177 105.685 585.288 107.448 582.284 107.188L559.173 105.05C556.919 104.819 554.753 106.35 554.233 108.574L550.997 122.065C550.853 122.701 550.275 123.105 549.668 123.105L549.639 123.134Z" fill="#F3EDEB"/>
<path opacity="0.15" d="M547.79 179.872C547.27 183.512 546.49 187.874 545.335 193.045C543.457 201.625 540.568 212.4 536.235 225.805C534.646 230.571 529.706 231.987 525.17 234.269C507.895 242.907 493.826 250.736 479.122 254.434C478.659 254.549 478.284 254.607 477.879 254.665C477.475 257.323 477.07 259.894 476.695 262.494C475.684 269.196 474.817 275.609 473.979 281.734C469.155 317.353 459.448 354.996 459.275 355.169L459.564 358.231L459.795 360.282L459.911 361.698L460.026 362.998L460.199 364.413L460.315 365.713L460.488 367.129L460.719 369.787L469.473 461.74C469.588 462.751 469.646 463.849 469.588 464.86C469.588 465.38 469.531 466.217 469.473 467.402C468.635 482.568 463.724 551.179 463.464 562.302C463.233 565.653 461.239 568.715 458.293 571.228C455.751 573.453 452.342 575.215 448.759 576.399C460.113 535.406 464.157 496.897 455.462 462.751C456.819 425.542 458.639 389.489 449.279 355.978C449.106 355.342 448.933 354.793 448.817 354.216C448.413 352.973 448.008 351.702 447.633 350.46C457.628 330.873 465.63 305.885 469.328 280.549C470.628 271.738 471.379 262.898 471.553 254.26C471.611 251.14 471.61 248.02 471.495 244.958C474.153 245.42 476.839 245.709 479.439 245.709C496.599 245.998 512.777 237.591 528.521 224.765C537.679 213.065 543.804 197.667 547.877 179.843L547.79 179.872Z" fill="#1D1D1B"/>
<path d="M562.523 620.686C560.327 618.259 560.53 614.475 562.956 612.279L581.85 595.148C589.909 588.764 595.167 598.557 591.007 602.977L580.521 612.655L576.014 616.699L570.958 621.091C568.474 623.315 564.718 623.113 562.523 620.657V620.686Z" fill="#244146"/>
<path d="M504.687 633.715C506.738 632.53 508.616 632.386 509.916 633.195C510.06 633.224 510.118 633.281 510.175 633.339C511.36 634.148 512.111 635.737 512.082 637.961C512.082 639.695 511.649 641.544 510.869 643.277C509.54 646.397 507.229 649.286 504.571 650.788C502.52 651.973 500.642 652.117 499.313 651.337C497.984 650.557 497.147 648.91 497.176 646.57C497.176 643.566 498.562 640.157 500.613 637.442C501.798 635.91 503.184 634.61 504.658 633.744L504.687 633.715Z" fill="#CC513B"/>
<path d="M509.916 633.195L509.945 633.166L510.176 633.339L565.295 664.828L561.107 672.021L554.693 682.999L499.313 651.337L505.727 640.33L509.916 633.195Z" fill="#CC513B"/>
<path d="M560.038 665.377C562.089 664.193 563.967 664.048 565.267 664.857C566.624 665.608 567.462 667.255 567.433 669.624C567.433 674.361 564.053 680.11 559.951 682.479C555.82 684.877 552.498 682.97 552.527 678.232C552.527 675.228 553.913 671.819 555.964 669.104C557.149 667.572 558.535 666.272 560.009 665.406L560.038 665.377Z" fill="#CC513B"/>
<path d="M566.799 617.884C566.799 617.884 566.683 617.682 566.596 617.595C566.019 616.988 565.094 616.988 564.487 617.537L553.568 627.908C550.708 630.624 550.274 635.159 552.556 638.366L567.116 658.906C568.272 660.524 568.185 662.719 566.943 664.221L559.172 673.755C558.652 674.39 558.768 675.344 559.374 675.864C560.01 676.384 560.963 676.297 561.483 675.661L569.254 666.128C571.334 663.557 571.45 659.859 569.543 657.201L554.983 636.661C553.539 634.668 553.828 631.808 555.619 630.104L566.539 619.733C567.059 619.241 567.145 618.49 566.799 617.913V617.884Z" fill="#9D9D9C"/>
</g>
<defs>
<clipPath id="clip0_79_2700">
<rect width="650" height="800" fill="white"/>
</clipPath>
</defs>
</svg>
