<svg width="20" height="20" viewBox="0 0 20 20" fill="none" xmlns="http://www.w3.org/2000/svg">
<path d="M2.91667 2.96875C4.89583 0.989583 7.25694 0 10 0C12.7431 0 15.0868 0.989583 17.0312 2.96875C19.0104 4.91319 20 7.25694 20 10C20 12.7431 19.0104 15.1042 17.0312 17.0833C15.0868 19.0278 12.7431 20 10 20C7.25694 20 4.89583 19.0278 2.91667 17.0833C0.972222 15.1042 0 12.7431 0 10C0 7.25694 0.972222 4.91319 2.91667 2.96875ZM15.8854 4.11458C14.2535 2.48264 12.2917 1.66667 10 1.66667C7.70833 1.66667 5.74653 2.48264 4.11458 4.11458C2.48264 5.74653 1.66667 7.70833 1.66667 10C1.66667 12.2917 2.48264 14.2535 4.11458 15.8854C5.74653 17.5174 7.70833 18.3333 10 18.3333C12.2917 18.3333 14.2535 17.5174 15.8854 15.8854C17.5174 14.2535 18.3333 12.2917 18.3333 10C18.3333 7.70833 17.5174 5.74653 15.8854 4.11458ZM9.375 2.76042C9.54861 2.58681 9.75694 2.5 10 2.5C10.2431 2.5 10.434 2.58681 10.5729 2.76042C10.7465 2.89931 10.8333 3.09028 10.8333 3.33333C10.8333 3.57639 10.7465 3.78472 10.5729 3.95833C10.434 4.09722 10.2431 4.16667 10 4.16667C9.75694 4.16667 9.54861 4.09722 9.375 3.95833C9.23611 3.78472 9.16667 3.57639 9.16667 3.33333C9.16667 3.09028 9.23611 2.89931 9.375 2.76042ZM4.6875 4.73958C4.86111 4.56597 5.05208 4.47917 5.26042 4.47917C5.50347 4.47917 5.71181 4.56597 5.88542 4.73958C6.05903 4.87847 6.14583 5.06944 6.14583 5.3125C6.14583 5.52083 6.05903 5.71181 5.88542 5.88542C5.71181 6.05903 5.50347 6.14583 5.26042 6.14583C5.05208 6.14583 4.86111 6.05903 4.6875 5.88542C4.54861 5.71181 4.47917 5.52083 4.47917 5.3125C4.47917 5.06944 4.54861 4.87847 4.6875 4.73958ZM14.1146 4.6875L15.3125 5.88542L11.6146 9.58333C11.6493 9.72222 11.6667 9.86111 11.6667 10C11.6667 10.4514 11.4931 10.8507 11.1458 11.1979C10.8333 11.5104 10.4514 11.6667 10 11.6667C9.54861 11.6667 9.14931 11.5104 8.80208 11.1979C8.48958 10.8507 8.33333 10.4514 8.33333 10C8.33333 9.54861 8.48958 9.16667 8.80208 8.85417C9.14931 8.50694 9.54861 8.33333 10 8.33333C10.1389 8.33333 10.2778 8.35069 10.4167 8.38542L14.1146 4.6875ZM2.70833 9.42708C2.88194 9.25347 3.09028 9.16667 3.33333 9.16667C3.57639 9.16667 3.76736 9.25347 3.90625 9.42708C4.07986 9.56597 4.16667 9.75694 4.16667 10C4.16667 10.2431 4.07986 10.4514 3.90625 10.625C3.76736 10.7639 3.57639 10.8333 3.33333 10.8333C3.09028 10.8333 2.88194 10.7639 2.70833 10.625C2.56944 10.4514 2.5 10.2431 2.5 10C2.5 9.75694 2.56944 9.56597 2.70833 9.42708ZM16.0417 9.42708C16.2153 9.25347 16.4236 9.16667 16.6667 9.16667C16.9097 9.16667 17.1007 9.25347 17.2396 9.42708C17.4132 9.56597 17.5 9.75694 17.5 10C17.5 10.2431 17.4132 10.4514 17.2396 10.625C17.1007 10.7639 16.9097 10.8333 16.6667 10.8333C16.4236 10.8333 16.2153 10.7639 16.0417 10.625C15.9028 10.4514 15.8333 10.2431 15.8333 10C15.8333 9.75694 15.9028 9.56597 16.0417 9.42708ZM4.6875 14.1146C4.86111 13.941 5.05208 13.8542 5.26042 13.8542C5.50347 13.8542 5.71181 13.941 5.88542 14.1146C6.05903 14.2882 6.14583 14.4965 6.14583 14.7396C6.14583 14.9479 6.05903 15.1389 5.88542 15.3125C5.71181 15.4514 5.50347 15.5208 5.26042 15.5208C5.05208 15.5208 4.86111 15.4514 4.6875 15.3125C4.54861 15.1389 4.47917 14.9479 4.47917 14.7396C4.47917 14.4965 4.54861 14.2882 4.6875 14.1146ZM14.1146 14.1146C14.2882 13.941 14.4792 13.8542 14.6875 13.8542C14.9306 13.8542 15.1215 13.941 15.2604 14.1146C15.434 14.2882 15.5208 14.4965 15.5208 14.7396C15.5208 14.9479 15.434 15.1389 15.2604 15.3125C15.1215 15.4514 14.9306 15.5208 14.6875 15.5208C14.4792 15.5208 14.2882 15.4514 14.1146 15.3125C13.941 15.1389 13.8542 14.9479 13.8542 14.7396C13.8542 14.4965 13.941 14.2882 14.1146 14.1146Z" fill="black"/>
</svg>
