<svg width="23" height="20" viewBox="0 0 23 20" fill="none" xmlns="http://www.w3.org/2000/svg">
<path d="M21.667 18.5C21.667 16.2077 19.8114 12.9415 17.2225 12.2188M15.0003 18.5C15.0003 15.5925 12.0159 11.9194 8.33366 11.9194C4.65144 11.9194 1.66699 15.5925 1.66699 18.5M15.0003 8.08065C15.8844 8.08065 16.7322 7.73399 17.3573 7.11693C17.9825 6.49988 18.3337 5.66297 18.3337 4.79032C18.3337 3.91767 17.9825 3.08077 17.3573 2.46371C16.7322 1.84666 15.8844 1.5 15.0003 1.5M11.667 4.79032C11.667 5.66297 11.3158 6.49988 10.6907 7.11693C10.0656 7.73399 9.21771 8.08065 8.33366 8.08065C7.4496 8.08065 6.60176 7.73399 5.97664 7.11693C5.35152 6.49988 5.00033 5.66297 5.00033 4.79032C5.00033 3.91767 5.35152 3.08077 5.97664 2.46371C6.60176 1.84666 7.4496 1.5 8.33366 1.5C9.21771 1.5 10.0656 1.84666 10.6907 2.46371C11.3158 3.08077 11.667 3.91767 11.667 4.79032Z" stroke="#242424" stroke-width="1.8" stroke-linecap="round" stroke-linejoin="round"/>
</svg>
