<svg width="20" height="20" viewBox="0 0 20 20" fill="none" xmlns="http://www.w3.org/2000/svg">
<path d="M7.77228 0H12.2277L12.3762 0.625L12.8218 2.88462C13.5479 3.17308 14.2244 3.57372 14.8515 4.08654L17.1782 3.31731L17.8218 3.125L18.1188 3.65385L19.703 6.34615L20 6.875L19.5545 7.30769L17.7723 8.79808C17.8713 9.375 17.9208 9.77564 17.9208 10C17.9208 10.2244 17.8713 10.625 17.7723 11.2019L19.5545 12.6923L20 13.125L19.703 13.6538L18.1188 16.3462L17.8218 16.875L17.1782 16.6827L14.8515 15.9135C14.2244 16.4263 13.5479 16.8269 12.8218 17.1154L12.3762 19.375L12.2277 20H7.77228L7.62376 19.375L7.17822 17.1154C6.45215 16.8269 5.77558 16.4263 5.14851 15.9135L2.82178 16.6827L2.17822 16.875L1.88119 16.3462L0.29703 13.6538L0 13.125L0.445545 12.6923L2.22772 11.2019C2.12871 10.625 2.07921 10.2244 2.07921 10C2.07921 9.77564 2.12871 9.375 2.22772 8.79808L0.445545 7.30769L0 6.875L0.29703 6.34615L1.88119 3.65385L2.17822 3.125L2.82178 3.31731L5.14851 4.08654C5.77558 3.57372 6.45215 3.17308 7.17822 2.88462L7.62376 0.625L7.77228 0ZM9.05941 1.53846L8.66337 3.55769L8.56436 3.99038L8.11881 4.13462C7.22772 4.42308 6.43564 4.87179 5.74257 5.48077L5.34653 5.76923L4.9505 5.67308L2.92079 5L1.9802 6.53846L3.56436 7.88462L3.9604 8.17308L3.81188 8.65385C3.71287 9.07051 3.66337 9.51923 3.66337 10C3.66337 10.4808 3.71287 10.9295 3.81188 11.3462L3.9604 11.8269L3.56436 12.1154L1.9802 13.4615L2.92079 15L4.9505 14.3269L5.34653 14.2308L5.74257 14.5192C6.43564 15.1282 7.22772 15.5769 8.11881 15.8654L8.56436 16.0096L8.66337 16.4423L9.05941 18.4615H10.9406L11.3366 16.4423L11.4356 16.0096L11.8812 15.8654C12.7723 15.5769 13.5644 15.1282 14.2574 14.5192L14.6535 14.2308L15.0495 14.3269L17.0792 15L18.0198 13.4615L16.4356 12.1154L16.0891 11.8269L16.1881 11.3462C16.2871 10.9295 16.3366 10.4808 16.3366 10C16.3366 9.51923 16.2871 9.07051 16.1881 8.65385L16.0396 8.17308L16.4356 7.88462L18.0198 6.53846L17.0792 5L15.0495 5.67308L14.6535 5.76923L14.2574 5.48077C13.5644 4.87179 12.7723 4.42308 11.8812 4.13462L11.4356 3.99038L11.3366 3.55769L10.9406 1.53846H9.05941ZM7.17822 7.30769C7.9703 6.53846 8.91089 6.15385 10 6.15385C11.0891 6.15385 12.0132 6.53846 12.7723 7.30769C13.5644 8.04487 13.9604 8.94231 13.9604 10C13.9604 11.0577 13.5644 11.9712 12.7723 12.7404C12.0132 13.4776 11.0891 13.8462 10 13.8462C8.91089 13.8462 7.9703 13.4776 7.17822 12.7404C6.41914 11.9712 6.0396 11.0577 6.0396 10C6.0396 8.94231 6.41914 8.04487 7.17822 7.30769ZM11.6832 8.36538C11.2211 7.91667 10.6601 7.69231 10 7.69231C9.33993 7.69231 8.77888 7.91667 8.31683 8.36538C7.85479 8.8141 7.62376 9.35897 7.62376 10C7.62376 10.641 7.85479 11.1859 8.31683 11.6346C8.77888 12.0833 9.33993 12.3077 10 12.3077C10.6601 12.3077 11.2211 12.0833 11.6832 11.6346C12.1452 11.1859 12.3762 10.641 12.3762 10C12.3762 9.35897 12.1452 8.8141 11.6832 8.36538Z" fill="#202224"/>
</svg>
