<svg width="12" height="18" viewBox="0 0 12 18" fill="none" xmlns="http://www.w3.org/2000/svg">
<path d="M5.25 0V1.5225C3.1725 1.67475 1.5 3.417 1.5 5.53125C1.5 7.46925 2.898 9.12225 4.8045 9.46875L5.25 9.5625V15H4.78125C4.4487 15.0005 4.11933 14.9354 3.812 14.8083C3.50467 14.6813 3.22543 14.4949 2.99028 14.2597C2.75514 14.0246 2.56871 13.7453 2.44167 13.438C2.31464 13.1307 2.24951 12.8013 2.25 12.4688V11.25H0.75V12.4688C0.75 14.6812 2.5695 16.5 4.78125 16.5H5.25V18H6.75V16.5H7.21875C9.42975 16.5 11.25 14.6805 11.25 12.4688C11.25 10.5308 9.85275 8.87775 7.9455 8.53125L6.75 8.2965V3.024C7.36832 3.09063 7.94016 3.38355 8.35553 3.8464C8.77089 4.30925 9.00043 4.90935 9 5.53125V6.75H10.5V5.53125C10.5 3.41625 8.8275 1.67475 6.75 1.52325V0H5.25ZM5.25 3.0225V8.016L5.0625 7.992C4.48337 7.89199 3.95842 7.58999 3.58083 7.13964C3.20325 6.68928 2.99746 6.1197 3 5.532C2.9992 4.90984 3.22857 4.30938 3.64397 3.84621C4.05937 3.38304 4.63142 3.08991 5.25 3.02325V3.0225ZM6.75 9.84375L7.6875 10.0087C8.26689 10.1082 8.79219 10.41 9.16988 10.8605C9.54757 11.311 9.75315 11.8809 9.75 12.4688C9.75049 12.8013 9.68536 13.1307 9.55833 13.438C9.43129 13.7453 9.24486 14.0246 9.00971 14.2597C8.77457 14.4949 8.49533 14.6813 8.188 14.8083C7.88067 14.9354 7.5513 15.0005 7.21875 15H6.75V9.84375Z" fill="white"/>
</svg>
