<svg width="12" height="20" viewBox="0 0 12 20" fill="currentColor" xmlns="http://www.w3.org/2000/svg">
<path d="M6.89941 16.0195L7.0166 15.998C7.68896 15.8772 8.45354 15.6391 9.05273 15.2412C9.65342 14.8422 10.0986 14.2743 10.0986 13.5C10.0986 12.7257 9.65342 12.1578 9.05273 11.7588C8.45354 11.3609 7.68896 11.1228 7.0166 11.002L6.89941 10.9805V16.0195ZM4.98145 4.00195C4.30909 4.12277 3.5445 4.36092 2.94531 4.75879C2.34463 5.15779 1.89941 5.72569 1.89941 6.5C1.89941 7.24335 2.33419 7.8066 2.92871 8.21094C3.52239 8.61468 4.28668 8.86899 4.98047 8.99707L5.09863 9.01953V3.98047L4.98145 4.00195ZM5.09863 10.8428L5.0127 10.8311C3.85836 10.6743 2.62584 10.2479 1.68457 9.53125C0.74552 8.81624 0.0986328 7.81532 0.0986328 6.5C0.0986328 5.11927 0.767698 4.11447 1.7168 3.41406C2.66866 2.71163 3.9007 2.31746 5.01172 2.16992L5.09863 2.1582V0.0996094H6.89941V2.1582L6.98633 2.16992C8.09735 2.31746 9.32938 2.71163 10.2812 3.41406C11.2074 4.09751 11.8651 5.07081 11.8965 6.40039H10.0957C10.0593 5.67679 9.62735 5.14047 9.05273 4.75879C8.45354 4.36092 7.68896 4.12277 7.0166 4.00195L6.89941 3.98047V9.1582L6.98633 9.16992C8.09735 9.31746 9.32938 9.71163 10.2812 10.4141C11.2303 11.1145 11.8994 12.1193 11.8994 13.5C11.8994 14.8807 11.2304 15.8863 10.2812 16.5869C9.32941 17.2895 8.09725 17.6835 6.98633 17.8311L6.89941 17.8428V19.9004H5.09863V17.8477L5.01172 17.8369C3.73835 17.6802 2.50627 17.2238 1.5957 16.4922C0.711283 15.7815 0.131757 14.8122 0.101562 13.5996H1.90332C1.93911 14.2826 2.33967 14.8146 2.89844 15.2041C3.48311 15.6116 4.24918 15.8709 4.98242 15.998L5.09863 16.0186V10.8428Z" fill="currentColor" />
</svg>
