<svg width="41" height="41" viewBox="0 0 41 41" fill="none" xmlns="http://www.w3.org/2000/svg">
<path d="M5.98438 24.75C5.98442 25.275 6.06179 25.7999 6.24805 26.4238L6.30176 26.6016C7.09179 28.9586 9.26719 30.5418 11.7129 30.542H33.8926L32.5166 34.9668C32.1269 36.4714 30.7363 37.493 29.2148 37.4932C28.9181 37.4929 28.6222 37.4544 28.335 37.3789L4.70996 30.9824C2.8874 30.4742 1.80067 28.5664 2.27734 26.7266L5.98438 14.2178V24.75ZM35.0137 3.50977C37.1188 3.50994 38.8328 5.24285 38.833 7.37109V24.3623C38.833 26.4908 37.119 28.2244 35.0137 28.2246H12.0957C9.9908 28.2244 8.27637 26.4908 8.27637 24.3623V7.37109C8.27661 5.24288 9.99095 3.50999 12.0957 3.50977H35.0137ZM12.0957 6.59961C11.6745 6.59983 11.3322 6.94495 11.332 7.37109V21.9512L15.5488 17.6895C16.5923 16.6331 18.293 16.6332 19.3379 17.6895L21.1865 19.5537L26.8613 12.668C27.3685 12.0532 28.1111 11.6978 28.9023 11.6934C29.6982 11.7117 30.4392 12.0366 30.9512 12.6436L35.7773 18.3369V7.37109C35.7771 6.94495 35.4353 6.59978 35.0137 6.59961H12.0957ZM15.915 8.14453C17.6002 8.14464 18.9707 9.53068 18.9707 11.2344C18.9705 12.9379 17.6001 14.3231 15.915 14.3232C14.23 14.3232 12.8596 12.9378 12.8594 11.2344C12.8594 9.53069 14.2298 8.14453 15.915 8.14453Z" fill="#A3A3A3"/>
</svg>
