<svg width="24" height="24" viewBox="0 0 24 24" fill="none" xmlns="http://www.w3.org/2000/svg">
<path d="M19 11H5C3.89543 11 3 11.8954 3 13V20C3 21.1046 3.89543 22 5 22H19C20.1046 22 21 21.1046 21 20V13C21 11.8954 20.1046 11 19 11Z" stroke="white" stroke-width="2" stroke-linecap="round" stroke-linejoin="round"/>
<path d="M6.99951 11V7C6.99951 5.67392 7.5263 4.40215 8.46398 3.46447C9.40166 2.52678 10.6734 2 11.9995 2C13.3256 2 14.5974 2.52678 15.535 3.46447C16.4727 4.40215 16.9995 5.67392 16.9995 7V11" stroke="white" stroke-width="2" stroke-linecap="round" stroke-linejoin="round"/>
</svg>
