<svg width="18" height="17" viewBox="0 0 18 17" fill="none" xmlns="http://www.w3.org/2000/svg">
<path d="M8.16797 12.666H9.83464V7.66602H8.16797V12.666ZM9.0013 5.99935C9.23741 5.99935 9.43547 5.91935 9.59547 5.75935C9.75547 5.59935 9.83519 5.40157 9.83464 5.16602C9.83408 4.93046 9.75408 4.73268 9.59464 4.57268C9.43519 4.41268 9.23741 4.33268 9.0013 4.33268C8.76519 4.33268 8.56741 4.41268 8.40797 4.57268C8.24853 4.73268 8.16852 4.93046 8.16797 5.16602C8.16741 5.40157 8.24741 5.59963 8.40797 5.76018C8.56852 5.92074 8.7663 6.00046 9.0013 5.99935ZM9.0013 16.8327C7.84853 16.8327 6.76519 16.6138 5.7513 16.176C4.73741 15.7382 3.85547 15.1446 3.10547 14.3952C2.35547 13.6457 1.76186 12.7638 1.32464 11.7493C0.887414 10.7349 0.668525 9.65157 0.66797 8.49935C0.667414 7.34713 0.886303 6.26379 1.32464 5.24935C1.76297 4.23491 2.35658 3.35296 3.10547 2.60352C3.85436 1.85407 4.7363 1.26046 5.7513 0.822682C6.7663 0.384905 7.84964 0.166016 9.0013 0.166016C10.153 0.166016 11.2363 0.384905 12.2513 0.822682C13.2663 1.26046 14.1482 1.85407 14.8971 2.60352C15.646 3.35296 16.2399 4.23491 16.6788 5.24935C17.1177 6.26379 17.3363 7.34713 17.3346 8.49935C17.333 9.65157 17.1141 10.7349 16.678 11.7493C16.2419 12.7638 15.6482 13.6457 14.8971 14.3952C14.146 15.1446 13.2641 15.7385 12.2513 16.1768C11.2385 16.6152 10.1552 16.8338 9.0013 16.8327ZM9.0013 15.166C10.8624 15.166 12.4388 14.5202 13.7305 13.2285C15.0221 11.9368 15.668 10.3605 15.668 8.49935C15.668 6.63824 15.0221 5.06185 13.7305 3.77018C12.4388 2.47852 10.8624 1.83268 9.0013 1.83268C7.14019 1.83268 5.5638 2.47852 4.27214 3.77018C2.98047 5.06185 2.33464 6.63824 2.33464 8.49935C2.33464 10.3605 2.98047 11.9368 4.27214 13.2285C5.5638 14.5202 7.14019 15.166 9.0013 15.166Z" fill="#003BFF"/>
</svg>
