<svg width="20" height="20" viewBox="0 0 20 20" fill="none" xmlns="http://www.w3.org/2000/svg">
<path d="M10.0013 15.8332C13.223 15.8332 15.8346 13.2215 15.8346 9.99984C15.8346 6.77818 13.223 4.1665 10.0013 4.1665C6.77964 4.1665 4.16797 6.77818 4.16797 9.99984C4.16797 13.2215 6.77964 15.8332 10.0013 15.8332Z" stroke="#242424" stroke-width="1.5" stroke-linecap="round" stroke-linejoin="round"/>
<path d="M10 7.5V10L11.25 11.25" stroke="#242424" stroke-width="1.5" stroke-linecap="round" stroke-linejoin="round"/>
<path d="M13.7594 14.4585L13.4677 17.6502C13.4302 18.0657 13.2381 18.4521 12.9295 18.7329C12.621 19.0137 12.2183 19.1685 11.801 19.1668H8.19271C7.77548 19.1685 7.3728 19.0137 7.06421 18.7329C6.75563 18.4521 6.56359 18.0657 6.52604 17.6502L6.23438 14.4585M6.24271 5.54184L6.53438 2.35018C6.5718 1.93607 6.76265 1.55091 7.06947 1.2703C7.37629 0.989694 7.77692 0.833901 8.19271 0.83351H11.8177C12.2349 0.831817 12.6376 0.986675 12.9462 1.26749C13.2548 1.5483 13.4468 1.93464 13.4844 2.35018L13.776 5.54184" stroke="#242424" stroke-width="1.5" stroke-linecap="round" stroke-linejoin="round"/>
</svg>
